<?xml version="1.0" encoding="UTF-8" standalone="no"?>
<svg xmlns:rdf="http://www.w3.org/1999/02/22-rdf-syntax-ns#" xmlns="http://www.w3.org/2000/svg" version="1.1" xmlns:cc="http://creativecommons.org/ns#" xmlns:dc="http://purl.org/dc/elements/1.1/" viewBox="0 0 500 500">
<g stroke-miterlimit="5" fill="#f7f7f7">
<path d="m38 2e2c-11 0-20 6-21 14-1.8-0.96-4-1.5-6.5-1.5-5.9 0-11 3.4-11 7.5s4.6 7.4 10 7.5c-0.65 1.2-1 2.5-1 3.9 0 6.1 7.1 11 16 11 4.4 0 8.3-1.2 11-3.2 3.6 2 8.2 3.2 13 3.2 9.8 0 18-4.6 21-11 2.5 5.6 10 9.7 19 9.7 11 0 20-6.2 20-14 0-7.6-8.8-14-20-14-0.12 0-0.23 0.008-0.34 0.009-1.6-5.5-8.5-9.6-17-9.6-6.3 0-12 2.4-15 6-2.8-5.6-10-9.6-19-9.6z"/>
<path d="m2.5e2 1.5e2c-8.7 0-16 4-19 9.5-1.6-2.8-5.4-4.7-9.9-4.7-5.9 0-11 3.4-11 7.5 0 0.43 0.061 0.85 0.16 1.3-6.7 2.4-11 7.2-11 13 0 7.9 9.2 14 21 14 6.9 0 13-2.4 17-6 0.37 0.019 0.75 0.026 1.1 0.028 2 4.5 8 7.8 15 7.8 5.8 0 11-2.2 14-5.4 0.18 0.003 0.35 0.009 0.53 0.009 12 0 21-6.7 21-15 0-8.2-9.5-15-21-15-3.3-4.3-9.8-7.2-17-7.2z"/>
<path d="m58 36c-8.7 0-16 5-16 11 0 3.7 2.6 7 6.7 9.1-1.5 1.3-2.4 2.9-2.4 4.7 0 4.1 4.8 7.5 11 7.5 3 0 5.7-0.85 7.6-2.2 3.6 4.2 10 7 18 7 7.1 0 13-2.6 17-6.4 1.1 0.19 2.2 0.3 3.4 0.37 3.1 2.9 8.1 4.9 14 4.9 4.4 0 8.4-1.2 11-3.1 2.9 1.2 6.3 1.9 9.9 1.9 11 0 20-6.2 20-14 0-7.6-8.8-14-20-14-5.2 0-9.9 1.4-13 3.7-3.1-5.7-11-9.7-20-9.7-7.9 0-15 3-18 7.4-1.2-0.16-2.5-0.24-3.8-0.24-3.1 0-6 0.48-8.7 1.3-0.96-5.5-7.6-9.7-16-9.7z"/>
<path d="m4e2 37c-8.7 0-16 5-16 11 0 1.1 0.21 2.1 0.61 3.1-11 0.66-20 7.1-20 15 0 8.3 9.6 15 21 15 3.1 0 6.1-0.48 8.8-1.3 1.4 3.1 5.4 5.3 10 5.3 5.7 0 10-3.2 11-7.1 2.1 0.53 4.4 0.83 6.7 0.83 6.1 0 12-1.9 15-5 2.8 1.4 6.2 2.2 9.8 2.2 9.5 0 17-5.4 17-12s-7.7-12-17-12c-1.9 0-3.8 0.23-5.5 0.64-2.8-5.6-10-9.6-19-9.6-3 0-5.8 0.44-8.3 1.2-2.3-4.2-8-7.2-15-7.2z"/>
<path d="m4.1e2 2.4e2c-8.7 0-16 4-19 9.5-1.6-2.8-5.4-4.7-9.9-4.7-5.9 0-11 3.4-11 7.5 0 0.43 0.061 0.85 0.16 1.3-6.7 2.4-11 7.2-11 13 0 7.9 9.2 14 21 14 6.9 0 13-2.4 17-6 0.37 0.019 0.75 0.026 1.1 0.028 2 4.5 8 7.8 15 7.8 5.8 0 11-2.2 14-5.4 0.18 0.003 0.35 0.009 0.53 0.009 12 0 21-6.7 21-15 0-8.2-9.5-15-21-15-3.3-4.3-9.8-7.2-17-7.2z"/>
<path d="m1.3e2 3.2e2c-8.7 0-16 5-16 11 0 1.1 0.21 2.1 0.61 3.1-11 0.66-20 7.1-20 15 0 8.3 9.6 15 21 15 3.1 0 6.1-0.48 8.8-1.3 1.4 3.1 5.4 5.3 10 5.3 5.7 0 10-3.2 11-7.1 2.1 0.53 4.4 0.83 6.7 0.83 6.1 0 12-1.9 15-5 2.8 1.4 6.2 2.2 9.8 2.2 9.5 0 17-5.4 17-12s-7.7-12-17-12c-1.9 0-3.8 0.23-5.5 0.64-2.8-5.6-10-9.6-19-9.6-3 0-5.8 0.44-8.3 1.2-2.3-4.2-8-7.2-15-7.2z"/>
<path d="m4e2 4.2e2c-8.7 0-16 5-16 11 0 3.7 2.6 7 6.7 9.1-1.5 1.3-2.4 2.9-2.4 4.7 0 4.1 4.8 7.5 11 7.5 3 0 5.7-0.85 7.6-2.2 3.6 4.2 10 7 18 7 7.1 0 13-2.6 17-6.4 1.1 0.19 2.2 0.3 3.4 0.37 3.1 2.9 8.1 4.9 14 4.9 4.4 0 8.4-1.2 11-3.1 2.9 1.2 6.3 1.9 9.9 1.9 11 0 20-6.2 20-14 0-7.6-8.8-14-20-14-5.2 0-9.9 1.4-13 3.7-3.1-5.7-11-9.7-20-9.7-7.9 0-15 3-18 7.4-1.2-0.16-2.5-0.24-3.8-0.24-3.1 0-6 0.48-8.7 1.3-0.96-5.5-7.6-9.7-16-9.7z"/>
<path d="m2.2e2 4.6e2c-8.7 0-16 4-19 9.5-1.6-2.8-5.4-4.7-9.9-4.7-5.9 0-11 3.4-11 7.5 0 0.43 0.061 0.85 0.16 1.3-6.7 2.4-11 7.2-11 13 0 7.9 9.2 14 21 14 6.9 0 13-2.4 17-6 0.37 0.019 0.75 0.026 1.1 0.028 2 4.5 8 7.8 15 7.8 5.8 0 11-2.2 14-5.4 0.18 0.003 0.35 0.009 0.53 0.009 12 0 21-6.7 21-15 0-8.2-9.5-15-21-15-3.3-4.3-9.8-7.2-17-7.2z"/>
</g>
</svg>
