<?xml version="1.0" encoding="UTF-8" standalone="no"?>
<svg
   xmlns:dc="http://purl.org/dc/elements/1.1/"
   xmlns:cc="http://creativecommons.org/ns#"
   xmlns:rdf="http://www.w3.org/1999/02/22-rdf-syntax-ns#"
   xmlns:svg="http://www.w3.org/2000/svg"
   xmlns="http://www.w3.org/2000/svg"
   xmlns:sodipodi="http://sodipodi.sourceforge.net/DTD/sodipodi-0.dtd"
   xmlns:inkscape="http://www.inkscape.org/namespaces/inkscape"
   xml:space="preserve"
   height="1.5e2"
   viewBox="250.5 445.5 500 150"
   width="5e2"
   version="1.1"
   y="0px"
   x="0px"
   enable-background="new 250.5 445.5 500 100"
   id="svg2"
   inkscape:version="0.91 r13725"
   sodipodi:docname="hills.svg"><metadata
     id="metadata36"><rdf:RDF><cc:Work
         rdf:about=""><dc:format>image/svg+xml</dc:format><dc:type
           rdf:resource="http://purl.org/dc/dcmitype/StillImage" /></cc:Work></rdf:RDF></metadata><defs
     id="defs34" /><sodipodi:namedview
     pagecolor="#ffffff"
     bordercolor="#666666"
     borderopacity="1"
     objecttolerance="10"
     gridtolerance="10"
     guidetolerance="10"
     inkscape:pageopacity="0"
     inkscape:pageshadow="2"
     inkscape:window-width="1920"
     inkscape:window-height="1137"
     id="namedview32"
     showgrid="false"
     inkscape:zoom="10.176"
     inkscape:cx="76.531257"
     inkscape:cy="130.83214"
     inkscape:window-x="-8"
     inkscape:window-y="-8"
     inkscape:window-maximized="1"
     inkscape:current-layer="svg2" /><path
     fill="#e0e0e0"
     d="m6.8e2 6.1e2c4.9-10 35-50 75-50s71 40 75 50"
     id="path4" /><path
     fill="#e0e0e0"
     d="m4.5e2 6.1e2c5.8-10 41-50 88-50s83 40 88 50"
     id="path6" /><path
     fill="#e5e5e5"
     d="m6.3e2 6.1e2c3.3-10 23-50 50-50s48 40 50 50"
     id="path8" /><path
     fill="#dbdbdb"
     d="m2.8e2 6.1e2c5-12 35-60 75-60s72 48 75 60"
     id="path10" /><path
     fill="#dbdbdb"
     d="m5.6e2 6.1e2c4.2-8 29-40 62-40s60 32 62 40"
     id="path12" /><path
     fill="#e5e5e5"
     d="m3.8e2 6.1e2c4.2-8 29-40 62-40s60 32 62 40"
     id="path14" /><path
     fill="#e0e0e0"
     d="m1.8e2 6.1e2c4.9-10 35-50 75-50s71 40 75 50"
     id="path16" /><g
     transform="matrix(.18 0 0 .18 5.6e2 4.5e2)"
     id="g18"><path
       d="m2.4e2 4.4e2h1.7e2s-84 2.3e2 32 3e2c-1.4e2 -42 16 72-1.1e2 13 2.5-16-24-41-1.3e2 -2.7 1.3e2 -1.2e2 40-3.1e2 40-3.1e2z"
       fill="#c2c2c2"
       id="path20" /><path
       d="m 180,80 c -110,4 -200,70 -200,160 0,49 31,94 80,120 5.8,84 120,150 260,150 140,0 260,-71 260,-160 0,-0.43 -0.08,-0.85 -0.086,-1.3 42,-19 68,-46 68,-76 0,-32 -29,-60 -73,-79 2,-8.7 3.1,-18 3.1,-27 0,-87 -159,-160 -220,-160 C 258.61457,6.6495259 234.28451,26.497025 180,80 Z"
       id="path22"
       inkscape:connector-curvature="0"
       style="fill:#a3a3a3"
       sodipodi:nodetypes="cscsscscscc" /></g><g
     transform="matrix(.12 0 0 .12 3.1e2 4.8e2)"
     id="g24"><g
       transform="translate(23 42)"
       id="g26"><path
         d="m2.4e2 1.2e2h1.7e2s-84 4.5e2 32 5.9e2c-1.4e2 -82-17 79-1.1e2 -2.1 2.5-31-24-53-1.3e2 23 1.3e2 -2.3e2 37-6.1e2 37-6.1e2z"
         fill="#c2c2c2"
         id="path28" /><path
         d="m 190,-103 c -120,4 -210,73 -210,160 0,49 31,94 80,120 5.8,84 120,150 260,150 140,0 260,-71 260,-160 0,-0.43 -0.08,-0.85 -0.086,-1.3 42,-19 68,-46 68,-76 0,-32 -29,-60 -73,-79 2,-8.7 3.1,-18 3.1,-27 0,-87 -159,-160 -220,-160 -70.87374,0.46068 -115.81925,21.85669 -168.014,73.3 z"
         id="path30"
         inkscape:connector-curvature="0"
         style="fill:#a3a3a3"
         sodipodi:nodetypes="cscsscscscc" /></g></g></svg>