<?xml version="1.0" encoding="UTF-8" standalone="no"?>
<svg xmlns:rdf="http://www.w3.org/1999/02/22-rdf-syntax-ns#" xmlns="http://www.w3.org/2000/svg" enable-background="new 250.5 445.5 500 100" xml:space="preserve" height="1.9e2" width="5e2" version="1.1" y="0px" x="0px" xmlns:cc="http://creativecommons.org/ns#" xmlns:dc="http://purl.org/dc/elements/1.1/" viewBox="250.5 445.5 500 190"><path fill="#e0e0e0" d="m6.8e2 6.5e2c4.9-10 35-50 75-50s71 40 75 50"/><path fill="#e0e0e0" d="m4.5e2 6.5e2c5.8-10 41-50 88-50s83 40 88 50"/><path fill="#e5e5e5" d="m6.3e2 6.5e2c3.3-10 23-50 50-50s48 40 50 50"/><path fill="#dbdbdb" d="m2.8e2 6.5e2c5-12 35-60 75-60s72 48 75 60"/><path fill="#dbdbdb" d="m5.6e2 6.5e2c4.2-8 29-40 62-40s60 32 62 40"/><path fill="#e5e5e5" d="m3.8e2 6.5e2c4.2-8 29-40 62-40s60 32 62 40"/><path fill="#e0e0e0" d="m1.8e2 6.5e2c4.9-10 35-50 75-50s71 40 75 50"/><g transform="matrix(.17 0 0 .17 3e2 5.1e2)" fill-rule="evenodd"><path d="m2.9e2 4.4e2 65 0.23-0.36 1e2c-19 6.6-42 8.5-65-0.23l0.36-1e2z" fill="#c2c2c2"/><g fill="#a3a3a3"><path d="m5.5e2 4.6e2c-1.5e2 -30-3e2 20-4.6e2 -10 1.1e2 -70 1.4e2 -2.1e2 2.3e2 -2.9e2 75 75 1.2e2 2.2e2 2.3e2 3e2z"/><path d="m5.1e2 2.7e2c-1.2e2 -20-2.5e2 10-3.7e2 -10 80-50 1.1e2 -1.7e2 1.8e2 -2.3e2 60 60 1e2 1.8e2 1.9e2 2.4e2z"/><path d="m4.6e2 1.2e2c-90-14-1.9e2 14-2.8e2 -1 66-44 85-1.3e2 1.4e2 -1.8e2 46 47 75 1.4e2 1.4e2 1.8e2z"/></g></g><g transform="matrix(.26 0 0 .26 5.4e2 4.8e2)" fill-rule="evenodd"><path d="m2.9e2 4.4e2 65 0.23-0.36 1e2c-19 6.6-42 8.5-65-0.23l0.36-1e2z" fill="#c2c2c2"/><g fill="#a3a3a3"><path d="m5.5e2 4.6e2c-1.5e2 -30-3e2 20-4.6e2 -10 1.1e2 -70 1.4e2 -2.1e2 2.3e2 -2.9e2 75 75 1.2e2 2.2e2 2.3e2 3e2z"/><path d="m5.1e2 2.7e2c-1.2e2 -20-2.5e2 10-3.7e2 -10 80-50 1.1e2 -1.7e2 1.8e2 -2.3e2 60 60 1e2 1.8e2 1.9e2 2.4e2z"/><path d="m4.6e2 1.2e2c-90-14-1.9e2 14-2.8e2 -1 66-44 85-1.3e2 1.4e2 -1.8e2 46 47 75 1.4e2 1.4e2 1.8e2z"/></g></g></svg>
