<?xml version="1.0" encoding="UTF-8" standalone="no"?>
<svg xmlns:rdf="http://www.w3.org/1999/02/22-rdf-syntax-ns#" xmlns="http://www.w3.org/2000/svg" version="1.1" xmlns:cc="http://creativecommons.org/ns#" xmlns:xlink="http://www.w3.org/1999/xlink" viewBox="0 0 100 100" xmlns:dc="http://purl.org/dc/elements/1.1/">
<defs>
<filter id="l" y="0" x="0" height="1" width="1">
<feImage xlink:href="#k" result="p1"/>
<feImage xlink:href="#j" result="p2"/>
<feBlend mode="soft-light" in2="p2" in="p1"/>
</filter>
<linearGradient id="a" y2="-487.7" gradientUnits="userSpaceOnUse" x2="766.6" gradientTransform="matrix(.938 0 0 -.938 -714 -420.7)" y1="-531.2" x1="786.6">
<stop stop-color="#ADADB0" offset="0"/>
<stop stop-color="#B7B7B9" stop-opacity=".3878" offset="1"/>
</linearGradient>
<linearGradient id="b" y2="-480.5" gradientUnits="userSpaceOnUse" x2="1568" gradientTransform="matrix(.938 0 0 -.938 -1422 -419.5)" y1="-538.9" x1="1602">
<stop stop-color="#ADADB0" offset="0"/>
<stop stop-color="#B7B7B9" stop-opacity=".3878" offset="1"/>
</linearGradient>
<linearGradient id="c" y2="-453" gradientUnits="userSpaceOnUse" x2="800.4" gradientTransform="matrix(.938 0 0 -.938 -714 -420.7)" y1="-463.1" x1="837.4">
<stop stop-color="#ADADB0" offset="0"/>
<stop stop-color="#B7B7B9" stop-opacity=".3878" offset="1"/>
</linearGradient>
<linearGradient id="i" y2="-498.5" gradientUnits="userSpaceOnUse" x2="799.9" gradientTransform="matrix(.9732 0 0 -.9732 -744.7 -430.3)" y1="-521.8" x1="799.9">
<stop stop-color="#4A4A4C" offset="0"/>
<stop stop-color="#626266" offset="1"/>
</linearGradient>
<radialGradient id="f" gradientUnits="userSpaceOnUse" cy="-1425" cx="2346" gradientTransform="matrix(.14 .0147 .0251 -.2468 -277.8 -344.6)" r="230.1">
<stop stop-color="#7D7D7F" offset="0"/>
<stop stop-color="#515056" offset="1"/>
</radialGradient>
<radialGradient id="e" gradientUnits="userSpaceOnUse" cy="-5656" cx="3736" gradientTransform="matrix(.1166 .0573 .0163 -.0341 -266.6 -348.7)" r="229.9">
<stop stop-color="#7D7D7F" offset="0"/>
<stop stop-color="#515056" offset="1"/>
</radialGradient>
<radialGradient id="d" gradientUnits="userSpaceOnUse" cy="-5650" cx="158.6" gradientTransform="matrix(.0293 -.0228 -.0416 -.0551 -178.1 -294.8)" r="229.8">
<stop stop-color="#8B8B8E" offset="0"/>
<stop stop-color="#58575D" offset="1"/>
</radialGradient>
<radialGradient id="g" gradientUnits="userSpaceOnUse" cy="-1315" cx="2502" gradientTransform="matrix(.1542 .0256 .0513 -.3179 -272.5 -398.3)" r="163">
<stop stop-color="#FDFDFE" offset="0"/>
<stop stop-color="#F1F1F2" stop-opacity=".4694" offset="1"/>
</radialGradient>
<radialGradient id="h" gradientUnits="userSpaceOnUse" cy="-1945" cx="3303" gradientTransform="matrix(.1183 .0468 .0535 -.1387 -241.5 -340)" r="167.3">
<stop stop-color="#FDFDFE" offset="0"/>
<stop stop-color="#F1F1F2" stop-opacity=".4694" offset="1"/>
</radialGradient>
<circle id="k" cx="50" cy="50" r="50" fill="#e5e5e5"/>
<g id="j" opacity="0.1">
<circle cy="50" cx="50" r="50" fill="#d1d1d2"/>
<path d="m3.072 67.47c-2.042-5.904-3.175-12.14-3.065-18.41 0.058-3.347 0.463-6.683 1.197-9.945 0.389-1.735 0.871-3.45 1.438-5.137 0.176-0.527 1.357-4.599 1.839-4.589 0.968 0.021 0.91 3.063 0.91 3.543 0 2.228 0.467 3.414 1.442 5.394 0.722 1.462 0.531 3.27 1.264 4.752 0.488 0.99 0.594 2.119 1.083 3.109 0.491 0.996 0.993 2.021 1.263 3.106 0.27 1.092 0.77 2.107 1.264 3.109 0.375 0.76 0.467 1.752 1.082 2.375 1.414 1.435 3.487 1.301 5.27 1.976 3.186 1.207 7.898 2.862 7.898 6.894 0 0.713-0.52 3.588 0 4.111 0.483 0.49 0.767 1.348 1.623 0.914 0.865-0.438 1.467-0.977 2.129-1.668 1.352-1.416 3.205 0.494 4.185 1.484 0.514 0.521 0.983 1.052 1.646 1.381 0.377 0.188 1.305 0.523 1.42 0.996 0.521 2.115-1.498 1.951-2.914 2.775-0.78 0.456-1.523 0.641-2.352 0.954-0.736 0.279-0.898 1.071-1.408 1.603-1.337 1.388-1.873 1.949-0.066 3.352 0.658 0.512 4.75 1.874 4.684 2.913-0.021 0.343-2.893-0.739-3.174-0.812-1.584-0.4-3.6-0.365-5.23-0.365-0.664 0-6.912-0.602-4.129 1.543 0.91 0.701 2.313 0.015 3.328 0.515 1.238 0.61 2.191 2.956 2.785 4.159 0.611 1.236 1.561 2.625 3.073 2.645 0.544 0.008 2.934-1.072 3.239-0.451-0.215-0.438-0.401 0.658-0.42 0.742-0.188 0.805-0.457 1.764-1.513 1.617-1.804-0.247-3.718-1.496-5.235-2.447-0.598-0.373-0.207-0.879-0.142-1.442 0.083-0.707-0.958-0.298-1.348-0.298-0.796 0-2.16 0.068-2.839 0.568-0.584 0.43 0.966 1.415 0.814 1.514-0.479 0.312-2.588-1.637-2.847-1.898-1.248-1.266-3.007-1.941-4.236-3.164-1.231-1.224 0.162-1.331 0.075-2.874-0.066-1.192-0.896-2.142-1.115-0.437-0.199 1.563-1.044 0.736-1.999 0.148-1.624-1-2.063-1.953-3.145-3.441-0.405-0.557-0.925-0.575-1.382-1.002-0.541-0.51-0.998-1.242-1.475-1.818-1.505-1.826-1.115-2.811 0.469-4.413-0.695 0.718-2.492 0.739-2.99-0.037-0.584-0.915-0.617-1.608-0.617-2.706-0.004-0.732-1.313-0.722-1.779-0.841-3.923-11.34 0.511 0.129 0 0z" fill="url(#a)"/>
<path d="m82.82 71.01c-1.057 0.979-1.048 2.475-0.279 3.628 0.766 1.146 2.586 1.235 1.433 2.745-0.39 0.511-5.533 2.508-4.063 3.087 0.807 0.317 3.811 0.083 1.739 1.229-0.781 0.08-2.935 3.107-2.347 3.81-0.012-0.015 3.906-2.859 4.504-2.947 0.734-0.108 1.044 0.332 1.789 0.179 0.314-0.064 0.951-0.059 0.576 0.434-0.705 0.927-1.647 1.777-2.394 2.725-0.571 0.729-1.333 1.301-2.202 0.648-0.848 1.244-2.208 2.055-3.621 2.47-0.712 0.209-2.838-0.041-2.736 1.07 0.066 0.735 0.6 1.78-0.418 2.091-0.391 0.118-1.582 0.693-1.596-0.132-0.015-0.81 0.592-1.712 1.122-2.265 0.234-0.246 0.556-0.531 0.913-0.541 0-0.611 0.114-1.258 0.49-1.754 0.343-0.453 0.861-0.699 1.406-0.789 1.07-0.178 1.181-0.127 1.712-1.231 0.352-0.731 0.521-1.97-0.601-1.146-1.277 0.936-2.132 1.967-3.713 2.45-0.742 0.228-1.519 0.349-2.294 0.351-0.87 0.002-0.739-0.674-1.481-1.026-1.02-0.483-2.373-0.036-3.291-0.763 1.263-1.356 3.066-1.904 4.746-2.517 1.586-0.577 3.025-1.329 4.623-1.87 1.648-0.558 0.435-1.744 1.42-2.549 0.609-0.496 2.871-0.76 3.016-1.611-0.829-0.103-2.059-0.004-2.199-1.109-0.803 0.175-1.507 0.626-1.822 1.419-0.349 0.879 0.129 2.075-0.435 2.774-1.138 1.412-3.214 0.931-4.733 1.494-2.142 0.795-5.11 0.854-7.166-0.25-1.355-0.642-3.682 1.627-4.666 0.737 1.42-1.676 4.02-1.106 5.765-2.256 1.567-1.032 4.094-3.026 3.708-5.222-0.379-2.16-3.637 1.553-4.032 2.1-0.437 0.604-0.892 1.287-1.536 1.68-1.244-0.492-2.34-1.414-3.744-0.89 0.094-0.72 0.188-1.674-0.426-2.204-0.841-0.727-1.838-0.1-2.783-0.32-0.791-0.186-1.587-0.791-1.72-1.647-0.144-0.929 1.502-1.878 1.011-2.394-0.802-0.842-3.06 1.11-3.891 1.336-1.932 0.524-0.813-2.047-0.381-2.834 0.39-0.715 0.846-1.119 0.939-1.931 0.149-1.302 0.475-2.606 0.368-3.926-0.106-1.313-0.58-1.67-1.464-2.425-0.645-0.551-1.445-1.389-1.496-2.299-0.102-1.804 3.1-0.615 4.155-1.08 2.094-0.92 0.858-2.946 0.35-4.493-0.226-0.688-0.493-1.503-0.339-2.235 0.186-0.883 1.201-0.52 1.318-1.17 0.144-0.799-0.215-1.587-0.194-2.384 0.029-1.112 1.429-1.626 2.067-2.398 1.67-2.012 4.045-2.435 5.818-4.256 0.883-0.905 1.621-1.948 2.221-3.065 0.482-0.897 0.658-2.281 1.771-2.599 1.648-0.469 3.354 0.655 4.984 0.757 1.718 1.258 0.26 4.668-0.161 6.254-0.705 2.662-0.406 5.655 1.401 7.754 0.818 0.95 1.756 1.797 2.506 2.808 0.793 1.067 0.789 2.373 0.83 3.655 0.06 1.884 0.513 2.627 1.651 4.008 1.169 1.415 1.847 3.242 2.503 4.941 0.441 1.144 0.608 2.949 1.959 3.176 1.321 0.223 3.051 0.148 4.069-0.855 1.213-1.197 4.433 3.467 2.942 4.602-1.478 1.125-1.856-1.592-3.121-1.762-0.754-0.101-1.32 0.447-2.021 0.473-0.439 0.01-2.187-0.295-2.459 0.26-1.867 1.728 0.194-0.395 0 0z" fill="url(#b)"/>
<path fill="#b3b3b5" d="m60.95 43.27c-1.885 1.137 0.044 3.876-2.353 4.831-2.256 0.897-4.471 1.786-6.926 1.549-2.441-0.235-4.266-3.852-5.271-5.849-1.01-2.008-1.658-4.207-1.748-6.465-0.108-2.709 0.649-5.194 1.749-7.623 0.255-0.563-0.372-1.354-0.15-2.072 0.234-0.768 0.957-1.249 1.649-1.549 4.369-1.891 10.91-0.512 14.9 1.73 1.805 1.015 3.666 2.668 3.557 4.951-0.034 0.715-0.214 1.184-0.125 1.902 0.154 1.234 0.104 2.443-0.781 3.331-0.73 0.735-0.799 1.555-1.373 2.335-0.629 0.854-1.437 1.593-2.242 2.27-0.267 0.226-0.565 0.519-0.889 0.659-1.211 0.731 0.437-0.189 0 0z"/>
<path fill="#fbfbfc" d="m71.59 37.05c-1.035 1.07-3.01 0.463-3.947-0.277-0.446-0.353-1.182-0.563-1.258 0.278-0.106 1.12 0.291 1.237 1.357 1.487 2.299 0.535-1.318 1.781-1.267 2.529-0.077 0.709 0.553 0.776-0.155 1.422-0.068 0.062-1.568 1.487-0.918 1.485 0.158-0.001 1.225-1.12 1.571-1.243 1.317-0.467 0.916-1.269 1.216-2.475 0.698-1.389 2.815-1.717 3.401-3.206-0.223 0.231-0.057 0.147 0 0z"/>
<path d="m73.02 22.33c0.793-1.713 0.767-3.551-1.53-3.401-0.813 0.054-0.935-1.101-0.666-1.685 0.49-1.074 1.735-1.375 1.383-2.775-0.483-1.928-1.838-3.188-2.707-4.832-0.936-1.768 0.795-3.158 1.112-4.652 0.156-0.738-3.983-2.025-4.399-2.166-3.86-1.298-7.932-1.973-11.99-2.179-2.593-0.131-5.196-0.062-7.779 0.204-1.431 0.146-2.854 0.354-4.269 0.617-0.782 0.146-3.516 0.313-3.863 1.063-0.555 1.195-0.705 2.752-1.682 3.67-0.153 0.144-1.375 1.858-0.549 1.936 0.664 0.061 1.401-0.113 2.059-0.191 1.402-0.17 2.785-0.537 4.15-0.029 1.332 0.494 3.143 0.127 4.562 0.216 3.813 0.237 7.612 0.849 11.38 1.499 2.687 0.464 5.367 0.974 8.034 1.544 0.936 0.198 4.063 0.423 4.305 1.685 0.277 1.434-1.098 2.08-2.085 2.645-1.263 0.722 0.479 1.9-0.298 3.132-0.852 1.346 0.779 2.672 1.609 3.741 0.834 1.071 2.156 0.391 3.225-0.042 0.654-1.411-0.128 0.052 0 0z" fill="url(#c)"/>
<path fill="url(#f)" d="m45.5 36.57c0.027-0.058 3.607-1.309 3.578-1.315 0.955 0.267 1.182-0.576 1.661-1.151 0.753-0.906 1.511-1.046 2.595-1.318 2.369-0.598-1.646-0.953-1.625-0.922-0.146-0.207 0.234-0.562-0.047-0.619-0.301-0.063-0.605-0.098-0.908-0.141-1.008-0.142-1.553-0.785-2.432-1.259-0.979-0.526-1.389-0.519-1.675-1.677-0.211-0.858 0.958-1.54 1.624-1.688 2.102-0.467 3.464 1.352 5.346 1.586 1.883 0.235-0.986 1.217-0.482 1.437 0.345 0.149 0.767-0.029 1.094 0.168 0.271 0.163 0.377 0.479 0.676 0.614 0.999 0.453 2.107-0.561 2.375-1.434 0.264-0.861 0.727-1.691 1.071-2.531 0.352-0.857 0.423-1.949 0.815-2.733 0.105-0.208 0.698-0.479 0.646-0.731-0.096-0.469-0.434-1.033-0.584-1.498-0.16-0.492-0.479-1.078-0.303-1.613 0.14-0.42 0.858-1.088 0.423-1.545-0.648-0.678-1.125-0.207-1.673 0.229-1.053 0.836-0.752-1.127-0.873-1.584-0.26-0.99-1.187-0.646-1.819-0.4-0.883 0.346-1.549-1.152-1.712-1.846-0.348-1.477-0.75-0.585-1.752-1.122-0.858-0.461-1.625-0.707-2.574-0.948-1.081-0.272-1.888-0.813-3.061-0.517-0.426 0.108-1.209-1.153-1.987-1.06-1.644 0.203-3.465 1.365-4.901 2.094-0.895 0.453-0.85 0.773-1.765 0.262-0.933-0.521-2.483-0.646-3.433-0.107-0.86 0.488-1.69 1.779-1.69 2.819 0 1.085 0.549 2.13-0.886 1.003-0.674-0.529-3.211 4.284-3.857 4.646-0.682 0.381-0.16-1.643-0.997-1.643-0.61 0-2.792 1.491-2.28-0.619 0.237-0.981 0.709-2.604 1.312-3.352 0.424-0.525 0.214-0.536 0.808-0.752-0.193 0.068 0.062-1.641 0.168-1.839 0.849-1.563 1.336-0.922 2.937-1.035 1.497-0.104 1.776-0.808 3.052-1.453 0.959-0.485 2.25-1.082 3.314-1.352 0.559-0.142 3.722-0.657 1.949-1.351-2.711-1.063-5.457-0.058-7.979 0.988-1.005 0.416-2.167 0.938-3.28 0.938-1.925 0-0.331-2.391-0.543-2.484-0.349-0.155-1.624 0.869-1.959 1.039-1.081 0.548-1.864 1.213-2.834 1.919-0.267 0.194-6.223 3.715-5.284 4.521 0.148 0.125 1.395-0.861 1.452-0.572 0.103 0.513-1.137 1.24-1.417 1.525-0.521 0.529-1.303 2.014-1.914 0.775 0.143 0.289-2.326 2.416-2.322 2.914 0.004 0.26 0.666 0.003 0.656 0.082-0.107 0.915-1.302 0.762-1.777 0.882-0.477 0.121-1.077 0.878-1.342 1.274-0.235 0.354 0.313 0.639 0.145 1.015-0.251 0.563-0.938 0.909-1.354 1.331-0.454 0.456-0.612 1.095-1.057 1.545-0.426 0.433-1.093 0.601-0.66 1.203 0.296 0.409-0.588 1.22-0.637 1.649 0.048-0.426 0.921-1.316 1.169-1.697 0.18-0.273 2.169-2.606 2.18-2.559 0.182 0.979-0.99 2.256-1.609 2.848-0.227 0.218-1.853 2.656-1.44 2.541 0.156-0.045 1.759-1.888 1.797-2.041 0.331-1.342 2.156-0.438 1.798 0.11-0.306 0.47-0.375 0.782-0.563 1.277-0.101 0.263-0.493-0.13-0.651-0.134-0.605-0.016-1.363 2.981-2.006 2.877-0.279-0.044-0.671-1.706-0.576-1.792-0.539 0.486-2.17 3.963-0.572 3.955 0.582-0.002 1.16-0.734 1.069 0.285-0.11 1.25-0.268 0.918-1.306 0.918-0.752 0-1.477 3.578-1.18 3.832 1.115 0.959 1.892-2.676 1.57-2.791 0.786 0.282-0.832 2.713 0.959 2.375 0.959-0.183 0.508 0.504 0.658 1.135 0.191 0.8 0.736 0.457-0.35 1.008 0.126-0.063 0.566 1.048 0.453 1.283-0.267 0.55-0.84-0.297-0.686 1.063 0.075 0.655 0.7 1.113 1.09 1.592 0.324 0.398 0.705 0.738 0.405 1.295-0.175 0.326-0.299 0.469-0.519 0.168-0.441-0.606-0.637-0.054-0.651 0.511-0.029 1.079 0.015 1.756-0.476 2.751-0.44 0.892-0.979 0.775 0.002 1.534 1.164 0.898 0.599 0.246 1.781-0.01 0.176-0.037 0.096 1.578 0.387 1.799 0.388 0.293 1.076 0.315 1.32 0.797 0.318 0.625-0.117 1.422 0.202 2.068 0.345 0.696 1.109 1.23 0.897 2.084-0.393 1.594 0.479 3.377 2.297 2.456 0.355-0.18 0.127-1.485 0.127-1.81 0-0.245 0.939-0.723 1.148-0.775-0.021 0.006 0.526 1.766-0.029 2.023-0.325 0.15-0.6 0.598-0.227 0.902 0.594 0.483 0.338 0.724 0.709 1.348 0.033 0.057 2.004-0.801 2.225-0.912 0.566-0.288-1.532-2.357-1.145-2.823 0.29-0.347 1.463 1.396 1.59 1.476 1.112 0.709 0.566-0.806 0.711-0.779 0.008 0.002 0.239 0.729 0.301 0.787 0.357 0.34 0.979 0.08 1.348-0.088 1.047-0.477 0.922-1.355 1.977-0.478 1.08 0.899-0.025 0.677 0.049 1.609 0.043 0.519 0.938 1.045 1.293 1.307 1.427 1.052 2.974 1.968 4.539 2.788 0.099 0.051 0.959 0.581 1.072 0.467 0.69-0.699 1.125 0.15 1.678 0.456 0.488 0.269 0.914-0.338 1.257-0.585-1.041 0.756-0.579-2.628-0.248-2.574 0.761 0.125 1.332 1.219 1.332-0.463 0 0.051 1.817-0.613 1.888-0.078 0.1 0.765 0.034 1.785-0.123 2.539-0.261 1.252-1.509 0.437-1.559 1.034-0.036 0.457-0.516 2.242-1.01 2.289-0.496 0.048-1.155 0.159-1.024-0.511 0.08-0.41-0.13-1.28-0.697-0.695-1.296 1.34 1.356 1.264 1.75 1.93 0.044 0.076-0.997 0.018-1.001 0.018-0.463-0.041-1.361-0.432-1.568 0.243-0.023 0.075 0.02 0.956 0.234 0.926 0.424-0.06 0.969-0.601 1.301-0.836 2.33-1.659 4.563-3.479 6.688-5.397 2.218-2.002 4.631-4.211 6.047-6.902 0.584-1.11 0.515-2.232 0.899-3.396 0.306-0.922 3.613 0.24 4.477-0.72 0.239-0.267-2.979-0.854-2.083-1.448 0.608-0.404-0.077-0.866 0.769-1.082 0.936-0.235 0.344-1.401 0.695-1.94-0.125 0.193 1.516 1.574 1.729 1.684-0.082-0.041 1.996-3.25 0.674-3.247-0.458 0.002-1.579 0.79-1.775 0.007-0.129-0.515-0.111-1.838 0.361-2.211 2.251-1.773-1.961-0.589-0.438-1.648 0.7-0.487 2.168 0.64 2.199-0.396 0.034-1.102 0.627 0.032 1.275-0.132 0.201-0.034 0.354-0.133 0.457-0.298 0.135-0.152 0.683 0.25 0.93 0.196 0.909-0.195 1.408-1.065 2.439-0.805 0.736 0.187 1.178 1.488 1.869 1.491 0.926 0.005 1.922-0.239 2.586 0.623 0.529 0.687 1.982 0.706 2.785 0.668 0.385-0.019 0.045-1.011 0.316-1.39 0.264-0.366 0.171-1.824 0.049-1.803 0.129-0.022 1.303-0.172 1.207-0.393-0.174-0.4-1.361-0.346-1.672-0.316-0.928 0.082-0.506 0.545-1.025 0.814-0.354 0.186-1.014-0.816-0.431-1.161 0.351-0.207 1.063-0.124 1.332-0.374-0.153 0.143-2.334-1.047-2.679-1.135 0.917-0.559 0.634-1.03 1.275-1.68 0.248-0.254 1.764 0.84 1.723 1.131-0.079 0.572-0.924 0.943 0.01 1.306 0.113 0.044 1.322 0.745 1.257 0.745 0.024 0 0.158-1.006 0.195-1.078 0.319-0.622 0.739-0.339 1.196-0.659 0.774-0.546-0.556-2.639-0.556-0.928 0 0.915-1.692 0.933-2.032 0.271-0.711-1.391 1.51 0.146 1.549 0 0.062-0.234-0.478-0.822-0.664-0.916-0.194-0.099 0.687-0.468 0.51-0.646-0.446-0.452-1.348 0.645-1.85 0.638-0.817-0.01-1.447-1.085-2.231-1.282-0.63-0.16-1.447 0.836-0.813 1.254 0.485 0.319-0.433 1.252-1.069 0.254-0.44-0.688-2.188-0.146-2.267-0.786-0.139-1.117 0.223-0.953-0.697-1.886-0.698-0.709-0.858 0.442-0.955 1.019-0.098 0.589 1.755-0.074 0.962 1.136-0.222 0.338-0.513 0.396-0.888 0.328-0.56-0.102-0.551 0.446-0.932 0.688-0.387 0.246-0.389 0.945-0.447 1.466-0.088 0.772 1.322 1.696 0.676 2.512-0.721 0.906-1.733 0.741-1.733-0.426 0-0.585 0.517-2.289-0.146-2.657-1.097-0.609-2.182 0.615-2.972 0.303-0.866-0.343-0.552-2.022-0.819-2.088-0.316-0.074-0.808 0.299-1.065 0.424-0.764 0.362-1.551 0.109-2.266-0.252-0.045 0.09 0.56 0.283 0 0zm-13.54 18.2c0.065 0.246-0.741 1.778-0.901 1.949-1.03 0.904 0.176 1.818-0.168 2.857 0.264-0.528-1.377-1.389-1.724-1.403-1.479-0.063-0.391-1.429-0.5-2.187-0.063-0.424 0.938-2.097 1.297-1.705 0.275 0.303 0.197 0.955 0.439 1.201 0.006 0.007 1.198-0.772 1.557-0.712 0.123 0.465-0.287-0.048 0 0z"/>
<path d="m21.01 58.68c0.082-0.042 1.353 0.969 1.359 1.174 0.019 0.596-1.455 1.523 0.051 1.555 0.66 0.016 1.324-0.041 1.063 0.858-0.285 0.978 0.111 1.705-0.119 2.654-0.291 1.2-0.589 1.194-1.847 1.106-1.112-0.078-1.285 0.315-1.702 1.262-0.432 0.979-1.736 0.67-1.311 1.983 0.324 1.003 1.41 1.247 1.375 2.421-0.021 0.713 0.897 1.791 1.666 1.639 0.896-0.176 1.5-0.262 1.724 0.986 0.063 0.357 0 0.832 0.165 1.166 0.261 0.528 0.734-0.08 1.086 0.172 0.309 0.219 0.167 0.875 0.73 0.684 0.287-0.098 0.799-0.667 0.866-0.059 0.026 0.237 0.075 2.014 0.819 1.416-0.17 0.137-0.096-2.207 0.236-2.049-0.364-0.175-2.01-0.121-1.881-0.803 0.205-1.085 1.168-0.34 1.459 0.25-0.451-0.996 2.657-0.537 1.274-1.939-0.867-0.877 0.586-0.623 1.06-0.877 0.211-0.111 0.215 0.935 0.215 0.998 0.007 0.577 0.652 0.201 1.059 0.146 1.332-0.187 1.318-0.464 0.109-1.203-0.604-0.37-1.17-2.234-1.297-2.138-0.676 0.518-0.608 0.258-1.146-0.285-0.332-0.338-0.399 0.447-0.583 0.465-0.244 0.021-1.18-4.482-0.023-3.905 0.883 0.44 0.953-1.147 1.738-1.223 0.52-0.05 0.792 0.509 1.184 0.725 0.488 0.269 0.914-0.338 1.257-0.586-1.041 0.757-0.579-2.628-0.247-2.573 0.344 0.057 0.816 1.131 1.289 0.375 0.076-0.275 0.091-0.556 0.042-0.84 0-0.34 0.69-0.029 0.829-0.064 1.479-0.375 1.02 0.484 1.02 1.811-0.027 0.484-0.113 0.959-0.255 1.422-0.083 0.336-0.808 0.021-1.021 0.131-0.543 0.273-0.021 0.483-0.482 1.096-0.249 0.328-0.542 1.359-0.895 1.393-1.715 0.163-0.389-0.529-1.047-1.195-0.563-0.57-1.195 0.519-1.012 1.019 0.355 0.971-0.186 0.19-0.482 1.162-0.228 0.741 0.59 1.336 1.09 1.661 0.461 0.3 0.621 1.438 1.056 1.523 0.421 0.083 0.574 0.805 0.815 1.139 0.783 1.082-0.237 1.123-0.955 1.123-1.541 0-0.611 2.852-2.354 1.469 0.383 0.303 0.083 0.886 0.081 1.267-0.004 0.608 0.845 1.272 1.38 1.272 1.023 0 2.07-2.271 3.141-1.368 0.035 0.028-1.316 0.832-0.493 1.263 0.141 0.073 1.282 0.176 1.274-0.117-0.006-0.186-0.479-0.438-0.406-0.599 0.055-0.12 1.002 0.106 1.082 0.101 0.424-0.043 0.795-0.41 1.008-0.758 0.668-1.091-1.564-0.6-2.034-0.719-0.374-0.096-2.476-0.141-1.937-0.68 0.258-0.26 0.442-0.375 0.642-0.705 0.262-0.438 0.885-0.111 1.04-0.426 0.123-0.248-0.512-0.383-0.575-0.402 0.388 0.122 0.917 0.23 1.213 0.531 0.286 0.291 1.379 0.037 1.884 0.271 0.266 0.125 1.272 0.939 1.553 0.885 0.367-0.074 0.898-1.024 0.289-1.168 0.026 0.008 0.145 0.412 0.494 0.424 0.342 0.013 0.682-0.069 1.01-0.153 0.264-0.065 0.353-0.298 0.549-0.454 0.449-0.355 1.351-0.23 1.887-0.288 0.546-0.058 2.449-0.812 2.518-0.185 0.17 1.565 0.563 0.119 1.041-0.365 0.984-0.998 0.334 1.134 1.254 0.695 1.537-0.729 0.59-1.055 0.674-2.277 0.058-0.828 1.728 0.336 0.822-1.359-0.469-0.881-1.545-0.556-2.273-0.953 0.427 0.232 1.076-1.221 0.646-1.744-0.615-0.75-0.396-0.746 0.024-1.601 0.408-0.827 1.288-1.305 1.913-1.938 0.635-0.644 0.51-2.515 0.51-3.36 0 0.157-1.387 0.813-1.55 0.849-0.647 0.137-1.536-0.33-1.774-0.963-0.312-0.822-0.219-1.348 0.646-1.566 0.744-0.188 0.488 1.311 0.818 1.445-0.021-0.009-0.037-0.979-0.043-1.057-0.039-0.672-0.367-0.984-0.647-1.553-0.351-0.711-1.058-0.598-1.629-0.979-0.757-0.505-0.794-1.572-0.794-2.382-1.055 0.535-3.262 1.367-3.842-0.082-0.553-1.385-0.561-3.021-1.104-4.355-0.539-1.32-1.83-2.117-3.179-2.117-0.672 0-0.965 0.553-1.289 1.045-0.407 0.615-1.208 0.607-1.584 1.18-0.385 0.583-0.531 1.36-0.902 1.979-0.518 0.863-0.175 0.914-0.043 1.731 0.063 0.39 0.311 1.494 0.111 1.835-0.754 1.29-2.209 1.081-1.317 2.743 1.14 2.121-1.726 0.821-0.851-0.062-0.391 0.394-3.594-1.853-4.172-2.068-1.032-0.394-6.092-0.14-5.043 2.042 0.046-0.024-0.317-0.658 0 0z" fill="url(#i)"/>
<path fill="#e5e5e6" d="m84.83 34.93c1.306 0.686 1.174 0.714 2.41-0.004 0.19 0.241-1.049 3.072 0.441 1.684 0.245-0.229 0.806-1.391 1.268-0.781 0.396 0.683 0.766-0.262 1.159-0.178 0.315 0.067-0.263 0.838-0.248 0.813-0.536 0.917 0.038 0.982 0.042 1.773-0.137 0-0.679-0.313-0.779-0.121 0.17 0.271 1.638 1.406 1.606 1.615-0.056 0.381-0.917-0.063-1.078 0.245 0.087 0.464 1.091 1.642 0.905 2.063-1.229-0.649-0.803 0.691-1.151 1.271-0.411-0.113-0.69-1.035-0.815-1.374-0.367-1.002-0.973-1.647-1.648-2.459-0.948-1.136-1.817-3.068-2.112-4.547 0.428 0.225 0.01 0.051 0 0z"/>
<path d="m58.35 25.3c1.088 0.458 1.777-0.936 2.679-1.163 0.237-0.06 0.302-1.86 0.335-2.161 0.051-0.494 1.33-1.791 1.825-1.801 0.567-0.011 2.185 0.232 2.655 0.502 1.021 0.581 2.033 1.113 3.094 1.65 0.303 0.152 2.285 0.064 2.029-0.524-0.334-0.771-1.354-0.989-1.901-1.544-0.087-0.088-1.151-1.037-1.151-1.088 0-0.313 0.961-0.404 1.141-0.439 0.732-0.142-0.143-0.354-0.079-0.688 0.06-0.321 2.76 0.856 2.419 1.185-0.332 0.316-1.182-0.132-1.438 0.385-0.186 0.379 0.832 0.844 1.021 1.035 0.551 0.559-0.207 0.916 0.766 1.162 0.484 0.123 0.971-1.238 1.473-1.352 0.771-0.174-0.008 1.162-0.031 1.283-0.073 0.391 1.266 0.473 0.982 1.619-0.148 0.603-0.705 1.541-0.219 2.127 0.434 0.522 2.342 0.367 2.414 0.494 0.43 0.771-0.877 1.346 0.242 2.119 1.719 1.187-0.518 0.938-0.391 2.092 0.086 0.789 1.597 1.922 1.344 2.66-0.178 0.516-0.867 0.279-0.545 0.944 0.298 0.618-0.117 0.565-0.444 0.993-0.716 0.934 2.002 0.13 1.857 0.839-0.241 1.181-0.687 1.272 0.788 1.065 0.309-0.043 0.671 0.24 0.937 0.166 0.171-0.049-0.089-1.435-0.034-1.664 0.334-1.379 1.252 0.854 1.717 0.488 0.748-0.588-1.871-4.621 0.209-3.371 0.566 0.342 1.729 0.239 1.229 1.321-0.636 1.377-0.368 1.358 0.974 1.358 1.426 0 0.494 1.427-0.05 1.804-0.397 0.276-0.069 0.543 0.138 0.806 0.496 0.629 0.509 1.114 0.453 1.924-0.108 1.586 1.178 1.149 2.313 1.527 0.104 0.034 1.247 1.492 1.381 1.102-0.361 1.051-0.209 1.533 0.896 1.771 0.604 0.129 1.549 0.278 1.504 1.052-0.036 0.654-0.318 1.059 0.354 1.479 0.654 0.409 1.835 3.61 2.655 3.071 0.661-0.436 1.28-0.397 1.429 0.479 0.096 0.563-0.505 0.436-0.488 0.869 0.028 0.726 0.604 1.625 0.771 2.356 0.208 0.918 0.252 2.021 0.252 2.963 0 1.799-0.456 3.769-1.248 5.373-0.669 1.355-1.883 2.927-2.164 4.386-0.14 0.728-0.208 1.745-1.18 1.745-0.255 0 0.009-0.815-0.188-0.852-0.517-0.091-0.459 1.904-0.576 2.145-0.354 0.717-1.858 1.117-2.552 1.293 0.837-0.213-0.624-2.631-0.427-2.924 0.27-0.398 0.866-0.739 1.336-0.813 0.811-0.124 0.614-1.257 0.883-1.295 0.484-0.068 0.131 0.878 0.781 0.471 0.68-0.427 0.77-1.053 1.333-1.514 0.649-0.531 0.908-1.129-0.091-1.447-1.018-0.324-0.997 0.264-1.801 0.475-0.637 0.168-1.269-1.336-1.604-1.002-0.231 0.231-1.174 1.481-1.586 1.177-0.362-0.271 0.183-0.972 0.205-1.259 0.039-0.496-0.649-0.653-0.692-1.164-0.106-1.295 1.684-0.954 1.734-1.039-0.218 0.357-1.029 0.428-1.146 0.798-0.084 0.271 1.472 0.692 1.672 0.384 0.304-0.47-0.619-2.311-1.219-2.134-0.638 0.188-2.087 1.696-2.492 0.573-0.43-1.188 1.393-1.797 2.027-0.873-0.439-0.641-2.089-1.812-1.558-2.775 0.196-0.355 1.151-0.574 1.436-0.23 0.142 0.17 0.345 1.787 0.319 1.81 1.434-1.269-1.393-2.892-0.797-4.121-0.057 0.117-0.748 0.638-0.75 0.646 0.521-1.924 2.099-3.557 2.431-5.504 0.116-0.678 0.608-1.978 1.036-0.533 0.051 0.171-0.171 2.326 0.098 2.216 0.621-0.257 0.955-4.113 0.268-4.242-1.035-0.192-0.035 0.997-0.469 1.06-0.748 0.106-1.168-0.779-1.58 0.345-0.313 0.853-0.328 1.351-0.11 2.235 0.185 0.744 0.31 1.351-0.621 1.079-0.231-0.066-1.075-0.757-1.086-0.296-0.005 0.192 0.376 1.437 0.272 1.484-0.342 0.156-0.948-0.578-1.225-0.69-1.104-0.448-0.842-0.171-1.932 0.105-0.391 0.099-1.561-3.017-2.082-2.62-0.45 0.342 0.16 1.401 0.16 1.787-0.002 0.766-0.413 1.553-1.139 1.736-0.637 0.162-0.756 1.859-0.648 2.312 0.234 0.985-0.521 1.528-0.413 2.481 0.088 0.782 0.93 1.17 0.897 2.01-0.037 1.027 0.266 1.084 1.312 1.084 0.649 0 1.771 0.014 1.754 0.962-0.015 0.782 1.142 0.507 1.334 1.307 0.183 0.759-0.209 1.203-0.537 1.868-0.356 0.721-0.182 2.027-0.385 2.852-0.279 1.131 1.298 3.864-0.765 4.388-0.998 0.253-0.024-1.067 0.063-1.423 0.329-1.336 0.146-1.069-0.856-1.491-0.518-0.218-0.896 0.847-1.33 0.562-0.45-0.296-0.688-1.599-1.385-1.521 0.088-0.011 1.596 4.132-0.828 1.676-0.674-0.685-0.375-0.83 0.489-1.233 0.222-0.104 0.306-0.707 0.017-0.692-0.408 0.021-0.698 0.616-1.144 0.505-0.538-0.137-0.577-1.549-0.587-1.93-0.036-1.41-0.02-2.906 1.547-2.899 2.821 0.013 0.762-1.864 0.063-2.849 0.271 0.381-1.478 2.361-1.84 1.106-0.146-0.512 0.086-2.706-0.996-2.573-0.698 0.086-1.75 1.174-1.76-0.276-0.005-0.677 0.168-1.421 0.004-2.084-0.069-0.279-1.179 0.271-1.133 0.053 0.245-1.139 2.662-1.198 2.662-2.38 0-0.396 0.355-1.625-0.142-1.732-0.978-0.215-1.435-0.5-1.899 0.439-0.244 0.497-0.878-0.502-1.021-0.646-0.541-0.547-0.713-0.443-1.496-0.354-0.856 0.097-1.502-1.05-0.416-1.326 0.501-0.127 1.031 0.846 0.964 0.875 0.67-0.285 0.394-1.706-0.007-2.074-1.467-1.348-1.122 1.098-1.327 1.027-0.571-0.197-0.157-1.568-0.675-1.923-0.409-0.28-0.373-2.134-0.049-2.265 0.81-0.328 1.205-0.4 0.359-1.406-0.375-0.445-1.095-0.783-0.924-1.475 0.068-0.275 0.502 0.07 0.65-0.052 0.336-0.276-1.416-2.524-1.416-3.05 0-0.305 0.843 0.05 1.02-0.13 0.821-0.832 0.324 0.196 1.029 0.485-0.069-0.027 0.654-2.892 1.186-2.219 0.471 0.596 0.42-0.047 1.012-0.174 0.664-0.143 0.595 0.195 1.082 0.486 1.229 0.738 1.271-1.661 0.235-1.117-0.33 0.174-0.858 0.605-1.256 0.601-0.519-0.007 0.155-1.014 0.112-1.196-0.025-0.11-1.4 0.398-1.498 0.422-1.088 0.254-1.555-0.141-2.539-0.391-0.539-0.138-4.387-2.256-4.672-1.932-0.36 0.411 1.387 1.084 0.158 1.348-0.818 0.176-1.697-0.275-0.588-0.839-0.187 0.095-1.244-1.052-1.453-1.175 0.487 0.287-1.197 1.117-1.293 1.212-0.279 0.272-0.139 0.624-0.598 0.324-0.311-0.202-0.666-0.571-0.965-0.166-0.543 0.733-1.542-1.106-1.266-1.271 0.66-0.394 2.078 1.349 1.752-0.375-0.101-0.531 0.072-1.019 0.02-1.557-0.105-1.064 0.512-1.098 0.743-2.034 0.168-0.684-0.198-0.878 0.149-1.511 0.473-0.861 0.254-1.422-0.703-1.257-1.35 0.228-1.431-1.146-0.984-2.278 0.578 0.244-0.215 0.544 0 0z" fill="url(#e)"/>
<path fill="#504f55" d="m95.85 35.39c-0.166-0.335-0.104-0.117-0.044 0.065 0.195 0.589 0.413 1.168 0.615 1.752 0.371 1.066 0.854 2.597-0.699 1.414 0.26 0.197 0.691 1.86 0.549 2.146-0.426 0.859-1.229 2.174-2.236 2.135-1.859-0.072-1.379-1.568-2.649-2.213-0.612-0.312-1.692-2.835-1.933-2.871 0.188 0.028 1.199 0.793 0.998 0.102-0.146-0.501-0.467-0.93-0.808-1.303-0.392-0.426 0.715-1.002 0.481-1.24-0.543-0.553-1.674-0.774-1.024-1.881 0.846-1.443 2.247-3.305 4.024-1.924 1.515 1.176 2.074 2.992 3.234 4.463"/>
<path fill="url(#d)" d="m71.62 10.83c-1.007 0.254 0.215 1.658-0.082 1.951-0.242 0.237-1.525-0.582-1.875-0.594-0.393-0.012-0.82 0.124-1.215 0.159-0.449 0.041 0.102 0.578 0.045 0.817-0.141 0.584-1.438-0.455-1.568-0.584-0.187-0.183-0.7 1.166-1.428 1.352-0.209 0.053-0.683 0.077-0.813 0.318-0.139 0.263 0.088 1.254-0.232 1.341-0.511 0.138-2.574-0.716-3.107-0.938-0.986-0.412-1.889-1.133-2.863-1.625-0.48-0.244-0.893-0.518-1.275-0.904-0.896-0.909-0.154-0.616-0.012-1.496 0.02-0.123-2.744 1.18-3.052 0.478-0.146-0.333 0.088-1.151-0.122-1.332-0.695-0.597-1.729-0.413-2.555-0.622-2.067-0.525-3.075-0.695-5.062 0.311-0.835 0.424-1.396 0.813-2.336 0.336-0.306-0.155-1.815 0.096-1.919 0.434 0.271-0.884 1.393-0.796 1.973-1.188-0.138 0.093-1.645-0.163-2.047-0.012-0.094 0.033-2.059 0.487-1.861 0.188 0.158-0.239 0.668-0.251 0.895-0.43 0.354-0.278-1.324-0.287-1.053-0.887 0.349-0.768 0.595-0.705-0.495-0.699-0.661 0.004-1.367 0.127-1.869-0.381 0.095 0.096 2.078-0.27 2.336-0.334 0.248-0.063 1.267-0.615 1.419-0.172 0.125 0.363 0.531 0.756 0.904 0.377 0.814-0.828 1.498-0.904 2.688-0.828 0.717 0.047 2.473-1.551 2.388-0.521-0.033 0.396 0.696 1.785 1.112 1.716 0.402-0.066 0.682-0.742 1.143-0.625 0.695 0.176 1.094 0.127 1.818 0.033 0.769-0.1 2.052-1.07 2.355 0.072 0.378 1.419 1.857 1.049 2.95 1.729 0.188 0.118 2.083 1.687 1.896 0.99-0.258-0.949-0.937-1.19 0.418-1.533 0.776-0.196 1.787 0.972 2.422 1.293 0.508 0.257 0.879-0.503 1.148-0.774 0.28-0.283 1.132 0.093 1.426 0.187 0.338 0.106 0.73 0.274 1.09 0.259 0.475-0.021-0.142-0.734 0.443-0.615 1.072 0.221 1.094 0.996 2.309 0.965 0.871-0.023 1.823 1.253 2.559 1.004 0.852-0.292 1.104-0.478 1.104 0.784-0.615 0.154 0-0.182 0 0z"/>
<path fill="#4f4f4f" d="m5.04 51.48c-1.439 0.533-1.26 3.871 0.146 4.313 1.546 0.486 1.702-4.051-0.146-4.313-0.738 0.274 0.86 0.122 0 0z"/>
<ellipse rx="1.46" ry=".7631" cy="11.61" cx="47.45" fill="#4d4d53"/>
<path fill="#5d5c63" d="m51.72 49.35c0.313-0.455 0.97-3.075 1.658-1.681 0.424 0.859 1.683 0.633 1.146 0.078-0.436-0.449-1.963-1.438-0.328-1.793 0.665-0.145 1.393 1.894 1.348 1.927 0.481-0.365-0.047-1.202 0.063-1.614 0.162-0.605 1.391-0.354 1.504 0.178 0.149 0.702-0.267 1.355-0.529 1.963-0.176 0.4 0.933 2.047 0.371 2.161-1.4 0.284-2.092 0.014-3 1.385-0.742 1.117-1.315 0.055-2.104-0.146-1.174-0.297-0.481-1.861-0.129-2.458 0.305-0.444-0.33 0.558 0 0z"/>
<path fill="#5f5e64" d="m79.14 22.2c0.381 0.388 1.547-0.144 1.592 0.752 0.028 0.555-1.249 1.13-1.622 0.717-0.249-0.275-0.423-1.225-1.037-0.839-0.683 0.428 1.502 1.051-0.591 1.051 0.056 0 0.659 0.798 0.765 0.905-0.146-0.15-1.479 0.062-1.891-0.197-0.988-0.624 0.044-1.645-0.915-2.13 0.177 0.09-0.472 0.931-0.729-0.101-0.115-0.461-0.204-1.181-0.965-0.486-0.563 0.515-0.283-0.53 0.108-0.85 0.494-0.402 1.029-0.451 1.642-0.578 0.791-0.166-0.478-0.99-0.565-1.347-0.138-0.562 1.573 0.302 1.657 0.388 0.158 0.158 0.582-0.66 1.021-0.432 0.577 0.301 0.413 0.523 0.235 1.014-0.164 0.451 0.354 0.377 0.372 0.697 0.014 0.248-0.724 0.131-0.669 0.352 0.109 0.43 1.214 0.931 1.592 1.084 0.238 0.24-0.116-0.047 0 0z"/>
<path fill="#5f5e64" d="m97.51 43.66c0.258-0.262-0.116 1.257-0.214 1.438-0.614 1.135 0.47 1.74 0.13 2.907-0.292 1.004-0.843 1.985-1.025 3.025-0.073 0.42-0.12 0.703 0.319 0.801 0.703 0.156 0.365 0.753 0.761 0.957 1.013 0.527-0.101-2.695-0.101-2.664 0-0.177-0.059-2.005 0.062-2.007 0.124-0.002 0.527 0.297 0.621 0.147 0.153-0.246-0.276-0.562-0.245-0.805 0.01-0.076 0.82 0.802 0.782 0.817 0.008-0.004-0.14-1.943 0.055-2.281 0.526-0.91-0.643-1.698-1.145-2.335 0.401-0.408 0.057 0.072 0 0z"/>
<path fill="#69686f" d="m86.42 65.77c0 0.508-1.72 1.924-0.127 2.327 0.864 0.219 0.713 0.683 0.252 1.324-0.072 0.102-1.653 1.854-1.66 1.342-0.004-0.408 0.596-0.894 0.77-1.244 0.371-0.752-0.422-1.391-0.572-2.073-0.121-0.553-0.041-1.582 0.527-1.889 0.264-0.143 0.68-0.007 0.427-0.434 0.108 0.184 0.383 0.379 0.383 0.647z"/>
<path fill="#5f5e64" d="m84.5 17.42c-0.306-0.517-1.262-0.46-1.594-1.002-0.66-1.08-1.435-1.378-2.234-2.267-0.389-0.434-1.695-1.281-1.344-0.023 0.148 0.529 2.062 0.861 1.877 1.38-0.392 1.095-0.369 1.167 0.217 2.258 0.639 1.188 1.791 0.89 0.75-0.079-0.625-0.58-1.157-1.635 0.16-1.301 1.027 0.259 0.883 1.294 2.168 1.034-0.049-0.084-0.514 0.103 0 0z"/>
<path fill="#5f5e64" d="m85.9 17.23c-0.502-0.737-1.584-1.963-1.147-0.192 0.052 0.213 0.934 0.149 1.147 0.192z"/>
<path fill="#56555b" d="m21.37 83.22c-0.143-0.582-2.444-0.989-2.04 0.646 0.207 0.841 2.711 1.05 2.04-0.646-0.137-0.558 0.236 0.595 0 0z"/>
<g fill="#6b6a71">
<path d="m21.49 80.5c2.297 0-1.584-4.519 1.075-3.274 1.034 0.483 1.881-0.527 1.474 0.984-0.308 1.138 1.658-0.188 1.91 0.107 0.262 0.305-0.932 1.106-0.521 1.746 0.28 0.437 0.35 2.161-0.562 1.396-0.601-0.505-0.684-1.275-1.375-1.73-0.958-0.631-1.014 0.371-2.001 0.771 0.736 0 0.301-0.122 0 0z"/>
<path d="m27.74 79.47c-0.297 0.602 1.963 1.859 1.516 0.283-0.663-2.348-0.502-0.078-1.516-0.283-0.337 0.681 0.426 0.086 0 0z"/>
<path d="m31.83 78.95c-0.091-0.366 1.631 1.31 1.674 1.17 0.219-0.738-1.25-1.17-1.674-1.17-0.156-0.627 0.658 0 0 0z"/>
<path d="m33.1 81.67c-1.296-0.656-1.227 1.347 0.292 0.729 0.705-0.285 0.953 0.42 1.494 0.694 0.323 0.163 1.715-0.422 1.599-0.53-0.726-0.673-2.474-0.893-3.385-0.893-0.795-0.403 0.255 0 0 0z"/>
<path d="m23.41 84.9c-0.815 0-0.765-0.103-0.765 0.903 0 0.176 0.169 0.992 0.566 0.644 0.395-0.346 0.199-1.103 0.199-1.547-0.731 0 0 0.18 0 0z"/>
<path d="m16.01 76.88c0.053-0.218-1.021 0.075-1.021 0.517 0 0.268 1.218 0.918 1.29 0.758 0.145-0.327-0.206-0.954-0.269-1.275 0.091-0.374 0.084 0.424 0 0z"/>
<path d="m16.01 80.24c0.156 0.078-1.069-1.938-1.307-1.791-0.246 0.152-0.285 0.769-0.224 1.016 0.252 1.021-0.394 0.299-0.5 0.835-0.065 0.327 2.16-0.051 2.149-0.063 0.217 0.274-0.363 1.301 0.137 1.427 0.763 0.191 0.5-0.986-0.255-1.424 0.496 0.252 0.755 0.438 0 0z"/>
<path d="m17.41 70.68c0.096 0.023-0.548 0.492-0.51 0.646 0.098 0.395 0.977 0.494 1.275 0.646 0.643 0.325 0.014 1.933 0.824 2.283 0.386 0.168 0.011-1.345-0.08-1.491-0.476-0.785-0.774-1.489-1.509-2.084 0.264 0.066 0.81 0.657 0 0z"/>
<path d="m6.952 63.18c-0.023-0.049 0.24 1.623 0.865 1.298 0.145-0.074-1.391-2.68-1.559-2.883-0.118-0.145-1.149-1.581-1.094-0.404 0.046 0.909 1.181 1.495 1.788 1.989-0.212-0.43-0.58-0.471 0 0z"/>
<path d="m14.22 61.63c-0.027-0.028-0.229 1.455-0.188 1.676 0.08 0.408-0.82 1.188-0.015 1.415 0.492 0.139 0.552-1.215 0.892-1.473 0.646-0.489-0.336-1.023-0.689-1.618 0.285 0.289 0.261 0.44 0 0z"/>
</g>
<path fill="#56555b" d="m2.935 49.87c-0.543 0.496-0.468 2.346 0.341 1.588 0.453-0.424 0.24-1.354-0.341-1.588-0.876 0.799 0.422 0.17 0 0z"/>
<path fill="#a8a7aa" d="m60.4 18.84c-0.294 0.512-0.027 1.364-0.766 1.551-0.42 0.106-1.435-0.438-1.725-0.758-1.332-1.468-1.363 2.455-1.208 3.085 0.319 1.294 2.659 2.366 1.861 4.159-0.951 2.136-1.138 0.896-2.634 0.157-0.586-0.287-1.59-1.11-2.254-0.982-0.902 0.174-0.828 1.371-0.18 1.768 0.438 0.269 1.021 1.57-0.001 1.453-0.752-0.086-1.261-1.076-1.409-1.703-0.22-0.933-0.678-0.65-1.25-1.231-0.498-0.504-0.024-1.741 0.625-1.867 0.777-0.151 1.537 0.188 2.309 0.188 0.56 0 0.646-1.148 1.285-1.256-0.686 0.114-3.109 1.231-2.729-0.109 0.121-0.426 0.562-0.934 0.33-1.381-0.487-0.942-1.407 0-2.089-0.586-0.671-0.578-2.713-1.819-1.333-2.52 1.364-0.689 3.065 0.199 2.647-1.967-0.078-0.4 1.058-0.141 1.199-0.063 0.953 0.526 1.043 0.449 2.047 0.189 0.596-0.154 1.502 0.1 1.702-0.713 0.192-0.78 0.605-0.049 0.757 0.296 0.176 0.401 0.631 2.901 1.336 1.433 0.172-0.359 0.207-1.045 0.719-0.597 0.502 0.438 0.634 0.811 0.761 1.454-0.297 0.517-0.043-0.216 0 0zm-7.585 6.721c0 0.863-1.667 0.863-1.667 0 0-0.862 1.667-0.862 1.667 0zm3.503-3.069c0 0.933-1.148 0.933-1.148 0 0-0.934 1.148-0.934 1.148 0z"/>
<path fill="#ececed" d="m63.03 65.35c-0.181 0.269-1.318 1.079-0.98 1.53 0.998 1.066 1.078-1.635 0.98-1.53-0.115 0.172 0.076-0.081 0 0z"/>
<path fill="url(#g)" d="m68.43 74.98c1.261-0.641 2.438 0.43 0.909 0.987-0.535 0.196-1.105 0.257-1.637 0.47-0.43 0.172-1.246 0.881-1.703 0.829 0.294 0.034 1.997-2.065 2.431-2.286z"/>
<g fill="#ececed">
<path d="m74.84 52.96c0.541-0.271 0.406 0.969 0.344 1.156-0.215 0.641-0.957 0.994-1.514 1.264-1.518 0.734-2.023 2.849-0.734 4.083 0.648 0.62 1.505 0.342 2.267 0.534 0.734 0.184 0.953 1.125 1.376 1.646 1.162 0.071 1.706-2.666 2.864-0.52 1.282 2.375-1.963 1.438-2.312 2.43 0.039 0.977-0.617 1.859-0.595 2.854 0.435 0.496 0.278 0.48 0.317 1.137 0.186 0.408 1.01 1.498 0.209 1.755-0.707 0.399-0.896 1.321-1.398 1.911-0.535 0.628-3.734 3.6-4.594 2.586 0.893-1.268 4.889-3.092 4.66-4.77-0.125-0.916-1.418-0.876-1.821-1.611-0.639-1.166 0.659-1.85 0.568-2.938 0.032-0.392-0.443-1.937-0.72-0.848-0.162 1.548-1.041-0.269-1.125-0.792-0.209-1.295-0.402-2.01-1.844-1.78-1.48 0.235-2.039 0.524-2.773 1.874-1.042 1.911-1.109-1.912-1.061-2.52 0.188-2.33 2.92 1.365 3.137-0.799 0.345-0.949-0.26-1.869-1.246-1.957-1.065-0.293 0.061-1.592 0.343-2.062 0.778-0.661 0.687-1.985 1.976-1.854 0.623 0.063 1.219 0.327 1.854 0.291 0.685-0.209 1.137-0.867 1.822-1.07 0.519-0.26-0.571 0.17 0 0z"/>
<path d="m65.3 48.57c-0.754-0.99-2.043-1.058-3.117-1.285-0.275 0.418 0.145 2.088 0.125 2.61-0.043 1.253-0.529 1.578 0.593 2.462 1.009 0.797 1.228-0.313 2.062-0.969 0.827-0.648 0.827-1.886 0.337-2.818-0.325-0.426 0.074 0.142 0 0z"/>
<path d="m62.39 57.34c0.954 0.183-1.407 2.242-1.495 2.635-0.195 0.874 0.061 1.448-0.833 1.86-0.524 0.24-0.95 0.303-0.713-0.368 0.233-0.659 0.558-1.292 0.733-1.972 0.258-0.997-0.426-1.894-0.197-2.891 0.552-2.426 1.75-0.525 2.505 0.736 0.297 0.055-0.357-0.597 0 0z"/>
<path d="m59.14 66.3c0.293-0.336-1.509 0.328-1.638 0.361-0.912 0.238-1.7-0.498-1.805-1.383 0.069-0.252 1.154 0.648 1.229 0.697 0.688 0.447 1.431 0.325 2.214 0.325 0.088-0.102-0.338 0 0 0z"/>
</g>
<path fill="url(#h)" d="m43.09 83.12c-1.691-2.144-3.649-4.381-5.063-6.711-0.721-1.188-1.382-2.459-1.99-3.709-0.464-0.955-0.914-2.364-1.861-2.955 0.052 0.522-0.332 0.854-0.43 1.328-0.119 0.563 0.853 0.674 1.159 0.926 1.086 0.89 0.642 2.709 1.888 3.479 0.775 1.646 1.768 3.461 3.024 4.782 0.497 0.522 2.565 1.937 2.358 2.796-0.416-1.053-1.328-1.813-2.334-2.256-0.209-0.094-3.051-0.834-2.452 0.033 0.782 1.139 3.671-0.068 4.026 1.563 0.062 0.279-3.539-0.569-3.824-0.323 0.246 0.457 2.172 0.619 2.166 0.998-0.004 0.221-2.035-0.558-2.34-0.383-0.994 0.569 2.523 1.086 2.808 1.383-0.319 0.498-2.401 1.004-1.82 1.611 0.175 0.184 1.495 0.243 1.431 0.377-0.109 0.229-1.451 1.313-0.395 1.075 0.525-0.118 1.104-0.328 1.581-0.584-0.756 0.905 0.179 0.787 0.812 0.719-0.752 1.649-1.867 3.245-2.938 4.695-0.255 0.346-2.586 3.522-2.563 3.534 0.293 0.152 2.68-2.229 2.823-2.387 1.573-1.726 2.354-4.009 3.856-5.767 0.507 0.729 0.408 1.619 0.299 2.446-0.07 0.441-0.107 0.887-0.114 1.335 0.013 0.815 0.416 0.715 0.562 1.392 0.127 0.594-0.922 4.08 0.981 2.436 0.815-0.705 0.37-2.237 0.272-3.145-0.034-0.316-0.202-1.52 0.462-1.402 0.674 0.117 0.166 1.482 0.726 1.508 0.369 0.017 0.123-1.191 0.266-1.398-0.215 0.313 1.346 2.438 1.486 2.162 0.582-1.13-1.746-3.027-0.337-3.834 0.667 0.381 1.614 1.021 1.233 1.939-0.236 0.569-0.955 0.806-0.45 1.457 0.952 1.228 2.603-0.123 3.138-1.103 1.154 1.03 3.233 0.073 3.99-1.039-0.131 0.019-1.318-0.208-1.227-0.419 0.154-0.352 1.908 0.678 2.01 0.177 0.074-0.364-0.942-0.934 0.318-0.786 0.682 0.078 1.414 0.448 2.105 0.354-0.027-0.738-1.066-0.707-1.46-1.142-0.341-0.377 0.205-1.564-0.707-0.941-0.237 0.161-1.034 0.988-1.101 0.275-0.148-1.567-1.185-0.127-0.76 0.656-0.679-0.373-0.701 0.414-1.021 0.739-0.163 0.166 0.024-0.931 0.024-0.931 0.278-0.62 0.9-1.764 0.318-2.396-0.613 0.717-1.902 0.674-2.68 0.299 0.896-0.015 1.785-0.158 2.684-0.17 1.051-0.013 2.059 0.584 3.044 0.031 0.914-0.514 2.339-1.529 1.563-2.604-0.691-0.955-1.137 1.41-2.4 1.158-0.869-0.174-1.018-0.453-1.845-0.162-0.083 0.028-1.521 0.416-1.382 0.07 1.016-0.348 2.123-0.292 3.131-0.67 0.406-0.152 1.507-1.729 0.896-1.65 0.562-0.737 0.963 0.203 1.576 0.104 0.446-0.073 0.618-0.57 1.176-0.719 0.883-0.236 1.783-0.401 2.668-0.633 0.979-0.256 5.283-1.656 5.256-2.994-0.844 0.068-1.572 0.611-2.264 1.057-1.004 0.646-2.037 0.714-3.054 1.218-1.231 0.61-2.541 1.13-3.92 1.246-0.09 0.007-2.183 0.111-2.149-0.077 0.068-0.4 3.479-0.459 3.997-0.775 0.483-0.295 0.985-1.068 0.052-0.963-0.556 0.063-1.067 0.375-1.586 0.564-0.357 0.131-0.941 0.307-1.072-0.222 0.978-0.871 2.02-1.662 3.041-2.478 0.793-0.635 3.674-1.914 1.969-3.08 0.591-0.862 2.066-0.898 2.936-1.328 1.014-0.502 1.047-2.312-0.369-2.092-1.058 0.164-1.185 1.821-2.153 2.202-0.578 0.228-2.634-0.122-2.216-1.102-0.75-0.263-2.476 1.141-1.494 1.612 0.254 0.096 0.517 0.123 0.787 0.08-0.006 0.422 0.175 0.867 0.394 1.219 0.379 0.606 1.028 0.895 1.093 0.043 0.035-0.453 0.574-0.405 0.739-0.067 0.267 0.544-0.862 1.168-1.17 1.411-0.792 0.627-3.919 0.704-2.339-0.708-0.53-0.286-1.098-0.127-1.651-0.272-0.976-0.256-0.069-1.192-1.306-1.203-2.094-0.016 0.729-2.217 1.238-3.222 0.158-0.31 2.535-3.587 1.572-3.288-1.591 0.495-0.853 3.756-2.762 3.939 0.053-1.159-0.527 0.08-0.844 0.041-0.172-0.021 0.529-1.352 0.183-1.502 0.29 0.126-1.728 3.057-1.573 3.49 0.19 0.539 0.701 0.367 0.275 1.109-0.204 0.354-0.766 0.905-0.986 0.237-0.166-0.507-0.086-1.156-0.343-1.628-0.298-0.549-0.84 1.085-1.228 1.068-1.581-0.069 0.389-3.809 0.275-4.447-0.554 0.523-0.898 0.348-1.187-0.275-0.136-0.293-0.972-1.313-0.905-0.335 0.049 0.701 0.79 1.087 1.16 1.601 0.22 0.307 0.243 1.969-0.238 1.961-0.279-0.006-0.41-0.886-0.718-1.016-0.412-0.174-1.253 0.885-1.403 1.221-0.33 0.742-0.604 1.559-1.591 1.291-0.442-1.982-1.182 0.467-1.606 0.316-0.328-0.117-0.545-0.4-0.83-0.587-0.553-0.36-0.815 0.265-1.363 0.021-1.127-0.502-0.836 0.744-2.039 0.373-0.91-0.281-1.473 0.721-0.717 1.379 0.168 0.146 2.053 1.562 1.691 1.707-0.156 0.022-0.279 0.101-0.371 0.233 0.867 0.531 2.299 1.672 1.457 2.825-0.867-0.959-1.935-1.734-2.668-2.817-0.941-1.393-1.545-2.892-2.211-4.433-0.541-1.246-1.686-1.742-1.72-3.209-0.015-0.598 0.244-3.451-1.082-2.969-1.597 0.58 2.038 5.746 2.411 6.832 0.486 1.412 1.342 2.642 2.07 3.929 0.945 1.187 2.291 2.069 2.925 3.496-1.198-0.759-1.879-2.058-2.847-3.058-0.164-0.17-1.57-2.025-1.641-1.893-0.33 0.631 2.118 2.923 2.521 3.406 0.536 0.64 2.275 2.422 2.208 3.295-0.844-1.068 0.067-0.881 0 0z"/>
<path fill-opacity=".4464" fill="#e3e3e3" d="m71.54 18.18c0.152 1.142-0.293 2.369-0.231 3.55 0.081 1.551-0.575 2.186-1.015 3.567-0.463 1.459-0.959 2.958-1.35 4.438-0.125 0.473-0.557 4.393-0.484 4.357 0.696-0.328 1.203-3.548 1.367-4.217 0.418-1.696 1.473-3.239 1.789-4.971 0.393-2.142 0.524-4.363 0.784-6.522 0.151-1.257 0.308-2.519 0.513-3.767 0.09-0.559 0.446-1.268 0.438-1.843 0.008 0.513-0.955 2.321-1.164 3.021-0.272 0.845-0.858 1.404-0.647 2.387 0.139 1.041-0.246-1.143 0 0z"/>
<path fill="#fbfbfc" d="m6.569 65.9c0.124 0.622 0.488 1.248 0.766 1.811 0.596 1.205 0.742-0.477 1.188-0.51 0.537-0.041 1.039 0.828 1.364 1.155 0.67 0.681 1.493-0.721 2.219-0.413-0.853-0.361-0.442 1.975-0.39 2.258 0.211 1.099 0.357 1.518-0.938 1.518-1.084 0-1.169-1.201-2.229-0.45-0.369 0.263-0.678 1.024-0.976 1.175-0.131 0.066-0.048-1.16 0.781-1.371 1.442-0.365-0.997-0.867-0.265-1.562 0.729-0.693-0.816-0.796-1.202-1.415-0.503-0.81-0.158-1.39-0.318-2.196 0.067 0.328 0.227 1.152 0 0zm2.424-6.334c0.264 1.08 2.256 2.043 1.828 3.469-0.05 0.166-0.629-0.572-0.68-0.625-0.305-0.308-1.857-0.334-1.814-0.189-0.072-0.244 0.254-0.684 0.412-0.844 0.441-0.448 0.254-1.257 0.254-1.811-0.007-0.03 0 0.671 0 0zm60.36-55.63c9.774 4.094 18.19 11.35 23.6 20.57-1.521 0.145-3.201-1.3-3.798-2.646-0.204-0.463-1.331-3.627-2.12-1.957-0.432 0.916 1.834 3.151 0.629 3.574-0.867 0.303-1.927-3.973-2.381-4.592-0.848-1.827-1.783-3.125-3.597-4.064-1.048-0.541-3.571-2.223-2.64 0.119 0.266 0.666 0.139 2.133-0.351 0.895-0.413-1.046-0.932-0.376-0.823 0.472-0.099-0.772 0.131-2.001 0.629-2.606 0.338-0.409 0.933-0.246 0.621-0.892-0.223-0.461-0.752-0.503-1.195-0.526-1.127-0.061-1.204-0.559-2.09-1.051-0.461-0.256-1-0.293-1.513-0.258-1.001 0.072-0.55 0.313-1.11 0.71-0.424 0.302-1.123-0.907-1.266-1.155-0.595-1.036-2.12-1.755-3.196-2.3-0.172 0.157-1.76 0.783-1.799 0.344-0.035-0.379 1.66-1.176 1.448-1.449-0.571-0.738-3.698 0.385-4.289 0.779 0.858-1.64 1.892-1.694 3.522-1.649 1.882 0.051 1.436-0.935 1.72-2.32 10.51 4.401-0.051 0.254 0 0zm-43.51 2.269c11.25-6.172 24.5-7.879 36.88-4.51-1.269 0.25-2.781 1.517-4.114 0.965-0.779-0.321-3.246-0.924-2.273 0.916-1.004 0.553-3.9-1.357-2.703 1.084 0.25 0.509-1.297 0.265-1.539 0.035-0.549-0.52-0.818-1.478-1.758-1.133-0.822-0.06-1.053-0.764-0.451-1.322 0.266-0.246 1.891-0.393 1.645-0.836-0.301-0.541-4.013-1.162-2.74 0.377-0.268 0.301-0.822 0.285-1.18 0.373-0.764 0.186 0.133 0.597 0.172 1.011 0.07 0.747-1.895 0.368-1.581-0.595-0.757 0.144-1.614-0.15-0.837-0.972-3.104-0.202-5.931 1.065-8.881 1.718-1.45 0.319 0.463 2.907-1.6 3.471-1.11 0.304-2.325 0.156-3.471 0.426-1.4 0.328-2.043 1.088-3.197 1.775-0.504 0.299-1.621 0.817-2.146 0.299-0.48-0.474-0.081-2.38-0.224-3.082 9.385-5.149 0.115 0.559 0 0zm73.37 35.16c-0.729-4.364-2.09-8.643-3.975-12.64-0.432-0.916-1.34-3.789-2.547-3.777-0.559 0.005-1.239 0.383-1.089 1.062 0.215 0.972 0.784 0.923-0.089 1.591-0.758 0.58 2.671 1.914 2.505 2.856-0.097 0.541-0.906 0.323-0.91 1.055-0.004 0.854 1.005 1.007 1.626 1.164 0.874 0.222 1.061 0.769 1.072 1.627 0.014 1.013 0.498 1.927 0.582 2.952 0.18 2.23 0.849 3.234 2.825 4.105-1.024-6.133-0.605-0.267 0 0zm-4.851 30.49c0.081-0.074 0.164-0.092 0.25-0.052 0.134 0.438-1.61 2.052-1.873 2.409-0.933 1.275-1.575 2.92-3.067 3.675-1.008 0.513 0.74-2.026 0.902-2.192 1.373-1.391 1.911-3.078 3.788-3.84 1.045-0.527-0.963 0.392 0 0zm-8.116 5.303c-0.162 0.326-1.31 1.789-2.185 2.059-0.649 0.2-0.188-1.54-0.056-1.768 0.248-0.418 2.143-2.625 2.609-2.118 0.308 0.332-0.235 1.491-0.368 1.827 0.323-0.656 0.225-0.568 0 0zm3.607-3.291c0.466-0.236-0.182 0.783-0.219 0.847-0.317 0.539-0.625 1.72-1.153 2.04-0.604 0.365-1.263-0.049-1.67 0.6-0.527 0.836-1.267 1.189-1.81 1.932-0.27 0.369-0.242 1.576 0.457 1.385 0.565-0.156 1.176-0.893 1.483-1.378 1.205-1.902 2.912-2.983 2.912-5.426 0.7-0.354 0 0.244 0 0zm-65.98 18.85c14.05 8.636 31.88 9.596 46.87 2.844-1.699-0.521-3.986-1.226-5.396 0.25-1.713 1.796-2.771 0.33-4.875 0.112-0.51-0.054-1.037-0.138-1.477-0.427-0.453 0.168-0.861 0.531-1.348 0.605-0.697 0.105-0.438-0.539-1.299-0.355-0.575 0.121-1.121 0.354-1.702 0.449-1.028 0.165-2.019-1.018-2.963-0.543-0.663 0.332-0.257 1.17 0.233 1.426-1.146 0.26-2.381-0.153-3.302-0.852-1.215-0.92-0.144-1.572-0.878-2.564-0.771-1.043-1.336 1.074-1.801 1.473-0.305 0.26-0.645 0.464-0.967 0.699-0.455-0.602-1.084-0.897-1.803-0.596-1.416 0.596-1.639 1.569-3.336 1.024-0.524-0.168-1.05-0.374-1.605-0.412-0.731-0.05-1.373 0.491-2.102 0.296-0.447-0.119-0.761-0.49-0.81-0.959-0.09-0.848-0.29-0.509-1.084-0.811-0.892-0.34-1.616-1.075-0.489-1.727-0.917-0.226-1.874-0.178-2.792-0.394-0.802-0.188-1.256-0.753-1.964-1.072-0.417-0.188-1.037-0.401-1.499-0.276-0.659 0.179 0.869 0.883 0.961 0.945 1.427 0.971 0.709 2.043-0.788 1.85-1.236-0.157-2.552-2.259-3.781-0.985 13.97 8.584 1.362-1.411 0 0zm59.61-39.88c-1.13-0.286-1.462-1.246-1.169-2.309 0.357-1.299-0.495-0.344-1.254-0.536-0.738-0.188-0.822-0.161-0.831 0.909-0.009 1.049-0.037 1.242-0.97 1.771-0.67 0.381-0.573 1.754 0.218 1.275 0.537-0.322 1.247-0.666 1.696-1.104 0.607-0.59 0.699-0.455 1.317 0.243 0.557 0.629 0.993 0.86 0.993-0.249-0.463-0.118 0 1.011 0 0z"/>
<path fill="#5f5e64" d="m77.93 11.34c0.273-0.959-2.371-1.646-2.057-0.854 0.206 0.512 2.193 1.545 2.057 0.854 0.116-0.401 0.043 0.215 0 0z"/>
<path fill="#98989e" d="m84.98 35.68c0.105 0.433 1.346 1.142 1.725 1.362 0.748 0.437 1.819 1.137 2.012 2.074 0.07 0.342-0.24 2.049-0.135 2.035 0.774-0.1 1.596 1.506 0.638 1.75-0.583 0.146 0.03 1.461-1.263 1.461-0.826 0 0.36 1.185 0.36 1.555 0 0.623-1.138-0.409-1.267-0.541-0.696-0.709-0.616 0.617-1.067 0.529-0.623-0.121 0.164-0.836 0.493-0.857 0.719-0.047 1.006-0.118 0.645-0.909-0.449-0.981 0.568-0.009 0.773-0.562 0.15-0.406 0.809-1.5-0.027-1.5-0.857 0-0.634-0.812-1.418-0.868-0.818-0.06-1.615-0.456-1.83-1.324-0.177-0.717-0.211-1.618-0.541-2.285-0.393-0.797 0.403-1.288 0.902-1.92 0.041 0.169-0.478 0.607 0 0z"/>
<g transform="translate(-.04867 -.0006512)">
<path fill-opacity=".8671" fill="#a8a7aa" d="m41.69 35c-0.025-2.009 0.111-4.2 0.266-6.202 0.076-0.984 0.239-1.969 0.168-2.959-0.009-0.111-0.234-1.373-0.521-0.571-0.328 0.92-0.107 1.979-0.092 2.923 0.013 0.813-0.279 1.584-0.311 2.393-0.029 0.787 0.426 1.422 0.314 2.228-0.09 0.654-1.127 3.648-2.094 2.271-0.496-0.707 0.191-1.981 0.471-2.646 0.609-1.453 0.011-3.511-0.372-4.98-0.106-0.41-0.401-2.65-0.974-2.729-0.399-0.055 0.28 3.756 0.354 4.083 0.415 1.853 0.421 4.093-0.014 5.943-0.702 0.411-2.115 0.229-2.684-0.359-0.756-0.784 0.708-0.636 0.434-1.304-0.209-0.516-0.909-1.085-0.827-1.686 0.118-0.854 1.661-0.324 2.129-0.357 0.606-0.044 0.782-2.042 0.082-2.303-0.777-0.289-1.888 0.197-2.488 0.689-0.153-0.87 0.117-2.959-0.795-3.472-0.823 1.151 0.209 2.416 0.248 3.625 0.022 0.672 0.583 1.797-0.312 1.71 0.195 1.093 0.053 2.193-1.17 2.509-0.304 1.427-1.656 0.687-2.498 0.267-1.035-0.515-1.188-1.244-2.52-1.332-0.506-0.033-1.072-0.074-1.471-0.438-0.16-0.146-0.694-1.027-1.041-0.768 0.044-0.032 4.15 2.992 4.408 3.521-1.187 0.229-5.114-2.989-6.002-2.058 0.125-0.131 4.871 2.797 5.312 3.164-0.584 0.957-2.966-0.227-3.756-0.351-0.22 0.104 2.161 1.229 2.511 1.296-0.535 0.202-1.111 0.389-1.591 0.711-0.75 0.506 0.806 0.495 1.09 0.383 0.503-0.196 1.505-1.112 2.078-0.777 0.701 0.408-0.476 2.385-0.006 2.96 0.391 0.479 1.067 0.646 1.44 1.127 0.34 0.437-1.379 0.444-1.56 0.487-1.341 0.326-0.185 0.768 0.579 0.736 1.021-0.039 2.168 0.023 3.146-0.326-1.043 0.461-3.207 1.489-4.315 1.139-0.405-0.128-2.688-0.934-2.808-0.113 0.879 0.986 2.934 0.15 3.563 1.296-0.643-0.165-1.385-0.366-2.048-0.218-0.269 0.061-0.513 0.211-0.563 0.507-0.1 0.575-0.063 1.104-0.17 1.729-0.131 0.759 0.557 1.707 1.063 2.147 0.453 0.396 1.562 0.091 1.843 0.638 0.297 0.576-0.487 0.478 0.423 0.727 0.455 0.124 0.915 0.26 1.33 0.493 0.912 0.513 1.219 1.517 1.445 2.48 0.253 1.068 0.996 0.611 0.76-0.404-0.275-1.184-0.416-2.711-1.184-3.704 0.393 0.509 0.416 1.271 0.943 1.729 0.741 0.643 0.898-0.027 1.436-0.524 0.324-0.299 1.442 0.678 1.201 0.022-0.222-0.599-1.041-1.698 0.135-1.79 2.33-0.513 1.031 5.045 0.505 4.844-1.357-0.517-1.08-0.233-1.335 0.978-0.124 0.588-0.496 0.804-0.275 1.526 0.287 0.938 1.137 1.01 1.701 0.25 0.936 2.486 4.768 3.514 3.805 6.605 0.571 0.037 0.883-0.65 1.211-1.005 0.697-0.752 1.295-0.41 1.158-1.808-0.117-1.196-2.307-2.512-1.165-3.18 1.056-0.617 1.3-1.865 1.011-3.07-0.134-0.556-0.474-0.76-0.808-0.185 0.372 0.513 0.015 2.026-0.381 1.271-0.413-0.791 0.362-1.377-0.319-2.191-0.277-0.333-0.623-0.602-0.896-0.938 0.11-0.517 0.053-1.035-0.085-1.538-0.199-0.725-1.367-4.488 0.369-3.154 0.841 0.645 4.858 1.013 5.75 0.428 0.588-0.387-2.043-1.48-2.518-1.395-1.023 0.42-2.145 0.187-3.063-0.377-0.303-0.187-1.616-0.881-0.883-1.353 1.213-0.782 2.719-0.069 3.557 0.888 0.348 0.396 1.054 1.566 1.521 0.824 0.422-0.671 0.321-1.584 0.823-2.205 0.575-0.711 0.808-0.563-0.073-1.373-0.629-0.576-0.522-0.867 0.375-0.938 1.393-0.974-1.291-1.326-1.861-1.563-0.424-0.177 1.945-2.17 0.15-3.119-0.348-0.185-0.535-0.998-0.916-1.023-0.17-0.012-1.287 1.119-1.385 0.542-0.083-0.487 0.297-1.076 0.422-1.534 0.273-0.984-1.151 0.133-1.38 0.231-0.019-1.578 0.45-0.195 0 0z"/>
<path fill="#b9b8ba" d="m38.12 38.23c-0.668-0.936-1.437-2.334-2.843-1.894-1.635 0.512-0.104 1.21 0.552 1.348 0.438 0.091 0.809 0.636 1.016 1.001 0.507 0.891-1.348 1.117-1.926 1.092-0.885 0.231-1.949-1.877-2.256-2.531-0.201-0.428-0.109-0.877-0.283-1.309-0.342-0.85-0.799 0.268-0.76 0.656 0.049 0.479 0.709 0.955 0.621 1.393-0.07 0.355-0.701 0.42-0.928 0.639-0.893 0.857 0.432 1.854 1.203 1.896 1.814 0.098 0.148 0.484 0.337 0.881 0.177 0.373 1.401 0.28 1.724 0.354 1.34 0.308-0.154 1.18-0.549 1.546s-0.84 1.292-0.589 1.852c0.344 0.764 1.077-0.496 1.271-0.642-0.084 0.063-0.1 2.608 0.691 2.353 1.27-0.41 0.208 1.465 1.219 0.853 0.689-0.501 0.831 0.754 1.336 0.954 0.461 0.184 0.985-0.031 0.865-0.592-0.152-0.711-0.734-0.588-1.091-1.094-0.213-0.303-0.079-0.886-0.406-1.065-0.34-0.188-0.878 0.104-1.161-0.213-0.244-0.274 0.006-0.786 0.026-1.091 0.058-0.844-0.604-0.428-0.931-0.916-0.477-0.717 2.062-0.863 2.24-0.849 1.687 0.146 2.584-1.346 4.299-0.987 1.191 0.25 1.761 1.133 2.896 1.365 1.4 0.285 0.053-1.14-0.468-1.402-1.003-0.508-1.581-0.813-0.252-0.963 1.313-0.146 0.208-2.358-0.528-1.375-0.865 1.154-0.398 2.061-2.344 1.778-0.944-0.137-2.688-1.206-0.988-1.68 1.434-0.399-0.273-1.147-0.717-1.636-0.366-0.401 0.033-1.188-0.602-1.389-0.677-0.211-0.672 1.355-0.674 1.667-0.508-0.711 0.002-0.416 0 0z"/>
<path fill="#e5e5e6" d="m38.25 39.91c0.051-0.41-1.969 0.238-2.178 0.393-0.943 0.689-0.541 1.702 0.418 1.943 0.725 0.184 2.307 0.652 2.803-0.209 0.637-0.967-0.216-1.791-1.043-2.127 0.024-0.196 0.02 0.009 0 0z"/>
<path fill-opacity=".8671" fill="#a8a7aa" d="m26.77 39.66c-0.724-1.877-2.884-2.854-1.403-5.041-2.963-0.468-0.697-3.189-2.482-4.783 0.398-0.002 2.268 0.888 2.197 0.427-0.125-0.835-0.67-1.358 0.049-2.084 0.476-0.479 1.099-0.188 1.625 0.015 0.525 0.202 1.084 0.348 1.619 0.079 0.605-0.305 1.891-0.903 2.254-1.516 0.844-1.421-2.06-1.33-2.666-1.044-0.775 0.365-2.588 0.962-3.197-0.109-0.314-0.552 3.059-0.792 3.34-1.634 0.656-1.968-5.313-0.858-5.311-2.664 0-0.862 0.377-1.656 0.476-2.502 0.021-0.187 0.016-0.466-0.248-0.386-0.847 0.252-0.854 0.714-0.839 1.455 0.049 2.608-3.342 2.102-5.016 2.402-1.281 0.231-0.597 0.631-0.349 1.307 0.308 0.834-1.72 1.742-2.205 2.031-1.007 0.6-2.601 1.334-3.022 2.541-0.361 0.342-2.57 2.084-2.416 2.641-0.01-0.036 3.75-2.184 4.174-2.516 1.475-1.154 2.879-2.68 4.642-3.382 0.595-0.237 1.267-0.331 1.853-0.016 1.322 0.713 0.213 1.733-0.431 2.645-0.545 0.772-1.216 1.589-2.137 1.899-0.828 0.279-2.996-0.826-3.188-0.628-0.769 0.792 0.938 1.352 1.418 1.633 1.731 1.015 0.154 1.543 0.139 2.799-0.031 2.416 2.548-3.206 2.169 0.683 0.454-1.896 0.577-1.78 1.59-0.608 0.421 0.487 2.802-1.065 2.127 0.532-0.601 1.423-1.793 2.065-3.008 2.824-0.813 0.508-1.31 1.229-0.462 1.965 1.031 0.898 3.904 1.91 1.432 3.102-0.279 0.803-5.25 0.811-5.302 0.637 0.176 0.588 7.868 0.752 2.634 1.625-1.929 2.627 1.246 0.832 2.592 0.938 1.063 0.083 0.786 1.268 1.225 1.972 0.291 0.467 1.828 1.908 2.289 0.876 0.074-0.164-0.533-3.735 0.425-2.909 0.251 0.217 1.214 2.107 0.925 2.389 1.125-2.369 2.873-4.823 2.488-7.595-0.742-1.928 0.38 2.734 0 0z"/>
<path fill="#b9b8ba" d="m26.26 41.08c-1.322 0.41-1.084 0.039-1.969-0.7-0.572-0.479-0.015-1.902-1.156-1.519-0.847 0.283 0.34 2.104-0.672 1.641-0.385-0.176-0.443 0.103-0.617 0.395-0.368 0.618-0.75 0.087-1.223 0.268 0.277 0.336 1.336 1.035 0.329 1.199-0.278 0.045-1.918 0.053-1.966 0.327-0.085 0.492 2.309-0.022 2.514-0.067 0.449 0.15 0.498 1.281 0.66 1.678-0.109-0.877 1.04 0.255 0.979 0.27 0.166-0.037 0.199-0.701 0.334-0.828 0.33-0.313 0.63 0.733 0.711 0.838 0.289-0.308 0.195-0.976 0.563-1.188 0.499-0.29 1.16 0.246 1.627-0.048-0.232-0.339-0.963-0.58-1.098-0.944-0.025-0.071 1.587-0.157 1.666-0.163-0.486-0.136-0.979-0.221-1.48-0.258 0.118-0.391 0.546-0.62 0.798-0.901-0.371 0.115-0.047 0.052 0 0z"/>
<path fill="#f3f3f4" d="m20.52 28.41c-0.681-0.076-2.446 0.965-2.769 1.684 0.559-1.246 3.616 0.46 2.769-1.684-0.676-0.076 0.205 0.518 0 0z"/>
<path fill="#e5e5e6" d="m20.65 26.86c0.277 0 0.253 1.129-0.639 0.903-0.177-0.044-0.589-1.651 0.639-0.903 0.174 0-0.212-0.131 0 0z"/>
<path fill="#e5e5e6" d="m23.71 41.59c0.028-0.057-1.311 0.904 0.129 0.904 0.588 0.001 0.058-0.587-0.129-0.904z"/>
</g>
</g>
</defs>
<rect filter="url(#l)" width="100%" height="100%"/>
</svg>
