<?xml version="1.0" encoding="UTF-8" standalone="no"?>
<svg xmlns:rdf="http://www.w3.org/1999/02/22-rdf-syntax-ns#" xmlns="http://www.w3.org/2000/svg" xmlns:xlink="http://www.w3.org/1999/xlink" xml:space="preserve" viewBox="0 0 750 1000" height="1e3" width="750" version="1.1" y="0px" x="0px" xmlns:cc="http://creativecommons.org/ns#" xmlns:dc="http://purl.org/dc/elements/1.1/"><symbol id="a"><path d="m521 452c-2.29-1.03-2.49-4.32-0.414-6.66 1.41-1.59 1.4-1.61-0.361-0.688-4.31 2.26-5.09-0.61-0.885-3.28 1.89-1.2 2.14-1.55 0.83-1.18-2.75 0.788-2.43-1.72 0.406-3.21 1.97-1.03 2.58-1.03 4.57-0.005 2.85 1.47 3.17 3.97 0.424 3.27-1.12-0.289-0.797 0.079 0.83 0.925 1.54 0.801 2.7 2.05 2.7 2.91 0 1.74-1.02 1.9-3.58 0.558-1.76-0.92-1.77-0.899-0.359 0.688 3.34 3.77 0.295 8.66-4.15 6.66zm-18.7-10.9c-3.46-2.63-0.525-7.89 3.77-6.76l1.84 0.484-1.87-1.37c-1.03-0.753-1.87-1.66-1.87-2.01 0-1.43 2.72-1.54 4.82-0.2 2.12 1.35 2.18 1.35 1.11 0-1.67-2.12 0.793-2.81 3.56-1 1.58 1.04 2.14 2.12 2.14 4.12 0 3.21-2.19 4.66-2.74 1.82-0.209-1.07-0.4-0.543-0.467 1.29-0.063 1.71-0.27 3.11-0.461 3.11-0.189 0-0.938 0.227-1.66 0.504-1.02 0.393-1.34-0.109-1.44-2.28-0.104-2.34-0.178-2.44-0.459-0.617-0.201 1.31-1.16 2.54-2.41 3.11-2.46 1.12-2.08 1.14-3.86-0.21zm37 0.162c-1-0.484-1.98-1.86-2.16-3.06-0.283-1.83-0.355-1.74-0.461 0.611-0.096 2.17-0.412 2.68-1.44 2.28-0.723-0.277-1.47-0.504-1.66-0.504-0.191 0-0.391-1.21-0.443-2.7-0.053-1.48-0.264-2.06-0.467-1.29-0.639 2.42-2.76 0.708-2.76-2.23 0-2.01 0.561-3.09 2.14-4.12 2.76-1.81 5.23-1.11 3.56 1-1.07 1.35-1.01 1.35 1.11 0 2.1-1.34 4.82-1.23 4.82 0.2 0 0.352-0.84 1.26-1.87 2.01l-1.87 1.37 1.84-0.484c4.29-1.13 7.23 4.13 3.77 6.76-1.71 1.3-1.75 1.3-4.11 0.16zm-22.1-5.37c-1.03-1.03-0.561-4.25 0.691-4.73 0.773-0.297 1.25 0.005 1.25 0.797 0 0.897 0.492 1.12 1.66 0.749 2.5-0.792 2.1 1.61-0.455 2.77-2.48 1.13-2.43 1.12-3.14 0.411zm7.96-0.463c-2.38-1.14-2.56-3.47-0.209-2.72 1.17 0.371 1.66 0.149 1.66-0.749 0-0.812 0.467-1.1 1.29-0.78 0.807 0.31 1.2 1.29 1.04 2.61-0.297 2.48-1.22 2.87-3.78 1.64zm-5.19-5.25c0-0.617-0.584-1.45-1.3-1.85-1.18-0.659-1.18-0.827 0-1.8 0.715-0.592 1.3-1.55 1.3-2.14 0-0.653 1.09-1.06 2.83-1.06 2.11 0 2.94 0.413 3.26 1.62 0.365 1.4 0.658 1.48 2.07 0.599 1.36-0.848 2.04-0.77 3.89 0.447l2.25 1.47-2.38 1.47c-2.78 1.72-3.9 1.39-3.17-0.923 0.506-1.59 0.467-1.6-1.21-0.161-0.953 0.816-1.73 1.92-1.73 2.46 0 0.564-1.23 0.978-2.9 0.978-1.89 0.001-2.91-0.392-2.91-1.12zm-6.11-1.24-2.38-1.47 2.16-1.42c1.23-0.804 2.78-1.18 3.6-0.866 1.07 0.412 1.17 0.714 0.395 1.2-0.574 0.354-0.818 1.23-0.543 1.95 0.761 1.99-0.596 2.24-3.24 0.61zm-4.12-3.84c-0.301-0.3-0.082-1.14 0.484-1.85 0.852-1.08 0.643-1.06-1.21 0.122-2.1 1.34-4.82 1.23-4.82-0.2 0-0.352 0.842-1.26 1.87-2.01l1.87-1.37-1.84 0.484c-2.77 0.73-5.22-0.954-5.22-3.59 0-4.88 6.97-5.12 7.72-0.265 0.281 1.82 0.355 1.72 0.459-0.617 0.098-2.17 0.414-2.68 1.44-2.28 0.723 0.277 1.47 0.504 1.66 0.504 0.191 0 0.398 1.4 0.461 3.11 0.066 1.83 0.258 2.36 0.467 1.29 0.553-2.84 2.74-1.39 2.74 1.82 0 1.98-0.559 3.09-2.04 4.06-2.22 1.45-3.18 1.64-4.04 0.795zm22.1-0.844c-1.29-0.9-1.87-2.14-1.87-4.02 0-2.93 2.12-4.64 2.76-2.22 0.203 0.774 0.414 0.193 0.467-1.29s0.252-2.7 0.443-2.7 0.938-0.227 1.66-0.504c1.02-0.393 1.34 0.109 1.44 2.28 0.105 2.34 0.18 2.44 0.459 0.617 0.75-4.85 7.72-4.61 7.72 0.265 0 2.64-2.45 4.32-5.22 3.59l-1.84-0.484 1.87 1.37c1.03 0.753 1.87 1.66 1.87 2.01 0 1.43-2.72 1.54-4.82 0.2-1.85-1.18-2.06-1.2-1.21-0.122 1.95 2.47-0.634 3.17-3.73 1.01zm-14.6-0.824c-0.756-0.756-0.674-2.95 0.156-4.26 0.549-0.863 1.13-0.878 2.9-0.074 2.62 1.2 3.1 3.62 0.547 2.82-1.18-0.374-1.66-0.149-1.66 0.774-0.001 1.34-0.967 1.72-1.94 0.748zm9.41-0.678c0-0.993-0.459-1.22-1.66-0.844-2.54 0.808-2.08-1.62 0.543-2.81 2.6-1.19 3.87-0.293 3.47 2.44-0.325 2.2-2.35 3.25-2.35 1.21zm-6.03-5.1c-2.83-1.48-3.14-3.96-0.406-3.26 1.13 0.289 0.797-0.079-0.83-0.925-1.54-0.802-2.7-2.05-2.7-2.92 0-1.74 1.02-1.9 3.58-0.559 1.78 0.934 1.78 0.919 0.295-0.762-1.87-2.1-1.54-5.02 0.727-6.52 1.44-0.955 1.97-0.931 3.53 0.16 2.2 1.54 2.36 4.2 0.377 6.43-1.41 1.59-1.4 1.61 0.359 0.688 2.56-1.34 3.58-1.18 3.58 0.559 0 0.862-1.16 2.11-2.7 2.92-1.63 0.846-1.96 1.21-0.83 0.925 2.75-0.705 2.42 1.79-0.424 3.27-1.99 1.03-2.6 1.03-4.57-0.006z"/><path d="m326 373c-0.239-0.913-0.764-1.66-1.17-1.66-0.403 0-0.733-0.561-0.733-1.25 0-0.685 0.604-1.24 1.34-1.24 0.919 0 1.21-0.507 0.921-1.61-0.317-1.21 0.172-1.82 1.98-2.45 1.32-0.46 2.4-1.23 2.4-1.71 0-1.22-1.78-1.04-3.65 0.372-1.74 1.31-3.35 0.867-2.45-0.68 0.314-0.54-0.216-0.29-1.18 0.554-1.64 1.44-4.05 1.24-3.12-0.259 0.233-0.377-0.135-0.9-0.817-1.16-1.6-0.612-1.57-1.74 0.064-3.38 0.718-0.718 1.07-1.3 0.781-1.3-0.288 0-0.281-0.392 0.015-0.871 0.368-0.595 0.909-0.563 1.71 0.102 0.875 0.727 1.46 0.734 2.31 0.03 0.864-0.717 1.38-0.642 2.18 0.313 1.18 1.42 4.57 1.76 3.71 0.374-0.299-0.485-1.48-1.24-2.63-1.67-1.67-0.633-1.89-1.03-1.12-1.96 0.765-0.921 0.611-1.27-0.74-1.7-1.74-0.551-2.38-2.09-0.874-2.09 0.457 0 0.83-0.747 0.83-1.66 0-1.86 2.9-2.36 3.6-0.623 0.335 0.831 0.432 0.831 0.484 0 0.11-1.74 1.73-1.16 1.73 0.623 0 0.932 0.553 1.66 1.26 1.66 0.93 0 1.12 0.544 0.741 2.07-0.287 1.14-0.273 2.72 0.029 3.5 0.867 2.26 2.23-0.481 1.64-3.3-0.363-1.73-0.162-2.28 0.832-2.28 0.758 0 1.31-0.701 1.31-1.66 0-1.78 1.62-2.36 1.73-0.623 0.052 0.831 0.149 0.831 0.484 0 0.703-1.74 3.6-1.24 3.6 0.623 0 0.914 0.374 1.66 0.831 1.66 1.72 0 0.745 1.65-1.27 2.16-1.88 0.471-1.96 0.636-0.728 1.53 1.22 0.891 1.08 1.13-1.22 2.08-2.62 1.08-3.49 2.53-1.53 2.53 0.583 0 1.87-0.564 2.85-1.25 1.14-0.797 1.98-0.947 2.31-0.413 0.35 0.566 1.05 0.56 2.13-0.02 1.18-0.632 1.61-0.594 1.61 0.14 0 0.551 0.578 1.64 1.28 2.42 1.16 1.28 1.16 1.55-0.059 2.76-0.739 0.739-1.06 1.34-0.704 1.34 0.353 0 0.201 0.44-0.336 0.977-0.749 0.749-1.4 0.603-2.8-0.623-1-0.879-1.56-1.16-1.25-0.619 0.939 1.61-1.11 2.19-2.69 0.761-0.807-0.729-1.9-1.33-2.44-1.33-1.73 0-1.03 1.67 1.1 2.64 1.14 0.521 2.08 1.63 2.08 2.47s0.591 1.53 1.31 1.53c0.723 0 1.14 0.467 0.934 1.04-0.21 0.571-0.763 0.957-1.23 0.859-0.467-0.099-0.668 0.513-0.446 1.36 0.515 1.97-1.11 3-2.68 1.7-0.917-0.761-1.21-0.767-1.21-0.022 0 0.54-0.374 0.75-0.831 0.468s-0.83-1.24-0.83-2.12c0-0.915-0.567-1.61-1.31-1.61-0.993 0-1.2-0.554-0.832-2.28 0.621-2.96-0.735-5.4-1.56-2.81-0.309 0.974-0.325 2.52-0.035 3.43 0.374 1.18 0.149 1.66-0.774 1.66-0.77 0-1.3 0.715-1.3 1.75 0 1.2-0.385 1.6-1.22 1.28-0.67-0.257-1.44-0.11-1.71 0.326-0.825 1.33-2.18 0.888-2.64-0.866z"/><path d="m39.8 344c-1.91-1.04-2.28-1.79-2.28-4.61 0-2.49 0.487-3.76 1.87-4.88 2.8-2.27 1.13-2.95-2.3-0.93-3.77 2.22-3.72 2.23-3.72-0.648 0-1.98 0.668-2.8 3.74-4.6 4.11-2.41 5.2-4.58 1.29-2.56-3.21 1.66-3.36 1.62-3.36-0.792 0-1.58 0.803-2.47 3.43-3.81 3.3-1.68 3.56-1.7 7.06-0.363 2.96 1.13 3.63 1.77 3.63 3.49 0 2.15-0.556 2.24-4.36 0.67-0.799-0.329-1.45-0.234-1.45 0.21s1.87 1.58 4.15 2.53c3.68 1.53 4.15 2.01 4.15 4.23v2.51l-3.74-1.6c-2.81-1.2-3.74-1.33-3.74-0.519 0 0.595 0.89 1.49 1.98 1.98 1.44 0.654 2.09 1.77 2.4 4.08 0.359 2.69 0.089 3.46-1.77 5.04-2.55 2.17-3.83 2.27-6.97 0.568zm-29.9-14.9c-1.89-1.02-2.28-1.8-2.28-4.48 0-2.67 0.45-3.56 2.56-5.06 2.14-1.52 2.89-1.67 4.6-0.887 4.79 2.18 4.91 0.424 0.155-2.29-3.24-1.85-3.36-2.05-1.91-3.11 2.11-1.54 3.69-1.42 6.63 0.525 3.37 2.23 5.68 2.13 2.67-0.116-1.83-1.36-2.11-1.96-1.35-2.88 1.34-1.62 2.42-1.46 5.84 0.871 2.42 1.65 3.08 2.7 3.48 5.6 0.384 2.76 0.186 3.81-0.873 4.62-2.02 1.53-2.71 1.28-2.71-0.989 0-1.12-0.423-2.29-0.94-2.61-0.682-0.421-0.784 0.672-0.371 3.98 0.529 4.23 0.423 4.66-1.47 5.9-1.83 1.2-2.09 1.2-2.54 0.056-0.271-0.705-0.492-2.37-0.492-3.7 0-1.46-0.438-2.42-1.1-2.42-0.74 0-0.987 0.78-0.752 2.38 0.279 1.9-0.146 2.73-2.14 4.15-2.91 2.08-3.92 2.14-7.01 0.468zm50.6-3.36c-2.03-1.07-2.29-1.69-2.35-5.54-0.062-4.09-0.114-4.2-0.944-1.84-1.11 3.15-0.995 3.04-2.61 2.42-1.03-0.394-1.36-1.61-1.36-4.9 0-4.03 0.233-4.56 2.9-6.59 2.42-1.84 3.18-2.05 4.64-1.27l1.75 0.936-1.88 2c-2.81 2.99-1.47 3.22 2.13 0.358 3.52-2.8 4.42-2.99 6.62-1.39 1.43 1.04 1.33 1.26-1.49 3.41-3.31 2.53-3.36 4.57-0.055 2.41 1.91-1.25 2.3-1.24 5.35 0.135 3 1.35 3.29 1.77 3.29 4.62 0 2.57-0.472 3.47-2.62 5l-2.62 1.86-2.98-1.6c-1.64-0.879-3.1-2.35-3.24-3.26-0.627-3.92-1.37-3.86-1.79 0.139l-0.453 4.29-2.28-1.2zm-27.7-5.57c-0.966-2.52 0.009-7.59 1.51-7.88 1-0.19 1.45 0.255 1.45 1.45 0 1.96 0.303 2.06 2.54 0.862 1.38-0.736 1.61-0.58 1.61 1.09 0 2.5-6.34 6.49-7.12 4.48zm14-1.38c-1.94-0.872-3.53-1.76-3.53-1.97 0-0.214-0.249-1.04-0.552-1.82-0.463-1.21-0.205-1.35 1.6-0.896 1.7 0.427 2.27 0.19 2.68-1.12 0.576-1.82 1.1-2 2.75-0.947 0.709 0.45 0.999 2.02 0.83 4.52l-0.258 3.83-3.53-1.58zm-10.2-8.25c0-1.71-0.497-2.59-1.66-2.96-2.13-0.677-2.11-1.78 0.052-2.93 1.2-0.644 1.64-1.58 1.46-3.14-0.185-1.64 0.072-2.14 0.986-1.88 1.89 0.534 4.4 0.407 6.01-0.303 1.17-0.517 1.45-0.228 1.45 1.5 0 1.48 0.69 2.5 2.23 3.31l2.23 1.17-1.82 1.13c-1.26 0.787-1.81 1.96-1.81 3.82 0 2.57-0.094 2.65-2.08 1.74-1.56-0.71-2.6-0.706-4.19 0.018-2.86 1.3-2.87 1.3-2.87-1.47zm-9.76-1.5c-1.48-0.739-2.7-1.63-2.7-1.98 0-1.34 5.63-4.89 6.95-4.38 1.69 0.648 1.72 1.5 0.091 2.85-1.12 0.926-1.06 1.19 0.429 2.23 1.87 1.31 1.51 2.76-0.667 2.68-0.773-0.029-2.62-0.658-4.1-1.4zm23.1-0.173c-1.04-0.661-1.01-0.988 0.23-2.36 1.38-1.52 1.36-1.65-0.275-2.75-1.65-1.11-1.66-1.19-0.192-2.09 1.23-0.756 2.21-0.534 5.04 1.13l3.51 2.07-3.13 2.37c-3.54 2.68-3.52 2.67-5.18 1.63zm-29.4-5.12c-1.45-0.843-1.43-0.979 0.35-2.88 2.76-2.93 1.52-3.18-1.78-0.354-3.17 2.71-4.73 3.03-6.93 1.42-1.38-1-1.26-1.25 1.52-3.38 3.3-2.52 3.3-4.64-0.006-2.47-1.91 1.25-2.3 1.24-5.35-0.135-3-1.35-3.29-1.77-3.29-4.62 0-2.56 0.474-3.48 2.55-4.96 2.5-1.78 2.61-1.79 5.81-0.345 2.66 1.2 3.26 1.9 3.26 3.79 0 1.27 0.374 2.55 0.83 2.83 0.505 0.313 0.831-0.914 0.831-3.13 0-4.4 0.406-4.91 2.99-3.73 1.74 0.792 1.99 1.47 1.99 5.29 0 2.41 0.374 4.62 0.83 4.9 0.494 0.306 0.83-0.683 0.83-2.44 0-3.23 0.17-3.37 2.54-2.1 1.21 0.649 1.61 1.75 1.61 4.5 0 3.24-0.357 3.92-3.23 6.2-3.67 2.9-3.33 2.8-5.35 1.62zm34.2-3.64c-2.65-1.73-3.06-2.47-3.33-5.84-0.237-2.99 0.01-4.02 1.1-4.61 2.04-1.09 2.16-1.01 2.77 1.74 0.898 4.09 1.93 2.02 1.13-2.26-0.667-3.57-0.562-4.08 1.12-5.35 2.22-1.68 3.15-1.28 3.15 1.36 0 2.58 0.805 4.58 1.84 4.58 0.459 0 0.67-1.13 0.467-2.51-0.313-2.14 0.047-2.77 2.43-4.24 2.46-1.52 3.11-1.6 5.33-0.681 2.49 1.03 4.05 3.57 4.05 6.57 0 0.863-1.26 2.27-2.92 3.24-2.41 1.42-3.27 1.56-4.98 0.778-2.48-1.13-3.96-0.045-1.76 1.29 0.853 0.517 2.3 1.52 3.21 2.23 1.65 1.28 1.64 1.31-0.401 2.64-1.96 1.28-2.22 1.25-5.04-0.669-1.64-1.11-3.65-2.02-4.47-2.01-1.05 0.01-0.661 0.549 1.3 1.81 2.61 1.67 2.7 1.87 1.29 2.89-2 1.46-2.73 1.35-6.29-0.982zm-22.6-0.202c-0.818-1.38-1.46-7.54-0.826-7.89 0.375-0.21 2.27 0.327 4.21 1.19 2.44 1.08 3.53 2.08 3.53 3.22 0 1.34-0.385 1.55-2.08 1.12-1.72-0.432-2.08-0.223-2.08 1.23 0.001 1.66-1.97 2.47-2.76 1.13zm13.8-1.87c-0.501-1.92-0.631-1.95-2.79-0.801-1.37 0.733-1.6 0.581-1.6-1.04 0.004-1.35 0.989-2.46 3.39-3.83 1.86-1.06 3.51-1.81 3.65-1.66 0.604 0.618 0.698 7.04 0.117 7.98-0.945 1.53-2.29 1.22-2.78-0.646zm-10.2-7.31c-1.82-0.886-3-2.12-3.17-3.28-0.295-2.07 0.364-2.26 3.6-1.03 1.6 0.608 2.12 0.578 1.89-0.11-0.174-0.521-1.98-1.56-4.02-2.31-3.23-1.19-3.73-1.7-3.96-4.08l-0.263-2.71 3.06 1.28c1.68 0.704 3.39 1.28 3.79 1.28 1.5 0 0.655-1.43-1.39-2.36-1.89-0.861-2.09-1.38-1.87-4.76 0.206-3.09 0.667-4.04 2.5-5.15 2.08-1.25 2.46-1.26 5.07-0.013 2.28 1.08 2.92 1.96 3.34 4.52 0.45 2.77 0.229 3.4-1.75 4.98-3.12 2.5-1.75 3.38 1.9 1.23 1.64-0.97 3.15-1.76 3.36-1.76 0.202 0 0.368 1.1 0.368 2.46 0 2.05-0.647 2.84-3.88 4.73-3.63 2.13-3.97 3.93-0.375 2 2.34-1.25 2.59-1.14 2.59 1.17 0 1.56-0.792 2.46-3.29 3.74-3.9 1.99-3.81 1.98-7.51 0.18z"/><path d="m671 309c-2.3-2.78 1.8-6.88 4.58-4.58 0.687 0.569 1.14 2 0.998 3.18-0.188 1.61-0.786 2.21-2.4 2.4-1.18 0.137-2.61-0.312-3.18-0.998zm-1.22-9.28c-0.717-1.87-0.735-1.83 1.78-3.15 2.02-1.06 2.55-1.04 4.57 0.152 2.52 1.49 2.61 1.69 1.47 3.48-0.629 0.988-1.11 1.05-2.34 0.284-0.959-0.594-2-0.678-2.72-0.22-1.66 1.05-2.17 0.949-2.74-0.546zm7.09-4.67c-2.64-1.67-2.85-1.68-5.71-0.32-2.4 1.14-3.1 1.21-3.66 0.33-1.16-1.84-0.84-2.29 2.94-4.13l3.66-1.78 3.86 2.26c3.38 1.98 3.73 2.44 2.81 3.66-0.583 0.764-1.08 1.46-1.11 1.55-0.027 0.088-1.28-0.621-2.79-1.58zm1.32-5.66-3.95-2.48-4.17 2.11c-2.29 1.16-4.53 1.89-4.97 1.62-1.83-1.13-0.51-2.81 4.19-5.32l4.99-2.66 5.02 3.05c3.45 2.1 4.88 3.44 4.56 4.27-0.258 0.671-0.469 1.38-0.469 1.57 0.001 0.79-1.46 0.181-5.2-2.17zm29 1.57c-1.92-1.08-1.83-4.6 0.152-5.66 2.03-1.09 5.6 1.51 4.83 3.51-0.766 2-3.3 3.09-4.98 2.15zm-69.8-2.81c-1.67-1.67-1.72-3.21-0.141-4.52 2.66-2.2 6.74 1.03 4.93 3.91-1.25 1.98-3.17 2.22-4.79 0.605zm50.5-1.25c-0.32-0.518-0.326-3.33-0.014-6.25l0.568-5.31 4.53-2.59c2.49-1.43 5.08-2.38 5.75-2.13 2.33 0.896 1.19 2.74-2.9 4.65l-4.12 1.93-0.244 5.06c-0.189 3.92-0.552 5.11-1.62 5.32-0.757 0.143-1.64-0.163-1.96-0.681zm5.41-3.7v-4.55l4.07-2.06c3.51-1.78 4.14-1.88 4.57-0.776 0.8 2.08 0.589 2.67-1.16 3.23-2.74 0.87-4.16 2.87-4.16 5.87 0 2.29-0.323 2.85-1.66 2.85-1.46-0.002-1.66-0.556-1.66-4.55zm5.52 3.92c-1-1.62 0.655-5.33 2.9-6.49 2.18-1.13 2.45-1.11 2.94 0.152 0.322 0.842-0.013 1.79-0.846 2.4-0.759 0.556-1.38 1.81-1.38 2.79 0 1.2-0.519 1.78-1.61 1.78-0.885 0.002-1.78-0.28-2-0.626zm-52.8-3.01c0-1.15-0.576-2.42-1.28-2.81-0.776-0.434-1.07-1.27-0.741-2.12 0.685-1.79 1.94-1.75 4.37 0.126 2.59 1.99 2.28 6.23-0.485 6.62-1.51 0.216-1.87-0.131-1.87-1.83zm5.81-1.37c0-2.94-0.35-3.56-2.9-5.06-2.48-1.46-2.77-1.94-2.02-3.34 0.858-1.6 0.941-1.6 4.35 0.41 3.35 1.97 3.48 2.21 3.72 6.69 0.226 4.21 0.09 4.65-1.45 4.65-1.43 0-1.7-0.527-1.7-3.35zm5.25-1.48 0.505-4.83-4.11-2.44c-2.26-1.34-4.11-2.92-4.12-3.5-0.033-2.14 2.32-1.86 6.89 0.818l4.68 2.74 0.017 6.02c0.016 5.96-0.006 6.02-2.18 6.02-2.18-0.001-2.19-0.036-1.69-4.83zm23.6 1.72c-3.28-2.62-3.91-3.58-3.95-6.02-0.028-1.6-0.276-3.75-0.552-4.77-0.681-2.54 0.425-2.35 4.48 0.768 3.03 2.33 3.49 3.14 3.98 7 0.3 2.4 0.412 4.76 0.249 5.25-0.164 0.489-2.05-0.512-4.2-2.23zm-16.9-1.51c0.319-2.26 0.743-4.66 0.942-5.34 0.377-1.3 7.66-6.28 8.27-5.66 0.194 0.194 0.042 2.32-0.337 4.71-0.701 4.44-1.06 4.88-7.01 8.78l-2.45 1.61 0.581-4.1zm17.9-12.4-3.74-1.97 4.01-1.73c2.21-0.953 4.53-1.73 5.17-1.73 1.43 0 8.67 3.47 8.67 4.15 0 0.644-7.49 3.34-9.13 3.29-0.686-0.024-2.93-0.928-4.98-2.01zm-24.5-0.754-4.15-1.94 3.27-1.39c5.47-2.32 6.57-2.34 11.2-0.182l4.49 2.08-3.97 1.7c-4.98 2.14-5.8 2.12-10.9-0.265zm36.2-5.64c-4.94-3.14-5.23-3.5-4.76-5.86 0.277-1.38 0.504-3.97 0.504-5.74 0-2.66 0.286-3.22 1.66-3.22 1.47 0 1.66 0.554 1.66 4.9v4.9l4.17 2.68c3.59 2.3 4.03 2.86 3.14 4.03-0.566 0.745-1.05 1.42-1.07 1.51-0.024 0.085-2.41-1.35-5.3-3.19zm-43.2 0.178c-0.777-1.45-0.483-1.87 2.36-3.32 5.02-2.56 5.91-3.83 5.91-8.41 0-3.57 0.218-4.09 1.7-4.09 1.57 0 1.68 0.432 1.45 5.84l-0.243 5.84-5.15 2.9c-5 2.81-5.17 2.85-6.04 1.24zm26.6-0.25c0.029-5.96 1.02-8.1 5.12-11.1 2.24-1.65 4.21-2.86 4.36-2.69 0.154 0.169-0.088 2.56-0.538 5.3-0.776 4.74-1.02 5.13-4.89 7.69-3.98 2.63-4.07 2.65-4.06 0.817zm-8.14-2.08c-2.95-2.73-3.41-3.65-3.72-7.47-0.423-5.18 0.209-5.38 4.72-1.52 2.91 2.49 3.28 3.26 3.63 7.44 0.232 2.8 0.057 4.66-0.439 4.66-0.454 0.001-2.34-1.4-4.19-3.11zm29.1-1.57c-3.45-2.08-3.53-2.22-3.53-6.61 0-4.23 0.118-4.48 2.08-4.48 1.91 0 2.08 0.305 2.08 3.74 0 2.06 0.28 3.74 0.622 3.75 1.72 0.051 4.4 3.06 3.9 4.38-0.695 1.81-0.907 1.78-5.14-0.774zm-50-1.09c-0.799-1.49-0.554-1.86 2.03-3.1 2.61-1.24 2.94-1.75 2.94-4.59 0-2.13 0.432-3.36 1.3-3.69 2.3-0.883 3.11 0.942 2.32 5.25-0.646 3.54-1.13 4.22-4.2 5.91-3.47 1.92-3.48 1.92-4.38 0.22zm54.1-2.99c-2.52-1.77-2.66-7.01-0.185-7.01 1.17 0 1.66 0.554 1.66 1.88 0 1.03 0.775 2.36 1.72 2.95 1.38 0.865 1.53 1.31 0.729 2.28-1.25 1.51-1.65 1.5-3.93-0.093zm-57-1.82c-0.374-0.974 0.009-1.83 1.16-2.59 0.943-0.626 1.72-1.84 1.72-2.7 0-1.01 0.589-1.56 1.66-1.56 1.34 0 1.66 0.553 1.66 2.88 0 2.35-0.45 3.12-2.45 4.15-3.05 1.58-3.06 1.58-3.74-0.186zm25.1-5.03c-3.98-2.59-4.59-3.3-3.89-4.55 0.771-1.38 1.15-1.3 5.33 1.09l4.5 2.58 4.22-2.3c3.54-1.93 4.34-2.1 4.98-1.09 0.418 0.66 0.762 1.39 0.763 1.62 0.004 0.543-9.62 5.82-10.5 5.77-0.375-0.024-2.8-1.42-5.4-3.11zm37.6 2c-2.3-2.78 1.8-6.88 4.58-4.58 0.687 0.569 1.14 2 0.998 3.18-0.187 1.61-0.786 2.21-2.4 2.4-1.18 0.138-2.61-0.311-3.18-0.997zm-68.5-1.58c-2.12-1.55-1.46-5.06 1-5.41 3.67-0.521 5.52 2.68 3.01 5.19-1.58 1.59-2.11 1.62-4.01 0.221zm32.5-5.8c-3.4-2-3.45-2.1-2.31-3.9 0.687-1.09 1.16-1.04 3.75 0.351 2.8 1.5 3.12 1.52 5.82 0.228 2.71-1.29 2.91-1.28 3.67 0.142 0.671 1.25 0.269 1.81-2.38 3.3-3.91 2.2-4.65 2.19-8.56-0.115zm2.04-5.2c-1.96-1.38-2.41-3.24-0.979-4.13 0.477-0.294 1.39-0.104 2.02 0.424 0.842 0.699 1.61 0.715 2.84 0.061 1.37-0.735 1.84-0.6 2.56 0.744 0.748 1.4 0.512 1.83-1.58 2.92-2.99 1.55-2.61 1.55-4.85-0.019zm0.29-8.32c-1.59-1.59-1.61-2.11-0.221-4.01 1.55-2.12 5.06-1.46 5.41 1 0.52 3.67-2.68 5.52-5.19 3.01z"/><path d="m173 136c-1.25-2.14-0.55-4.84 1.53-5.93 1.73-0.904 1.7-0.937-0.502-0.629-1.98 0.275-2.29 0.059-2.08-1.44 0.184-1.29 1.03-1.9 3.16-2.27 1.78-0.315 2.18-0.556 1.04-0.623-2.29-0.134-2.42-1.41-0.262-2.57 3.42-1.83 7.53 0.118 7.53 3.56 0 1.65-0.886 1.77-2.52 0.35-0.655-0.571-0.321-0.042 0.743 1.18 1.37 1.56 1.77 2.74 1.36 4.02l-0.572 1.8-2.07-1.94-2.07-1.94 0.989 2.18c0.745 1.64 0.756 2.61 0.044 3.94-1.18 2.19-5.11 2.38-6.32 0.311zm20.9-4.18c-0.815-0.901-1.17-2.29-0.911-3.53 0.418-1.98 0.391-1.98-0.888 0.238-0.726 1.26-1.64 2.28-2.04 2.28-1.22 0-1.76-2.53-0.89-4.16 1.23-2.29 1-3.04-0.359-1.19-1.13 1.54-1.21 1.54-1.77 0.106-1.4-3.62 4.04-8.58 6.85-6.25 1.02 0.848 0.914 1.16-0.724 2.06-2.33 1.3-1.6 1.44 1.44 0.278 1.58-0.603 2.56-0.573 3.38 0.102 1.62 1.35 1.42 2.41-0.467 2.41-0.886 0-1.88 0.437-2.21 0.971-0.413 0.668-0.132 0.792 0.901 0.395 1.8-0.691 4.58 1.54 4.58 3.68 0 0.81-0.587 2.06-1.3 2.78-1.72 1.72-3.93 1.65-5.59-0.179zm-11.2-9.53c-1.14-1.21-1.52-2.28-1.08-2.99 0.528-0.855 0.833-0.88 1.31-0.106 0.478 0.772 0.784 0.747 1.31-0.112 1.25-2.03 2.61 0.347 1.64 2.88-1.02 2.67-0.989 2.67-3.19 0.329zm-16.6-1.54c0.366-2.49 0.329-2.52-0.943-0.94-3.1 3.86-8.23 1.97-7.08-2.61 0.609-2.43 4.02-3.82 5.57-2.27 1.57 1.57 2.62 1.04 1.15-0.583-1.72-1.9-1.72-2.32 0.022-2.99 0.896-0.344 2.01 0.151 3.11 1.38 0.944 1.05 1.44 1.55 1.09 1.11-1.06-1.37-0.694-2.13 1.02-2.13 2.33 0 4.38 3.45 3.69 6.21-0.651 2.6-2.68 3.68-3.74 2.01-0.558-0.881-0.737-0.732-0.747 0.621-0.011 1.51-1.42 2.79-3.08 2.79-0.242-0.002-0.27-1.17-0.061-2.59zm8.41-1.15c0.29-0.756 0.527-1.9 0.527-2.55 0-0.648 0.56-1.18 1.24-1.18 0.685 0 1.25 0.561 1.25 1.25 0 0.685 0.297 1.25 0.661 1.25 0.832 0 0.8-3.8-0.039-4.64-1.02-1.02-0.708-2.01 0.649-2.01 0.7 0 1.57-0.811 1.94-1.8 0.442-1.19 0.869-1.48 1.27-0.83 0.331 0.534 1.5 0.972 2.6 0.972 1.41 0 1.86 0.357 1.54 1.21-0.255 0.664 0.177 2.06 0.958 3.11 0.819 1.1 1.22 1.32 0.957 0.522-0.721-2.15 1.72-2.51 3.14-0.472 1.72 2.46 1.62 2.83-0.983 3.49-1.67 0.418-2.54 0.173-3.37-0.948-1.08-1.46-1.17-1.45-2.32 0.104-0.929 1.25-1.42 1.39-2.19 0.623-1.47-1.47-2.17-1.22-2.47 0.875-0.206 1.45-0.894 1.93-3.08 2.14-2.33 0.221-2.72 0.033-2.28-1.11zm17.6-5.86c-0.957-1.46-1.22-2.92-0.842-4.65 0.463-2.11 0.877-2.46 2.54-2.14 1.52 0.292 1.99 0.019 1.99-1.16 0-1.02 0.597-1.54 1.76-1.54 1.52 0 1.7 0.345 1.26 2.53-0.314 1.57-0.196 2.34 0.312 2.03 0.45-0.278 0.818-1 0.818-1.61 0-1.98 4.23-2.4 6.03-0.603 3.43 3.43-1.8 8.53-5.49 5.36-1.72-1.47-1.72-1.47-0.299 0.777 1.8 2.85 1.78 3.14-0.18 3.14-0.88 0-2.38-0.984-3.32-2.19-0.947-1.2-1.72-1.78-1.72-1.29 0 0.491 0.379 1.13 0.844 1.42 0.464 0.287 0.628 0.87 0.366 1.29-0.868 1.4-2.66 0.807-4.08-1.36zm-19-1.61c-1.45-2-1.44-2.04 0.621-2.55 2.7-0.678 5.48 0.249 3.82 1.27-0.625 0.386-0.906 1.3-0.625 2.03 0.821 2.14-2.14 1.56-3.82-0.751zm14-1.6c0.328-0.854 0.039-1.31-0.833-1.31-2.43 0-1.38-2.27 1.29-2.81 1.44-0.289 2.74-0.41 2.88-0.27 0.747 0.747-1.26 5.19-2.44 5.42-0.971 0.188-1.24-0.125-0.889-1.04zm-8.43-2.36c-0.244-0.635-0.043-2.21 0.446-3.49l0.89-2.34 2.07 1.94c2.16 2.03 2.3 3.68 0.302 3.72-0.646 0.012-1.64 0.316-2.22 0.676-0.624 0.39-1.22 0.188-1.49-0.502zm-8.27-0.617c-0.285-0.46 0.347-1.18 1.4-1.59 1.56-0.613 1.24-0.729-1.72-0.616-4.26 0.162-5.42-1.37-2-2.62l2.32-0.848-2.25-0.065c-2.94-0.086-4.51-2.79-3.25-5.57 1.82-3.99 8-1.33 7.08 3.04-0.298 1.42-0.027 1.17 0.886-0.807 1.19-2.59 1.44-2.73 2.62-1.55 1.05 1.05 1.11 1.65 0.337 3.1-0.531 0.992-0.784 2.25-0.562 2.8 0.222 0.546 0.433 0.307 0.469-0.53 0.036-0.843 0.528-1.36 1.1-1.15 1.48 0.524 0.939 4.96-0.757 6.2-1.71 1.25-4.96 1.37-5.68 0.206zm12.8-3.8c-1.93-2.05-1.66-5.3 0.323-3.97 0.587 0.394 0.396 0.096-0.425-0.662-1.52-1.41-1.93-3.3-0.931-4.3 0.309-0.309 1.43 0.255 2.49 1.25 1.86 1.74 2.84 1.11 1.05-0.682-1.49-1.49-0.021-5.07 2.33-5.66 3.17-0.795 5.56 1.81 4.42 4.81-0.465 1.22-1.39 2.22-2.06 2.22s-1.44 0.368-1.72 0.818c-0.313 0.507 0.456 0.625 2.03 0.312 2.19-0.438 2.53-0.267 2.53 1.26 0 1.16-0.524 1.76-1.52 1.76-1.03 0-1.5 0.586-1.45 1.82 0.051 1.4-0.548 1.95-2.59 2.38-2.14 0.449-3.01 0.185-4.46-1.36z"/><path d="m559 86.4c0-0.868-0.374-1.58-0.83-1.58-1.53 0-0.851-1.81 0.848-2.26 1.27-0.331 1.46-0.703 0.784-1.52-0.679-0.817-0.348-1.34 1.37-2.18 1.25-0.607 2.42-1.57 2.6-2.14 0.474-1.45-1.87-1.3-3.12 0.208-1.47 1.77-3.65 1.63-2.95-0.188 0.413-1.08 0.043-0.958-1.48 0.478-1.39 1.3-2.22 1.61-2.62 0.963-0.322-0.521-0.367-1.17-0.101-1.43 0.268-0.267-0.162-0.989-0.954-1.6-1.36-1.06-1.35-1.19 0.171-2.36 0.887-0.685 1.28-1.24 0.872-1.24-0.407 0-0.3-0.44 0.237-0.977 0.748-0.749 1.4-0.603 2.8 0.623 1 0.879 1.57 1.16 1.25 0.619-0.939-1.61 1.11-2.19 2.69-0.761 1.69 1.53 3.41 1.74 3.41 0.424 0-0.497-1.12-1.32-2.49-1.84-1.84-0.693-2.37-1.33-2.02-2.42 0.313-0.989 0.038-1.48-0.832-1.48-0.716 0-1.3-0.56-1.3-1.24 0-0.685 0.396-1.25 0.88-1.25s0.674-0.331 0.424-0.736 0.102-1.2 0.781-1.76c0.981-0.815 1.49-0.813 2.48 0.007 0.929 0.771 1.25 0.784 1.25 0.053 0-0.54 0.408-0.728 0.908-0.419 0.499 0.309 0.748 1.4 0.552 2.43-0.267 1.39-0.021 1.78 0.971 1.52 0.984-0.257 1.32 0.254 1.32 1.98-0.006 1.28 0.363 2.33 0.819 2.33 0.457 0 0.735-1.03 0.62-2.28-0.148-1.61 0.173-2.28 1.09-2.28 0.859 0 1.21-0.608 1.04-1.79-0.143-0.985 0.207-1.95 0.778-2.14 0.57-0.194 1.04 0.097 1.04 0.647 0 0.78 0.267 0.78 1.21-0.002 1.57-1.3 3.2-0.274 2.68 1.7-0.221 0.846-0.02 1.46 0.447 1.36 0.467-0.098 1.02 0.288 1.23 0.859s-0.211 1.04-0.934 1.04-1.32 0.654-1.32 1.45c-0.003 0.799-1.22 2.17-2.7 3.05-2.2 1.31-2.42 1.66-1.18 1.94 0.833 0.188 2.21-0.288 3.06-1.06 1.64-1.48 3.73-0.965 2.77 0.688-0.314 0.54 0.176 0.327 1.09-0.472 1.9-1.66 2.78-1.84 2.78-0.563 0 0.489 0.563 1.45 1.25 2.14 1.38 1.38 0.953 2.78-0.86 2.78-0.644 0-0.979 0.501-0.743 1.11 0.542 1.41-4.23 1.33-6.86-0.116-2.46-1.35-3.63-1.25-3.05 0.255 0.264 0.689 1.4 1.48 2.53 1.77 1.45 0.365 1.94 0.948 1.66 2-0.251 0.959 0.164 1.63 1.18 1.89 1.61 0.422 2.21 2.22 0.733 2.22-0.456 0-0.83 0.572-0.83 1.27 0 1.73-2.48 2.56-3.39 1.13-0.524-0.829-0.737-0.863-0.747-0.121-0.007 0.571-0.386 1.04-0.843 1.04-0.456 0-0.83-0.922-0.83-2.05 0-1.57-0.323-1.92-1.38-1.52-1.15 0.441-1.3 0.123-0.885-1.93 0.593-2.96-0.636-5.7-1.52-3.38-0.305 0.793-0.354 2.21-0.109 3.14 0.271 1.04-0.017 1.88-0.736 2.15-0.649 0.249-1.18 1.09-1.18 1.86 0 1.04-0.761 1.43-2.91 1.49-2.33 0.062-2.91-0.234-2.91-1.5z"/><path d="m368 246c-1.54-2.87-1.54-2.87 0.443-4.99l1.99-2.12 1.56 2.46c1.62 2.56 1.25 4.45-1.28 6.56-0.935 0.776-1.46 0.403-2.71-1.91zm16.6-3.5c-3.28-3.8-4.02-5.22-3.81-7.26 0.384-3.68 0.691-3.88 3.84-2.38 2.51 1.2 2.95 1.9 3.74 5.99 0.491 2.55 1.07 5.48 1.29 6.5 0.631 2.96-0.671 2.22-5.05-2.85zm-34.4 1.61c0-0.395 0.865-3.28 1.92-6.42 1.75-5.2 2.19-5.8 4.98-6.76l3.06-1.06-0.001 3.48c0 3.13-0.401 3.83-3.94 6.86-4.67 3.99-6.02 4.86-6.02 3.9zm23.1-4.89-3.03-2.08-3.52 1.79c-2.84 1.45-3.65 1.58-4.22 0.681-0.388-0.612-0.711-1.4-0.718-1.75-0.012-0.577 4.39-3.59 6.08-4.16 0.385-0.13 0.823-2.53 0.976-5.34 0.153-2.8 0.728-5.94 1.28-6.97 0.98-1.83 1.03-1.84 2.21-0.27 0.909 1.2 1.09 2.97 0.726 7.1l-0.485 5.5 3.32 2.2c3.56 2.36 3.87 2.95 2.32 4.5-1.29 1.29-1.37 1.27-4.94-1.19zm3.18-5c-0.3-0.3-0.317-2.49-0.037-4.87 0.331-2.82 0.184-4.52-0.424-4.9-1.15-0.713-1.24-5.46-0.101-5.46 1.29 0 4.15 3.17 4.15 4.6 0 0.722 1.64 1.98 3.77 2.89 3.42 1.47 3.69 1.78 2.84 3.36-0.631 1.18-1.38 1.56-2.32 1.17-2.86-1.18-3.88-0.816-4.14 1.48-0.25 2.18-2.33 3.15-3.74 1.74zm-15-1.55c-0.286-0.746-0.521-2.06-0.521-2.93 0-1.35-0.307-1.46-2.15-0.757-2.52 0.957-3.67 0.453-3.67-1.6 0-1.01 1.07-1.8 3.36-2.49 2.1-0.63 3.69-1.73 4.24-2.95 0.486-1.07 1.78-2.35 2.87-2.84 1.81-0.823 1.98-0.716 1.98 1.18 0 1.15-0.594 2.99-1.32 4.1-0.842 1.29-1.22 3.3-1.04 5.58 0.246 3.1 0.056 3.59-1.48 3.81-1.04 0.148-1.98-0.306-2.28-1.11zm27.2-2.82 0.543-4.09-4.53-2.76c-3.81-2.32-6.3-5.1-6.3-7.02 0-0.606 5.3 0.587 5.81 1.31 0.229 0.32 1.86 1.55 3.62 2.73l3.2 2.15 3.78-1.62c3-1.29 3.92-1.4 4.46-0.554 1.26 1.99 0.711 2.89-2.58 4.18-3.08 1.21-3.32 1.54-3.84 5.52-0.506 3.81-0.768 4.23-2.64 4.23-2.01 0.002-2.06-0.134-1.53-4.09zm7.26 1.1c-1.6-3.52-1.21-4.48 1.86-4.48 2.34 0 2.98 0.417 3.85 2.52 1.21 2.92 1.22 2.9-2.18 3.55-2.19 0.417-2.73 0.175-3.53-1.58zm-47-3.58c0.539-4.06 0.529-4.08-2.88-6.34-3.74-2.47-4-3.01-2.24-4.48 0.938-0.777 1.88-0.54 4.55 1.14l3.36 2.12 3.76-1.82c2.06-1 3.76-2.12 3.76-2.49 0-0.365 1.31-0.665 2.91-0.665s2.9 0.28 2.89 0.623c-0.046 1.54-3.25 4.19-7.25 5.99-3.61 1.63-4.36 2.34-4.37 4.11-0.022 4.15-0.909 5.88-3.02 5.88-1.92-0.001-1.98-0.17-1.47-4.08zm-6.92 1.74c-2.96-0.286-3.16-0.723-1.73-3.85 0.675-1.48 1.61-2.11 3.11-2.1 3.59 0.021 4.24 0.918 2.69 3.72-1.15 2.09-1.8 2.45-4.07 2.23zm48-11.9c-1.58-1.33-3.84-2.42-5.03-2.42s-2.88-0.554-3.77-1.23c-1.4-1.06-1.44-1.34-0.366-2.06 0.685-0.458 2.55-0.842 4.15-0.852s4.03-0.761 5.4-1.67c3.06-2.02 4.23-2.08 4.93-0.242 0.361 0.941-0.095 1.9-1.35 2.85l-1.9 1.43 1.87 1.99c1.78 1.89 1.8 2.05 0.404 3.3-1.35 1.21-1.69 1.12-4.34-1.1zm-21.4-1.32c-1.31-0.917-1.87-2.14-1.87-4.12 0-2.27 0.508-3.12 2.63-4.42 2.68-1.63 3.44-1.51 6.82 1.02 2.27 1.69 1.26 6.64-1.62 7.95-2.7 1.23-3.68 1.16-5.97-0.433zm27.1-0.729c-1.69-1.8-1.8-2.24-0.768-2.93 3.74-2.49 4.2-2.53 9.36-0.799 6.97 2.34 8.12 3.12 5.52 3.71-11.6 2.66-11.6 2.66-14.1 0.021zm-47-0.086c-0.339-0.882 0.16-1.93 1.39-2.93l1.92-1.56-1.78-1.9c-1.58-1.69-1.65-2.07-0.595-3.5 1.15-1.56 1.27-1.52 3.98 1.09 1.89 1.83 3.6 2.7 5.3 2.7 1.38 0 3.2 0.511 4.05 1.14 1.5 1.1 1.5 1.17-0.202 2.08-0.966 0.517-2.99 0.948-4.51 0.958s-3.69 0.749-4.83 1.64c-2.55 2-4.04 2.09-4.73 0.286zm-10.5-3.24c-3.15-1.1-5.88-2.15-6.06-2.34-0.652-0.652 12.2-3.12 13.8-2.63 0.854 0.271 2.18 1.19 2.96 2.04 1.33 1.47 1.27 1.64-1.06 3.3-2.94 2.1-2.47 2.11-9.59-0.376zm41-3.32c0-1.82 2.38-3.91 6.65-5.83l4.98-2.23v-4.04c0-3.75 0.146-4.04 2.08-4.04 1.95 0 2.08 0.265 2.08 4.36 0.006 4.22 0.116 4.42 3.33 6.26 2.88 1.64 3.21 2.12 2.46 3.53-1.09 2.04-1.05 2.04-5.24-0.408l-3.48-2.04-4.48 2.45c-4.02 2.2-8.37 3.23-8.37 1.98zm-17-1.07c-0.916-0.297-3.43-1.77-5.58-3.26l-3.92-2.72-3.31 1.69c-4.05 2.06-3.94 2.06-5.03 0.029-0.785-1.47-0.456-1.87 2.88-3.49 3.69-1.79 3.76-1.91 3.76-5.81 0-3.7 0.149-3.99 2.08-3.99 1.94 0 2.08 0.279 2.08 4.11 0 3.98 0.126 4.2 3.94 6.76 4.35 2.92 6.02 4.67 6.02 6.31 0 1.17-0.342 1.22-2.91 0.382zm13.7-3.48c0-0.929 0.653-2.69 1.45-3.92 0.844-1.29 1.45-3.81 1.45-5.99 0-3.27 0.245-3.8 1.87-4.03 1.63-0.232 1.87 0.101 1.87 2.66 0 2.91 0.012 2.92 2.58 2.02 2.04-0.71 2.73-0.657 3.31 0.251 1.31 2.07 0.796 3.08-1.86 3.67-1.44 0.316-4.04 2.03-5.78 3.8-3.54 3.61-4.89 4.04-4.89 1.54zm-8.94 0.304c-0.581-0.234-1.62-1.51-2.3-2.83-0.685-1.32-2.73-3.17-4.55-4.09-3.49-1.78-3.73-2.18-2.52-4.1 0.618-0.977 1.16-1.02 2.93-0.208 2.85 1.3 2.71 1.36 3.34-1.5 0.369-1.68 1.05-2.49 2.09-2.49 2.17 0 2.48 0.864 1.65 4.55-0.53 2.35-0.405 3.83 0.466 5.52 1.27 2.46 1.6 5.75 0.568 5.64-0.342-0.035-1.1-0.256-1.68-0.489zm4.27-2.14c-0.348-1.03-0.522-4.08-0.387-6.78 0.238-4.76 0.15-4.99-2.8-7.47-2.19-1.84-2.89-2.97-2.49-4.02 0.758-1.96 1.65-1.84 5.02 0.731l2.86 2.18 3.75-1.98c3.24-1.71 3.85-1.81 4.54-0.731 1.23 1.93 1.07 2.19-2.92 4.52l-3.74 2.19-0.027 5.15c-0.034 6.58-2.39 10.4-3.82 6.19zm26.4-2.19c-0.925-0.586-0.9-1.12 0.146-3.15 1.11-2.14 1.63-2.4 4.23-2.1 3.42 0.399 3.37 0.302 1.7 3.53-1.28 2.49-3.76 3.18-6.08 1.72zm-55.3-5.29c-0.624-1.48-1.07-2.74-0.998-2.79 0.076-0.049 1.35-0.319 2.83-0.6 2.37-0.451 2.84-0.223 3.94 1.92 1.84 3.55 1.58 4.17-1.69 4.17-2.54 0-3.1-0.374-4.08-2.7zm41.4-3.76c-0.547-2.92-0.376-3.2 4.73-7.78 2.91-2.61 5.44-4.61 5.61-4.44 0.42 0.419-3.21 11.4-4.17 12.6-0.423 0.536-1.85 1.35-3.18 1.82-2.33 0.813-2.43 0.739-2.98-2.19zm-24.8-0.061c-2.2-1.34-2.63-2.26-3.53-7.48-0.562-3.28-1.02-6.36-1.02-6.86 0-0.894 7.23 6.69 8.59 9.01 0.767 1.31-0.001 6.88-0.947 6.87-0.323-0.001-1.72-0.69-3.09-1.53zm13.4-7.98c-1.77-2.7-1.69-3.7 0.457-5.99l1.8-1.92 1.54 2.54c1.52 2.49 1.51 2.58-0.194 4.97-0.955 1.34-1.86 2.44-2 2.44-0.145 0-0.867-0.92-1.6-2.05z"/><path d="m432 32.5c-0.272-0.272-0.271-1.08 0.003-1.8 0.329-0.858 0.169-1.1-0.473-0.7-0.575 0.356-0.971 0.096-0.971-0.638 0-0.681 0.797-1.49 1.77-1.8 1.4-0.443 1.53-0.719 0.622-1.3-0.965-0.621-0.949-0.87 0.098-1.56 0.686-0.45 1.67-0.823 2.19-0.83 0.522-0.007 1.16-0.573 1.43-1.26 0.642-1.67-2.24-1.66-3.63 0.01-0.793 0.955-1.31 1.03-2.18 0.313-0.852-0.707-1.45-0.684-2.38 0.091-0.685 0.568-1.24 0.801-1.24 0.517 0-1.42-0.211-1.81-1.3-2.43-1.54-0.859-1.5-1.83 0.172-4.37 1.25-1.91 1.48-1.97 2.8-0.765 1.32 1.19 1.49 1.18 1.98-0.087 0.495-1.29 0.645-1.29 2.04-0.036 0.826 0.747 2.17 1.36 2.99 1.36 1.23 0 1.31-0.217 0.456-1.24-0.568-0.685-1.53-1.24-2.13-1.24-1.59 0-2.42-1.74-1.19-2.49 0.749-0.463 0.543-0.806-0.724-1.21-1.73-0.55-2.5-2.11-1.03-2.11 0.405 0 0.686-0.653 0.622-1.45-0.089-1.12 0.609-1.49 3.1-1.63 3.18-0.177 3.21-0.156 2.76 2.49-0.251 1.47-0.265 2.2-0.028 1.63 0.837-2.03 1.95-0.993 1.95 1.82 0 1.57 0.373 3.09 0.83 3.37 0.902 0.558 1.09-0.363 0.843-4.06-0.132-1.95 0.103-2.3 1.25-1.86 1.16 0.447 1.32 0.182 0.898-1.51-0.484-1.93-0.328-2.04 2.6-1.88 2.14 0.119 3.12 0.563 3.12 1.42 0 0.685 0.555 1.59 1.23 2.02 0.993 0.622 0.75 0.979-1.24 1.83-1.36 0.582-2.01 1.07-1.44 1.1 1.8 0.065 1.13 1.71-1.04 2.53-1.14 0.434-2.08 1.17-2.08 1.64 0 1.28 2.14 1.02 3.32-0.395 1.36-1.64 2.49-1.58 2.49 0.129 0 1.27 0.118 1.27 1.55-0.026 1.46-1.33 1.62-1.28 2.99 0.803 1.38 2.11 1.15 3.75-0.979 6.91-0.126 0.187-0.979-0.338-1.9-1.17-1.5-1.35-1.66-1.37-1.66-0.133 0 1.71-1.13 1.77-2.49 0.128-0.568-0.685-1.83-1.23-2.8-1.22-1.76 0.028-1.76 0.031 0.113 1.6 1.03 0.862 2.34 1.76 2.9 1.98 0.772 0.314 0.729 0.625-0.175 1.25-0.966 0.672-0.754 0.949 1.07 1.41 2.05 0.513 2.76 2.7 0.745 2.27-0.46-0.097-0.787 0.463-0.727 1.24 0.084 1.08-0.639 1.46-3.01 1.59-2.93 0.164-3.09 0.052-2.6-1.88 0.423-1.69 0.266-1.96-0.892-1.51-1.18 0.451-1.36 0.09-1.13-2.19 0.168-1.66-0.132-2.87-0.762-3.09-0.703-0.244-1.04 0.598-1.04 2.62 0 2.93-1.07 3.97-2 1.94-0.261-0.57-0.263 0.177-0.003 1.66 0.455 2.61 0.378 2.7-2.36 2.7-1.56 0.002-3.05-0.221-3.33-0.495z"/><path d="m217 464c2.29 1.03 2.49 4.32 0.415 6.66-1.41 1.59-1.4 1.61 0.361 0.688 4.31-2.26 5.08 0.61 0.885 3.28-1.89 1.2-2.14 1.55-0.831 1.18 2.75-0.787 2.43 1.72-0.405 3.21-1.97 1.03-2.58 1.03-4.57 0.005-2.85-1.47-3.17-3.97-0.425-3.27 1.13 0.289 0.796-0.078-0.83-0.925-1.54-0.802-2.7-2.05-2.7-2.91 0-1.74 1.02-1.9 3.58-0.559 1.76 0.921 1.77 0.899 0.361-0.688-3.34-3.77-0.296-8.66 4.15-6.66zm18.7 10.9c3.46 2.63 0.526 7.89-3.77 6.76l-1.84-0.484 1.87 1.37c1.03 0.754 1.87 1.66 1.87 2.01 0 1.43-2.72 1.54-4.82 0.2-2.12-1.35-2.18-1.35-1.11 0 1.68 2.12-0.793 2.81-3.56 1-1.58-1.04-2.14-2.12-2.14-4.13 0-3.21 2.19-4.66 2.74-1.82 0.208 1.07 0.4 0.543 0.467-1.29 0.062-1.71 0.269-3.11 0.46-3.11s0.938-0.227 1.66-0.504c1.02-0.394 1.34 0.108 1.44 2.28 0.104 2.34 0.178 2.44 0.459 0.617 0.202-1.31 1.16-2.55 2.41-3.11 2.46-1.12 2.08-1.14 3.86 0.212zm-37-0.162c1 0.484 1.97 1.86 2.16 3.06 0.283 1.83 0.355 1.74 0.46-0.61 0.097-2.18 0.413-2.68 1.44-2.28 0.722 0.277 1.47 0.504 1.66 0.504 0.191 0 0.391 1.21 0.444 2.7 0.053 1.48 0.263 2.06 0.467 1.29 0.639-2.42 2.76-0.708 2.76 2.23 0 2.01-0.561 3.09-2.14 4.13-2.76 1.81-5.23 1.11-3.56-1 1.07-1.35 1.01-1.35-1.11 0-2.1 1.34-4.82 1.23-4.82-0.2 0-0.352 0.841-1.26 1.87-2.01l1.87-1.37-1.84 0.484c-4.29 1.13-7.23-4.13-3.77-6.76 1.71-1.3 1.75-1.3 4.1-0.162zm22.1 5.37c1.03 1.03 0.561 4.25-0.692 4.73-0.774 0.297-1.24-0.005-1.24-0.797 0-0.897-0.492-1.12-1.66-0.749-2.5 0.793-2.1-1.61 0.454-2.77 2.48-1.13 2.43-1.12 3.14-0.411zm-7.96 0.464c2.38 1.14 2.56 3.47 0.208 2.72-1.17-0.37-1.66-0.148-1.66 0.749 0 0.812-0.469 1.1-1.29 0.779-0.807-0.31-1.2-1.29-1.04-2.61 0.296-2.48 1.21-2.88 3.78-1.64zm5.19 5.25c0 0.616 0.584 1.45 1.3 1.85 1.18 0.659 1.18 0.827 0 1.8-0.713 0.593-1.3 1.56-1.3 2.14 0 0.653-1.09 1.06-2.83 1.06-2.11 0-2.94-0.412-3.26-1.62-0.365-1.4-0.658-1.48-2.07-0.599-1.36 0.849-2.04 0.771-3.89-0.447l-2.25-1.47 2.38-1.47c2.78-1.72 3.9-1.39 3.17 0.923-0.505 1.59-0.466 1.6 1.21 0.16 0.954-0.816 1.73-1.92 1.73-2.46 0-0.564 1.23-0.978 2.91-0.978 1.88 0 2.9 0.392 2.9 1.12zm6.11 1.24 2.38 1.47-2.16 1.42c-1.23 0.804-2.78 1.18-3.6 0.866-1.07-0.412-1.17-0.715-0.393-1.2 0.573-0.354 0.817-1.23 0.542-1.95-0.76-1.99 0.597-2.24 3.24-0.609zm4.12 3.84c0.3 0.301 0.083 1.14-0.484 1.85-0.853 1.08-0.644 1.06 1.21-0.121 2.1-1.34 4.82-1.23 4.82 0.2 0 0.352-0.841 1.26-1.87 2.01l-1.87 1.37 1.84-0.484c2.77-0.729 5.22 0.954 5.22 3.59 0 4.88-6.97 5.11-7.72 0.265-0.281-1.82-0.355-1.72-0.459 0.617-0.097 2.18-0.413 2.68-1.44 2.28-0.722-0.277-1.47-0.504-1.66-0.504-0.191 0-0.398-1.4-0.46-3.11-0.066-1.83-0.258-2.36-0.467-1.29-0.552 2.84-2.74 1.39-2.74-1.82 0-1.98 0.561-3.09 2.05-4.06 2.22-1.45 3.19-1.64 4.04-0.796zm-22.1 0.844c1.29 0.9 1.87 2.14 1.87 4.02 0 2.93-2.12 4.64-2.76 2.22-0.204-0.774-0.414-0.193-0.467 1.29s-0.253 2.7-0.444 2.7-0.938 0.227-1.66 0.504c-1.02 0.394-1.34-0.108-1.44-2.28-0.104-2.34-0.178-2.44-0.459-0.617-0.749 4.85-7.72 4.61-7.72-0.265 0-2.64 2.45-4.32 5.22-3.59l1.84 0.484-1.87-1.37c-1.03-0.754-1.87-1.66-1.87-2.01 0-1.43 2.72-1.54 4.82-0.2 1.85 1.18 2.06 1.2 1.21 0.121-1.95-2.47 0.634-3.17 3.73-1.01zm14.6 0.824c0.756 0.756 0.675 2.95-0.157 4.26-0.547 0.863-1.13 0.878-2.89 0.074-2.62-1.2-3.1-3.62-0.547-2.82 1.18 0.374 1.66 0.149 1.66-0.773-0.001-1.35 0.966-1.72 1.94-0.749zm-9.41 0.679c0 0.992 0.458 1.22 1.66 0.843 2.54-0.808 2.08 1.62-0.542 2.81-2.6 1.19-3.87 0.294-3.47-2.44 0.323-2.2 2.35-3.25 2.35-1.21zm6.03 5.1c2.83 1.48 3.14 3.96 0.405 3.26-1.13-0.289-0.796 0.078 0.831 0.925 1.54 0.802 2.7 2.05 2.7 2.91 0 1.74-1.02 1.9-3.58 0.559-1.78-0.934-1.79-0.919-0.294 0.762 1.87 2.1 1.54 5.02-0.728 6.52-1.44 0.955-1.97 0.931-3.53-0.159-2.2-1.54-2.36-4.2-0.376-6.43 1.41-1.59 1.4-1.61-0.361-0.688-2.56 1.34-3.58 1.18-3.58-0.559 0-0.862 1.16-2.11 2.7-2.91 1.63-0.847 1.96-1.21 0.83-0.925-2.75 0.705-2.42-1.79 0.425-3.27 1.99-1.03 2.6-1.03 4.57 0.004z"/><path d="m429 572c0.238 0.913 0.764 1.66 1.17 1.66 0.402 0 0.732 0.561 0.732 1.25 0 0.685-0.604 1.24-1.34 1.24-0.92 0-1.21 0.507-0.922 1.61 0.318 1.21-0.172 1.82-1.98 2.45-1.32 0.46-2.4 1.23-2.4 1.71 0 1.22 1.78 1.04 3.65-0.372 1.74-1.31 3.35-0.866 2.44 0.68-0.314 0.539 0.217 0.29 1.18-0.554 1.64-1.44 4.05-1.24 3.12 0.26-0.232 0.377 0.135 0.899 0.816 1.16 1.6 0.612 1.57 1.74-0.063 3.38-0.719 0.718-1.07 1.3-0.781 1.3 0.287 0 0.281 0.392-0.016 0.871-0.367 0.595-0.908 0.563-1.71-0.103-0.875-0.727-1.46-0.733-2.31-0.029-0.863 0.717-1.38 0.642-2.18-0.313-1.17-1.42-4.57-1.76-3.71-0.374 0.301 0.484 1.48 1.24 2.63 1.67 1.67 0.634 1.89 1.03 1.12 1.95-0.766 0.922-0.611 1.27 0.738 1.7 1.74 0.552 2.38 2.09 0.875 2.09-0.457 0-0.83 0.747-0.83 1.66 0 1.86-2.9 2.36-3.6 0.623-0.336-0.831-0.432-0.831-0.484 0-0.109 1.74-1.73 1.16-1.73-0.623 0-0.932-0.553-1.66-1.26-1.66-0.932 0-1.12-0.544-0.742-2.07 0.287-1.14 0.273-2.72-0.027-3.5-0.867-2.26-2.23 0.48-1.64 3.3 0.363 1.73 0.162 2.28-0.832 2.28-0.758 0-1.31 0.7-1.31 1.66 0 1.78-1.62 2.36-1.73 0.623-0.053-0.831-0.149-0.831-0.484 0-0.703 1.74-3.6 1.24-3.6-0.623 0-0.913-0.373-1.66-0.83-1.66-1.72 0-0.745-1.65 1.27-2.16 1.88-0.471 1.96-0.635 0.728-1.53-1.22-0.892-1.08-1.13 1.22-2.08 2.62-1.08 3.49-2.53 1.53-2.53-0.583 0-1.87 0.564-2.85 1.25-1.14 0.797-1.98 0.947-2.31 0.413-0.35-0.566-1.05-0.56-2.13 0.021-1.18 0.631-1.61 0.594-1.61-0.14 0-0.552-0.578-1.64-1.28-2.42-1.16-1.28-1.16-1.55 0.059-2.76 0.739-0.739 1.06-1.34 0.704-1.34-0.353 0-0.201-0.439 0.336-0.977 0.749-0.749 1.4-0.604 2.8 0.623 1 0.879 1.56 1.16 1.25 0.618-0.939-1.61 1.11-2.19 2.69-0.761 0.806 0.729 1.9 1.33 2.44 1.33 1.73 0 1.03-1.67-1.1-2.64-1.14-0.521-2.08-1.63-2.08-2.47s-0.591-1.53-1.31-1.53c-0.723 0-1.14-0.467-0.934-1.04 0.209-0.57 0.763-0.957 1.23-0.858 0.466 0.099 0.668-0.514 0.446-1.36-0.516-1.97 1.11-3 2.68-1.7 0.917 0.761 1.21 0.767 1.21 0.022 0-0.54 0.374-0.75 0.83-0.468 0.457 0.282 0.83 1.24 0.83 2.12 0 0.915 0.567 1.61 1.31 1.61 0.994 0 1.2 0.553 0.832 2.28-0.621 2.96 0.734 5.4 1.56 2.81 0.309-0.974 0.324-2.52 0.035-3.43-0.375-1.18-0.15-1.66 0.773-1.66 0.77 0 1.3-0.715 1.3-1.75 0-1.2 0.385-1.6 1.22-1.28 0.672 0.257 1.44 0.11 1.71-0.326 0.826-1.33 2.19-0.887 2.65 0.867z"/><path d="m608 609c1.91 1.04 2.28 1.79 2.28 4.61 0 2.49-0.486 3.76-1.87 4.88-2.8 2.27-1.13 2.95 2.3 0.93 3.77-2.22 3.72-2.23 3.72 0.648 0 1.98-0.668 2.8-3.74 4.6-4.11 2.41-5.2 4.58-1.28 2.56 3.21-1.66 3.36-1.62 3.36 0.792 0 1.58-0.803 2.47-3.43 3.81-3.3 1.68-3.56 1.7-7.06 0.363-2.96-1.13-3.63-1.77-3.63-3.49 0-2.15 0.555-2.24 4.36-0.67 0.799 0.329 1.45 0.234 1.45-0.21s-1.87-1.58-4.15-2.53c-3.68-1.53-4.15-2.01-4.15-4.23v-2.51l3.74 1.6c2.81 1.2 3.74 1.33 3.74 0.519 0-0.595-0.889-1.49-1.98-1.98-1.44-0.653-2.09-1.77-2.4-4.08-0.359-2.69-0.09-3.46 1.77-5.04 2.55-2.17 3.83-2.27 6.97-0.57zm29.9 14.9c1.89 1.02 2.28 1.8 2.28 4.48 0 2.67-0.449 3.56-2.56 5.06-2.14 1.52-2.89 1.67-4.6 0.887-4.79-2.18-4.91-0.424-0.156 2.29 3.24 1.85 3.36 2.05 1.91 3.11-2.11 1.54-3.69 1.42-6.63-0.525-3.37-2.23-5.69-2.13-2.67 0.115 1.83 1.36 2.11 1.96 1.35 2.88-1.34 1.62-2.42 1.46-5.85-0.871-2.42-1.65-3.07-2.7-3.48-5.6-0.385-2.76-0.186-3.81 0.873-4.62 2.02-1.53 2.71-1.28 2.71 0.988 0 1.12 0.424 2.29 0.939 2.61 0.684 0.421 0.785-0.673 0.371-3.98-0.527-4.23-0.422-4.66 1.48-5.9 1.83-1.2 2.09-1.2 2.54-0.057 0.27 0.705 0.49 2.37 0.49 3.7 0 1.46 0.439 2.42 1.1 2.42 0.74 0 0.988-0.78 0.754-2.38-0.279-1.9 0.146-2.73 2.14-4.15 2.91-2.07 3.92-2.14 7.01-0.467zm-50.6 3.36c2.03 1.07 2.29 1.69 2.35 5.54 0.063 4.09 0.115 4.2 0.945 1.84 1.11-3.15 0.994-3.04 2.61-2.42 1.03 0.395 1.36 1.61 1.36 4.9 0 4.03-0.232 4.56-2.9 6.59-2.42 1.84-3.19 2.06-4.64 1.27l-1.75-0.937 1.88-2c2.81-2.99 1.47-3.22-2.12-0.358-3.52 2.8-4.43 2.99-6.62 1.39-1.43-1.04-1.33-1.26 1.49-3.41 3.31-2.53 3.36-4.57 0.055-2.41-1.91 1.25-2.3 1.24-5.35-0.135-2.99-1.35-3.29-1.77-3.29-4.62 0-2.57 0.471-3.47 2.62-5l2.62-1.86 2.98 1.6c1.64 0.88 3.1 2.35 3.24 3.26 0.627 3.92 1.37 3.86 1.79-0.139l0.453-4.29 2.28 1.2zm27.7 5.57c0.967 2.52-0.008 7.59-1.51 7.88-1.01 0.19-1.45-0.255-1.45-1.45 0-1.96-0.303-2.06-2.54-0.861-1.38 0.736-1.6 0.58-1.6-1.09-0.001-2.51 6.34-6.5 7.12-4.48zm-14 1.38c1.94 0.872 3.53 1.76 3.53 1.97 0 0.214 0.248 1.04 0.553 1.82 0.463 1.21 0.205 1.35-1.6 0.896-1.7-0.427-2.27-0.19-2.68 1.12-0.576 1.82-1.1 2-2.75 0.946-0.709-0.449-0.998-2.02-0.83-4.52l0.258-3.83 3.53 1.59zm10.2 8.25c0 1.71 0.498 2.59 1.66 2.96 2.13 0.677 2.11 1.78-0.053 2.93-1.2 0.645-1.64 1.58-1.46 3.14 0.186 1.64-0.072 2.14-0.986 1.88-1.89-0.534-4.4-0.407-6.01 0.303-1.17 0.517-1.45 0.228-1.45-1.5 0-1.48-0.689-2.5-2.23-3.31l-2.23-1.17 1.81-1.13c1.26-0.787 1.81-1.96 1.81-3.82 0-2.57 0.094-2.65 2.08-1.74 1.56 0.71 2.6 0.706 4.19-0.018 2.86-1.3 2.87-1.3 2.87 1.47zm9.76 1.5c1.48 0.739 2.7 1.63 2.7 1.98 0 1.34-5.62 4.89-6.95 4.38-1.69-0.648-1.72-1.5-0.092-2.85 1.12-0.926 1.07-1.19-0.428-2.23-1.87-1.31-1.51-2.76 0.666-2.68 0.774 0.03 2.62 0.658 4.1 1.4zm-23.1 0.174c1.04 0.66 1.01 0.988-0.23 2.36-1.38 1.52-1.36 1.65 0.275 2.75 1.65 1.11 1.65 1.19 0.191 2.09-1.23 0.755-2.21 0.534-5.04-1.13l-3.51-2.07 3.13-2.37c3.54-2.68 3.52-2.67 5.18-1.63zm29.4 5.12c1.45 0.843 1.43 0.979-0.35 2.88-2.76 2.93-1.52 3.18 1.78 0.354 3.17-2.71 4.73-3.03 6.93-1.42 1.38 1.01 1.26 1.25-1.52 3.38-3.3 2.52-3.3 4.64 0.006 2.47 1.91-1.25 2.3-1.24 5.35 0.135 2.99 1.35 3.29 1.77 3.29 4.62 0 2.56-0.473 3.48-2.55 4.96-2.5 1.78-2.61 1.79-5.81 0.346-2.66-1.2-3.26-1.9-3.26-3.79 0-1.27-0.373-2.55-0.83-2.83-0.506-0.313-0.83 0.914-0.83 3.13 0 4.4-0.406 4.91-2.99 3.73-1.74-0.791-1.99-1.47-1.99-5.29 0-2.41-0.373-4.62-0.83-4.9-0.494-0.305-0.83 0.684-0.83 2.44 0 3.23-0.17 3.37-2.54 2.1-1.21-0.648-1.6-1.75-1.6-4.5 0-3.24 0.357-3.92 3.23-6.2 3.66-2.9 3.33-2.8 5.35-1.63zm-34.2 3.64c2.64 1.73 3.06 2.47 3.33 5.84 0.238 2.99-0.01 4.02-1.1 4.61-2.04 1.09-2.16 1.01-2.77-1.74-0.898-4.09-1.93-2.02-1.13 2.26 0.668 3.57 0.563 4.08-1.12 5.35-2.22 1.68-3.15 1.28-3.15-1.36 0-2.58-0.807-4.58-1.84-4.58-0.461 0-0.67 1.13-0.469 2.51 0.314 2.14-0.047 2.77-2.43 4.24-2.46 1.52-3.1 1.6-5.33 0.682-2.48-1.03-4.05-3.57-4.05-6.57 0-0.862 1.27-2.27 2.92-3.24 2.41-1.42 3.27-1.56 4.98-0.777 2.48 1.13 3.96 0.045 1.76-1.29-0.852-0.518-2.3-1.52-3.21-2.23-1.64-1.28-1.64-1.3 0.402-2.64 1.96-1.28 2.22-1.24 5.04 0.67 1.64 1.11 3.65 2.02 4.47 2.01 1.05-0.01 0.66-0.549-1.3-1.81-2.61-1.67-2.7-1.87-1.29-2.89 2.01-1.47 2.73-1.35 6.29 0.98zm22.6 0.201c0.816 1.38 1.46 7.54 0.826 7.89-0.375 0.21-2.27-0.326-4.21-1.19-2.43-1.08-3.53-2.08-3.53-3.22 0-1.34 0.385-1.55 2.07-1.12 1.72 0.433 2.08 0.223 2.08-1.23 0-1.66 1.97-2.47 2.76-1.13zm-13.8 1.87c0.502 1.92 0.631 1.95 2.78 0.801 1.37-0.733 1.6-0.581 1.6 1.04-0.004 1.35-0.988 2.46-3.39 3.83-1.86 1.06-3.51 1.81-3.65 1.66-0.604-0.618-0.699-7.04-0.117-7.98 0.945-1.53 2.29-1.22 2.78 0.646zm10.2 7.31c1.81 0.886 3.01 2.12 3.17 3.28 0.295 2.07-0.365 2.26-3.6 1.03-1.6-0.608-2.12-0.578-1.89 0.109 0.174 0.521 1.98 1.56 4.02 2.31 3.23 1.19 3.73 1.7 3.96 4.08l0.262 2.71-3.06-1.28c-1.68-0.704-3.39-1.28-3.79-1.28-1.5 0-0.654 1.43 1.39 2.36 1.89 0.86 2.09 1.38 1.87 4.76-0.205 3.09-0.668 4.04-2.5 5.15-2.07 1.25-2.46 1.26-5.07 0.013-2.28-1.08-2.92-1.96-3.34-4.52-0.449-2.77-0.229-3.4 1.75-4.98 3.12-2.5 1.75-3.38-1.9-1.23-1.64 0.97-3.15 1.76-3.36 1.76-0.203 0-0.367-1.1-0.367-2.46 0-2.05 0.646-2.84 3.88-4.73 3.63-2.13 3.97-3.93 0.377-2-2.34 1.25-2.59 1.14-2.59-1.18 0-1.56 0.793-2.46 3.29-3.74 3.9-1.99 3.8-1.99 7.5-0.18z"/><path d="m116 588c2.3 2.78-1.8 6.88-4.58 4.58-0.686-0.569-1.14-2-0.998-3.18 0.188-1.61 0.787-2.21 2.4-2.4 1.18-0.137 2.61 0.313 3.18 0.999zm1.22 9.28c0.717 1.87 0.736 1.83-1.78 3.15-2.02 1.06-2.55 1.04-4.57-0.152-2.52-1.49-2.61-1.69-1.46-3.48 0.628-0.988 1.11-1.05 2.34-0.283 0.959 0.594 2 0.678 2.72 0.22 1.66-1.05 2.17-0.949 2.74 0.546zm-7.09 4.67c2.64 1.67 2.85 1.69 5.71 0.32 2.4-1.14 3.1-1.21 3.66-0.331 1.16 1.84 0.84 2.29-2.94 4.13l-3.66 1.78-3.87-2.27c-3.38-1.98-3.73-2.44-2.81-3.65 0.583-0.765 1.08-1.46 1.11-1.55 0.029-0.087 1.28 0.622 2.79 1.58zm-1.32 5.67 3.96 2.48 4.17-2.11c2.29-1.16 4.53-1.89 4.97-1.62 1.83 1.13 0.51 2.81-4.19 5.32l-4.99 2.66-5.02-3.05c-3.45-2.1-4.88-3.44-4.56-4.27 0.258-0.672 0.468-1.38 0.468-1.57 0-0.789 1.46-0.18 5.2 2.17zm-29-1.57c1.92 1.08 1.83 4.6-0.152 5.66-2.03 1.09-5.6-1.51-4.83-3.51 0.766-2 3.3-3.09 4.98-2.15zm69.8 2.81c1.67 1.67 1.72 3.21 0.141 4.52-2.66 2.2-6.74-1.03-4.93-3.91 1.25-1.98 3.17-2.22 4.79-0.605zm-50.5 1.25c0.32 0.519 0.326 3.33 0.014 6.25l-0.568 5.31-4.53 2.59c-2.49 1.43-5.08 2.38-5.75 2.13-2.33-0.896-1.19-2.74 2.9-4.65l4.12-1.93 0.244-5.06c0.189-3.92 0.552-5.11 1.62-5.32 0.757-0.146 1.64 0.161 1.96 0.679zm-5.41 3.7v4.55l-4.07 2.06c-3.51 1.78-4.14 1.88-4.57 0.776-0.8-2.08-0.589-2.67 1.16-3.23 2.74-0.871 4.16-2.87 4.16-5.87 0-2.29 0.322-2.85 1.66-2.85 1.46 0.001 1.66 0.554 1.66 4.55zm-5.52-3.92c1 1.62-0.655 5.33-2.9 6.49-2.18 1.13-2.45 1.11-2.94-0.151-0.323-0.842 0.012-1.8 0.845-2.4 0.759-0.555 1.38-1.81 1.38-2.78 0-1.2 0.518-1.78 1.61-1.78 0.886-0.001 1.79 0.281 2 0.626zm52.8 3.01c0 1.15 0.575 2.41 1.28 2.81 0.776 0.435 1.07 1.27 0.741 2.12-0.685 1.78-1.94 1.75-4.37-0.127-2.59-1.99-2.28-6.23 0.485-6.62 1.51-0.215 1.87 0.132 1.87 1.83zm-5.81 1.37c0 2.94 0.349 3.56 2.9 5.06 2.48 1.46 2.77 1.94 2.02 3.34-0.858 1.6-0.941 1.6-4.35-0.41-3.35-1.97-3.48-2.21-3.72-6.69-0.226-4.21-0.09-4.65 1.45-4.65 1.43-0.002 1.7 0.524 1.7 3.35zm-5.25 1.48-0.504 4.83 4.11 2.44c2.26 1.34 4.11 2.92 4.12 3.5 0.033 2.14-2.32 1.86-6.89-0.817l-4.68-2.74-0.016-6.02c-0.016-5.96 0.006-6.02 2.18-6.02 2.18 0 2.19 0.035 1.69 4.83zm-23.6-1.72c3.28 2.62 3.91 3.58 3.96 6.02 0.028 1.6 0.276 3.75 0.552 4.77 0.68 2.54-0.425 2.35-4.48-0.769-3.03-2.33-3.49-3.14-3.98-7-0.3-2.4-0.412-4.76-0.248-5.25 0.163-0.487 2.05 0.514 4.2 2.23zm16.9 1.51c-0.319 2.26-0.743 4.66-0.942 5.34-0.377 1.3-7.66 6.28-8.28 5.66-0.194-0.193-0.042-2.32 0.337-4.71 0.701-4.44 1.06-4.88 7.01-8.78l2.45-1.61-0.58 4.1zm-17.9 12.4 3.74 1.97-4.01 1.73c-2.21 0.952-4.53 1.73-5.17 1.73-1.43 0-8.67-3.47-8.67-4.15 0-0.645 7.49-3.34 9.13-3.29 0.686 0.024 2.93 0.927 4.98 2.01zm24.5 0.755 4.15 1.94-3.27 1.39c-5.47 2.32-6.57 2.34-11.2 0.182l-4.49-2.08 3.97-1.7c4.98-2.14 5.8-2.12 10.9 0.265zm-36.2 5.64c4.94 3.14 5.23 3.5 4.76 5.86-0.277 1.38-0.504 3.97-0.504 5.74 0 2.66-0.286 3.22-1.66 3.22-1.47 0-1.66-0.553-1.66-4.9v-4.9l-4.17-2.68c-3.59-2.3-4.03-2.86-3.14-4.03 0.566-0.744 1.05-1.42 1.07-1.51 0.024-0.083 2.41 1.35 5.3 3.19zm43.2-0.179c0.777 1.45 0.483 1.87-2.36 3.32-5.02 2.56-5.91 3.83-5.91 8.41 0 3.57-0.217 4.09-1.7 4.09-1.57 0-1.68-0.433-1.45-5.84l0.244-5.84 5.15-2.9c5-2.81 5.17-2.85 6.04-1.24zm-26.6 0.251c-0.029 5.96-1.02 8.1-5.12 11.1-2.24 1.65-4.21 2.86-4.36 2.69-0.154-0.169 0.087-2.56 0.538-5.3 0.776-4.74 1.02-5.13 4.89-7.69 3.98-2.63 4.07-2.65 4.06-0.816zm8.14 2.08c2.95 2.73 3.41 3.65 3.72 7.47 0.422 5.18-0.209 5.38-4.72 1.52-2.91-2.49-3.28-3.26-3.63-7.44-0.232-2.8-0.057-4.66 0.439-4.66 0.455-0.001 2.34 1.4 4.19 3.11zm-29.1 1.57c3.45 2.08 3.53 2.22 3.53 6.61 0 4.23-0.118 4.48-2.08 4.48-1.91 0-2.08-0.304-2.08-3.74 0-2.06-0.28-3.74-0.622-3.76-1.72-0.051-4.4-3.06-3.9-4.37 0.696-1.81 0.908-1.78 5.14 0.774zm50 1.09c0.798 1.49 0.554 1.86-2.03 3.1-2.61 1.24-2.94 1.76-2.94 4.59 0 2.13-0.432 3.36-1.3 3.69-2.3 0.884-3.11-0.941-2.32-5.25 0.646-3.54 1.13-4.22 4.2-5.91 3.47-1.92 3.48-1.92 4.38-0.221zm-54.1 2.99c2.52 1.77 2.66 7.01 0.185 7.01-1.17 0-1.66-0.553-1.66-1.88 0-1.03-0.775-2.36-1.72-2.95-1.38-0.864-1.53-1.31-0.729-2.27 1.25-1.51 1.66-1.5 3.93 0.092zm57 1.82c0.374 0.973-0.008 1.83-1.16 2.59-0.943 0.627-1.72 1.84-1.72 2.7 0 1.01-0.589 1.56-1.66 1.56-1.34 0-1.66-0.554-1.66-2.88 0-2.35 0.45-3.12 2.45-4.15 3.05-1.58 3.06-1.58 3.74 0.186zm-25.1 5.03c3.98 2.59 4.59 3.3 3.89 4.55-0.771 1.38-1.15 1.3-5.33-1.1l-4.5-2.58-4.22 2.3c-3.54 1.93-4.34 2.1-4.98 1.09-0.418-0.66-0.761-1.39-0.763-1.62-0.004-0.543 9.62-5.82 10.5-5.77 0.376 0.025 2.8 1.43 5.4 3.11zm-37.6-2c2.3 2.78-1.8 6.88-4.58 4.58-0.687-0.569-1.14-2-0.998-3.18 0.187-1.61 0.786-2.21 2.4-2.4 1.18-0.136 2.61 0.313 3.18 0.998zm68.5 1.58c2.12 1.55 1.46 5.06-1 5.41-3.67 0.521-5.52-2.68-3.01-5.19 1.58-1.58 2.1-1.61 4.01-0.221zm-32.5 5.8c3.4 2 3.45 2.1 2.31 3.9-0.687 1.09-1.16 1.04-3.75-0.351-2.8-1.5-3.12-1.52-5.82-0.227-2.71 1.29-2.91 1.28-3.67-0.143-0.671-1.25-0.268-1.81 2.38-3.3 3.91-2.2 4.65-2.19 8.56 0.116zm-2.04 5.2c1.96 1.38 2.41 3.24 0.979 4.13-0.477 0.295-1.39 0.104-2.02-0.424-0.842-0.698-1.61-0.715-2.83-0.061-1.37 0.735-1.84 0.6-2.56-0.744-0.748-1.4-0.512-1.83 1.58-2.92 2.99-1.55 2.61-1.55 4.85 0.019zm-0.29 8.32c1.58 1.58 1.61 2.1 0.22 4.01-1.55 2.12-5.06 1.46-5.41-1-0.52-3.67 2.68-5.53 5.19-3.01z"/><path d="m645 840c1.25 2.14 0.551 4.84-1.53 5.93-1.73 0.904-1.7 0.937 0.503 0.629 1.98-0.275 2.29-0.059 2.08 1.44-0.184 1.29-1.03 1.9-3.16 2.28-1.78 0.314-2.18 0.556-1.04 0.622 2.29 0.135 2.42 1.42 0.262 2.57-3.42 1.83-7.53-0.118-7.53-3.56 0-1.65 0.885-1.77 2.52-0.35 0.655 0.57 0.321 0.042-0.743-1.18-1.37-1.56-1.77-2.74-1.36-4.02l0.571-1.8 2.07 1.94 2.07 1.94-0.988-2.18c-0.745-1.64-0.756-2.61-0.044-3.94 1.17-2.19 5.1-2.39 6.31-0.311zm-20.9 4.18c0.815 0.901 1.17 2.29 0.911 3.53-0.419 1.98-0.392 1.98 0.888-0.238 0.726-1.26 1.64-2.28 2.03-2.28 1.22 0 1.76 2.53 0.89 4.16-1.23 2.29-1 3.04 0.359 1.19 1.13-1.54 1.21-1.54 1.77-0.105 1.4 3.62-4.04 8.58-6.85 6.25-1.02-0.848-0.914-1.16 0.724-2.06 2.33-1.3 1.6-1.44-1.44-0.278-1.58 0.603-2.56 0.573-3.38-0.102-1.62-1.35-1.42-2.41 0.468-2.41 0.886 0 1.88-0.437 2.21-0.971 0.414-0.669 0.133-0.792-0.9-0.396-1.8 0.692-4.58-1.54-4.58-3.68 0-0.81 0.587-2.06 1.3-2.78 1.72-1.72 3.93-1.65 5.59 0.179zm11.2 9.53c1.14 1.21 1.52 2.28 1.08 3-0.528 0.854-0.833 0.88-1.31 0.105-0.478-0.772-0.784-0.746-1.31 0.112-1.25 2.03-2.61-0.347-1.64-2.88 1.02-2.67 0.99-2.67 3.19-0.329zm16.6 1.54c-0.365 2.49-0.329 2.52 0.943 0.94 3.1-3.86 8.23-1.97 7.08 2.6-0.609 2.43-4.02 3.82-5.57 2.27-1.57-1.57-2.62-1.04-1.15 0.583 1.72 1.9 1.72 2.32-0.022 2.99-0.896 0.344-2.01-0.151-3.11-1.38-0.944-1.06-1.44-1.56-1.1-1.11 1.06 1.37 0.694 2.14-1.02 2.14-2.33 0-4.38-3.45-3.69-6.21 0.651-2.59 2.68-3.68 3.74-2.01 0.558 0.881 0.736 0.732 0.746-0.62 0.011-1.51 1.42-2.79 3.08-2.79 0.244 0.002 0.271 1.17 0.062 2.59zm-8.41 1.15c-0.29 0.756-0.527 1.9-0.527 2.55 0 0.648-0.561 1.18-1.24 1.18-0.684 0-1.24-0.561-1.24-1.24 0-0.686-0.298-1.24-0.661-1.24-0.832 0-0.801 3.8 0.038 4.64 1.02 1.02 0.707 2.01-0.649 2.01-0.699 0-1.57 0.811-1.94 1.8-0.442 1.19-0.87 1.47-1.27 0.83-0.331-0.535-1.5-0.973-2.6-0.973-1.41 0-1.86-0.356-1.54-1.21 0.254-0.663-0.177-2.06-0.959-3.11-0.819-1.1-1.22-1.32-0.957-0.522 0.722 2.15-1.71 2.51-3.14 0.473-1.72-2.46-1.62-2.83 0.982-3.49 1.67-0.419 2.54-0.174 3.37 0.947 1.08 1.46 1.16 1.45 2.32-0.103 0.929-1.26 1.42-1.39 2.19-0.623 1.47 1.47 2.17 1.22 2.47-0.875 0.206-1.45 0.894-1.93 3.08-2.14 2.33-0.224 2.72-0.035 2.28 1.1zm-17.6 5.86c0.956 1.46 1.22 2.92 0.842 4.65-0.463 2.11-0.877 2.46-2.54 2.14-1.52-0.291-1.99-0.019-1.99 1.16 0 1.02-0.598 1.54-1.76 1.54-1.52 0-1.7-0.345-1.26-2.53 0.314-1.57 0.196-2.34-0.311-2.03-0.45 0.278-0.818 1-0.818 1.61 0 1.98-4.23 2.4-6.03 0.604-3.43-3.43 1.8-8.53 5.49-5.36 1.72 1.48 1.72 1.47 0.299-0.777-1.8-2.85-1.78-3.14 0.181-3.14 0.88 0 2.37 0.984 3.32 2.19 0.946 1.2 1.72 1.79 1.72 1.3 0-0.491-0.38-1.13-0.844-1.42-0.464-0.287-0.629-0.869-0.366-1.29 0.867-1.4 2.66-0.808 4.08 1.35zm19 1.61c1.45 2 1.44 2.04-0.621 2.55-2.7 0.679-5.48-0.249-3.82-1.27 0.624-0.386 0.906-1.3 0.625-2.03-0.822-2.14 2.14-1.56 3.82 0.751zm-14 1.6c-0.328 0.854-0.039 1.31 0.833 1.31 2.43 0 1.38 2.27-1.29 2.81-1.44 0.288-2.74 0.409-2.88 0.27-0.746-0.747 1.26-5.19 2.44-5.42 0.972-0.188 1.24 0.124 0.89 1.04zm8.43 2.36c0.244 0.636 0.043 2.21-0.446 3.49l-0.89 2.34-2.07-1.94c-2.16-2.03-2.3-3.68-0.302-3.72 0.646-0.012 1.64-0.315 2.22-0.675 0.623-0.391 1.22-0.189 1.49 0.501zm8.27 0.618c0.284 0.46-0.348 1.18-1.4 1.59-1.56 0.612-1.24 0.729 1.73 0.615 4.26-0.162 5.42 1.37 2 2.62l-2.32 0.848 2.25 0.065c2.94 0.085 4.51 2.79 3.25 5.57-1.82 3.99-8 1.33-7.08-3.04 0.298-1.42 0.026-1.17-0.887 0.807-1.19 2.59-1.44 2.73-2.62 1.55-1.05-1.05-1.11-1.65-0.337-3.1 0.531-0.991 0.784-2.25 0.562-2.8-0.222-0.546-0.433-0.307-0.469 0.53-0.036 0.844-0.528 1.36-1.1 1.16-1.48-0.524-0.938-4.96 0.758-6.2 1.71-1.25 4.96-1.37 5.68-0.207zm-12.8 3.8c1.93 2.05 1.66 5.3-0.322 3.97-0.587-0.395-0.396-0.097 0.425 0.662 1.52 1.41 1.94 3.3 0.931 4.3-0.309 0.309-1.43-0.254-2.49-1.25-1.86-1.74-2.84-1.11-1.05 0.681 1.49 1.49 0.021 5.07-2.33 5.66-3.17 0.796-5.56-1.81-4.42-4.81 0.465-1.22 1.39-2.22 2.06-2.22 0.669 0 1.44-0.368 1.72-0.817 0.313-0.508-0.457-0.626-2.03-0.312-2.19 0.438-2.53 0.266-2.53-1.26 0-1.16 0.523-1.76 1.52-1.76 1.03 0 1.5-0.586 1.45-1.82-0.051-1.4 0.548-1.95 2.59-2.38 2.14-0.45 3.01-0.185 4.46 1.36z"/><path d="m151 812c0 0.869 0.374 1.58 0.83 1.58 1.53 0 0.85 1.81-0.848 2.26-1.27 0.33-1.46 0.703-0.785 1.52 0.679 0.816 0.348 1.34-1.37 2.18-1.25 0.607-2.42 1.57-2.6 2.14-0.474 1.45 1.87 1.3 3.12-0.209 1.47-1.77 3.65-1.63 2.95 0.189-0.413 1.08-0.044 0.957 1.48-0.479 1.39-1.3 2.22-1.61 2.62-0.963 0.322 0.521 0.367 1.17 0.101 1.43-0.267 0.268 0.163 0.99 0.955 1.6 1.36 1.06 1.35 1.19-0.172 2.36-0.886 0.686-1.28 1.24-0.872 1.24 0.406 0 0.3 0.441-0.237 0.979-0.749 0.748-1.4 0.602-2.8-0.623-1-0.881-1.57-1.16-1.25-0.619 0.939 1.61-1.11 2.19-2.69 0.762-1.69-1.53-3.41-1.74-3.41-0.426 0 0.498 1.12 1.33 2.49 1.84 1.84 0.693 2.37 1.33 2.02 2.42-0.314 0.988-0.039 1.48 0.832 1.48 0.716 0 1.3 0.561 1.3 1.25 0 0.684-0.396 1.24-0.879 1.24-0.484 0-0.675 0.332-0.424 0.736 0.25 0.406-0.102 1.2-0.781 1.76-0.982 0.816-1.49 0.814-2.48-0.006-0.928-0.771-1.25-0.785-1.25-0.053 0 0.539-0.409 0.727-0.908 0.418-0.5-0.309-0.748-1.4-0.552-2.43 0.267-1.39 0.021-1.78-0.97-1.52-0.984 0.258-1.32-0.254-1.32-1.98 0.006-1.28-0.363-2.33-0.82-2.33s-0.735 1.03-0.62 2.28c0.149 1.61-0.173 2.28-1.09 2.28-0.859 0-1.21 0.609-1.04 1.79 0.143 0.984-0.207 1.95-0.778 2.14-0.571 0.195-1.04-0.096-1.04-0.646 0-0.781-0.267-0.779-1.21 0.002-1.57 1.3-3.2 0.275-2.68-1.7 0.222-0.846 0.021-1.46-0.446-1.36-0.467 0.098-1.02-0.287-1.23-0.859-0.209-0.57 0.211-1.04 0.934-1.04s1.32-0.654 1.32-1.45c0.003-0.799 1.22-2.17 2.7-3.05 2.2-1.31 2.42-1.66 1.18-1.94-0.833-0.188-2.21 0.287-3.06 1.06-1.64 1.49-3.73 0.967-2.77-0.688 0.314-0.539-0.176-0.326-1.09 0.473-1.9 1.66-2.78 1.84-2.78 0.563 0-0.488-0.564-1.45-1.25-2.14-1.38-1.38-0.953-2.78 0.861-2.78 0.644 0 0.978-0.5 0.743-1.11-0.542-1.41 4.23-1.33 6.86 0.115 2.46 1.35 3.63 1.26 3.05-0.254-0.264-0.689-1.4-1.48-2.53-1.77-1.45-0.365-1.94-0.949-1.67-2 0.251-0.959-0.164-1.62-1.18-1.89-1.61-0.422-2.21-2.22-0.734-2.22 0.457 0 0.831-0.572 0.831-1.27 0-1.73 2.48-2.56 3.39-1.13 0.524 0.828 0.737 0.863 0.746 0.121 0.007-0.57 0.387-1.04 0.843-1.04s0.83 0.922 0.83 2.05c0 1.57 0.324 1.93 1.38 1.52 1.15-0.441 1.3-0.121 0.885 1.93-0.593 2.96 0.636 5.7 1.52 3.38 0.304-0.793 0.354-2.21 0.109-3.14-0.271-1.04 0.018-1.88 0.737-2.15 0.649-0.248 1.18-1.09 1.18-1.86 0-1.04 0.761-1.43 2.91-1.49 2.33-0.069 2.9 0.228 2.9 1.49z"/><path d="m378 737c1.54 2.87 1.54 2.87-0.444 4.99l-1.99 2.12-1.56-2.46c-1.62-2.56-1.25-4.45 1.28-6.56 0.935-0.776 1.46-0.403 2.71 1.91zm-16.6 3.5c3.28 3.8 4.02 5.22 3.81 7.26-0.384 3.69-0.691 3.88-3.84 2.38-2.51-1.2-2.95-1.9-3.74-5.99-0.491-2.55-1.07-5.48-1.29-6.5-0.631-2.96 0.671-2.22 5.05 2.85zm34.4-1.61c0 0.395-0.865 3.28-1.92 6.42-1.75 5.2-2.19 5.8-4.98 6.76l-3.06 1.06 0.001-3.48c0-3.13 0.4-3.83 3.94-6.86 4.67-3.99 6.02-4.87 6.02-3.9zm-23.1 4.88 3.03 2.08 3.52-1.79c2.84-1.45 3.65-1.58 4.22-0.681 0.388 0.611 0.711 1.4 0.718 1.75 0.012 0.576-4.39 3.59-6.08 4.16-0.384 0.13-0.823 2.53-0.975 5.34s-0.728 5.94-1.28 6.97c-0.98 1.83-1.03 1.84-2.21 0.271-0.909-1.2-1.09-2.97-0.726-7.1l0.486-5.5-3.32-2.2c-3.56-2.36-3.87-2.95-2.32-4.5 1.29-1.29 1.37-1.27 4.94 1.19zm-3.18 5c0.3 0.3 0.317 2.49 0.037 4.87-0.331 2.82-0.183 4.52 0.423 4.9 1.15 0.714 1.24 5.46 0.101 5.46-1.29 0-4.15-3.17-4.15-4.6 0-0.722-1.64-1.98-3.77-2.89-3.42-1.47-3.69-1.78-2.84-3.36 0.631-1.18 1.38-1.56 2.32-1.17 2.86 1.18 3.88 0.815 4.14-1.48 0.251-2.18 2.33-3.15 3.74-1.74zm15 1.55c0.286 0.747 0.521 2.06 0.521 2.93 0 1.35 0.307 1.46 2.15 0.756 2.52-0.956 3.67-0.452 3.67 1.6 0 1.01-1.07 1.8-3.36 2.49-2.1 0.63-3.69 1.73-4.24 2.94-0.486 1.07-1.78 2.35-2.87 2.84-1.81 0.823-1.98 0.717-1.98-1.18 0-1.15 0.594-2.99 1.32-4.1 0.843-1.29 1.22-3.3 1.04-5.57-0.246-3.1-0.056-3.59 1.48-3.81 1.04-0.147 1.98 0.307 2.28 1.11zm-27.2 2.82-0.542 4.09 4.53 2.76c3.81 2.32 6.3 5.1 6.3 7.02 0 0.606-5.3-0.588-5.81-1.31-0.228-0.319-1.86-1.55-3.62-2.73l-3.2-2.15-3.78 1.62c-3 1.29-3.92 1.4-4.46 0.554-1.26-1.99-0.71-2.89 2.58-4.18 3.08-1.21 3.32-1.54 3.84-5.52 0.506-3.81 0.768-4.23 2.64-4.23 2.01-0.002 2.06 0.135 1.53 4.09zm-7.26-1.1c1.6 3.52 1.21 4.48-1.86 4.48-2.34 0-2.98-0.417-3.85-2.52-1.21-2.92-1.22-2.9 2.18-3.55 2.19-0.415 2.73-0.172 3.53 1.58zm47 3.58c-0.538 4.06-0.529 4.08 2.88 6.34 3.74 2.47 4 3.01 2.23 4.48-0.937 0.777-1.88 0.539-4.55-1.14l-3.36-2.12-3.76 1.82c-2.06 1-3.76 2.12-3.76 2.49 0 0.365-1.31 0.664-2.91 0.664s-2.9-0.28-2.89-0.622c0.046-1.54 3.25-4.19 7.25-5.99 3.61-1.63 4.36-2.34 4.37-4.11 0.022-4.15 0.909-5.88 3.02-5.88 1.92 0 1.99 0.17 1.47 4.08zm6.92-1.74c2.96 0.285 3.16 0.723 1.74 3.85-0.675 1.48-1.61 2.11-3.11 2.1-3.59-0.021-4.24-0.919-2.69-3.72 1.16-2.09 1.8-2.45 4.07-2.23zm-48 11.9c1.58 1.33 3.84 2.42 5.03 2.42s2.88 0.554 3.77 1.23c1.4 1.06 1.44 1.34 0.366 2.06-0.685 0.458-2.55 0.841-4.15 0.852-1.6 0.01-4.03 0.76-5.4 1.67-3.06 2.02-4.23 2.08-4.93 0.242-0.361-0.941 0.095-1.9 1.35-2.85l1.9-1.43-1.87-1.99c-1.78-1.9-1.8-2.06-0.404-3.3 1.35-1.21 1.69-1.12 4.34 1.11zm21.4 1.31c1.31 0.917 1.87 2.14 1.87 4.12 0 2.27-0.508 3.13-2.63 4.42-2.67 1.63-3.44 1.51-6.82-1.02-2.27-1.69-1.26-6.64 1.62-7.95 2.7-1.23 3.68-1.16 5.97 0.433zm-27.1 0.73c1.69 1.8 1.8 2.24 0.768 2.93-3.74 2.49-4.2 2.53-9.36 0.799-6.97-2.34-8.12-3.12-5.52-3.71 11.6-2.65 11.6-2.65 14.1-0.02zm47 0.086c0.338 0.882-0.16 1.93-1.39 2.93l-1.92 1.56 1.78 1.9c1.58 1.69 1.65 2.07 0.596 3.5-1.15 1.56-1.27 1.52-3.98-1.09-1.9-1.83-3.6-2.7-5.3-2.7-1.38 0-3.2-0.511-4.05-1.14-1.5-1.1-1.5-1.17 0.202-2.08 0.966-0.517 3-0.948 4.51-0.958 1.51-0.011 3.69-0.749 4.83-1.64 2.55-2 4.04-2.09 4.73-0.286zm10.5 3.24c3.15 1.1 5.88 2.15 6.06 2.34 0.651 0.651-12.2 3.12-13.8 2.63-0.854-0.271-2.18-1.19-2.95-2.04-1.33-1.47-1.27-1.64 1.06-3.3 2.94-2.1 2.47-2.11 9.59 0.375zm-41 3.32c0 1.82-2.38 3.91-6.65 5.83l-4.98 2.23v4.04c0 3.75-0.146 4.04-2.08 4.04-1.95 0-2.08-0.265-2.08-4.36-0.006-4.21-0.117-4.42-3.33-6.26-2.88-1.64-3.21-2.12-2.46-3.53 1.09-2.04 1.05-2.04 5.24 0.409l3.48 2.04 4.48-2.45c4.02-2.2 8.37-3.23 8.37-1.98zm17 1.07c0.917 0.297 3.43 1.77 5.58 3.26l3.92 2.73 3.31-1.69c4.04-2.06 3.94-2.06 5.03-0.029 0.785 1.47 0.455 1.87-2.88 3.49-3.69 1.79-3.76 1.91-3.76 5.81 0 3.7-0.15 3.98-2.08 3.98s-2.08-0.279-2.08-4.11c0-3.98-0.126-4.2-3.94-6.76-4.35-2.92-6.02-4.67-6.02-6.31 0-1.17 0.341-1.21 2.91-0.38zm-13.7 3.47c0 0.93-0.654 2.69-1.45 3.92-0.843 1.29-1.45 3.81-1.45 5.99 0 3.27-0.244 3.8-1.87 4.03-1.63 0.231-1.87-0.102-1.87-2.66 0-2.91-0.012-2.92-2.58-2.02-2.04 0.711-2.73 0.657-3.31-0.25-1.31-2.07-0.796-3.08 1.86-3.67 1.44-0.316 4.04-2.03 5.78-3.8 3.54-3.61 4.89-4.04 4.89-1.54zm8.94-0.304c0.58 0.233 1.62 1.51 2.3 2.83 0.685 1.32 2.73 3.17 4.55 4.09 3.49 1.78 3.73 2.18 2.52 4.1-0.618 0.978-1.16 1.02-2.93 0.208-2.85-1.3-2.71-1.36-3.34 1.5-0.369 1.68-1.05 2.49-2.09 2.49-2.17 0-2.48-0.863-1.65-4.55 0.53-2.35 0.404-3.83-0.466-5.52-1.27-2.46-1.6-5.75-0.568-5.64 0.342 0.037 1.1 0.258 1.68 0.491zm-4.27 2.14c0.348 1.03 0.522 4.08 0.387 6.78-0.239 4.76-0.151 4.99 2.8 7.47 2.19 1.84 2.89 2.97 2.49 4.02-0.757 1.97-1.65 1.84-5.02-0.731l-2.86-2.18-3.75 1.98c-3.24 1.71-3.85 1.81-4.54 0.73-1.23-1.93-1.07-2.19 2.92-4.52l3.74-2.19 0.026-5.15c0.036-6.58 2.39-10.4 3.82-6.19zm-26.4 2.19c0.926 0.587 0.901 1.12-0.146 3.15-1.11 2.14-1.63 2.4-4.23 2.1-3.42-0.398-3.37-0.303-1.7-3.53 1.29-2.49 3.76-3.18 6.08-1.72zm55.3 5.29c0.624 1.48 1.07 2.74 0.997 2.79-0.075 0.049-1.35 0.318-2.82 0.601-2.37 0.45-2.84 0.223-3.94-1.92-1.83-3.55-1.58-4.17 1.69-4.17 2.54-0.001 3.1 0.373 4.08 2.7zm-41.4 3.76c0.547 2.92 0.376 3.2-4.73 7.78-2.91 2.61-5.44 4.61-5.61 4.44-0.419-0.42 3.21-11.4 4.17-12.6 0.422-0.535 1.85-1.35 3.18-1.81 2.33-0.813 2.43-0.739 2.98 2.19zm24.8 0.062c2.2 1.34 2.63 2.26 3.53 7.48 0.563 3.28 1.02 6.36 1.02 6.86 0 0.894-7.23-6.69-8.59-9.01-0.767-1.31 0.001-6.88 0.947-6.87 0.322 0.003 1.71 0.692 3.09 1.53zm-13.4 7.98c1.77 2.7 1.69 3.7-0.458 5.99l-1.8 1.91-1.54-2.54c-1.52-2.49-1.51-2.58 0.194-4.98 0.955-1.34 1.86-2.44 2-2.44 0.145 0.001 0.866 0.921 1.6 2.05z"/><path d="m296 924c0.273 0.273 0.272 1.08-0.002 1.8-0.33 0.857-0.169 1.1 0.472 0.699 0.576-0.355 0.971-0.096 0.971 0.639 0 0.682-0.796 1.49-1.77 1.8-1.4 0.441-1.53 0.717-0.623 1.3 0.964 0.621 0.949 0.869-0.098 1.56-0.685 0.449-1.67 0.824-2.19 0.83-0.522 0.008-1.16 0.574-1.43 1.26-0.642 1.67 2.24 1.66 3.63-0.01 0.792-0.955 1.31-1.03 2.18-0.313 0.852 0.705 1.45 0.684 2.38-0.092 0.685-0.568 1.24-0.801 1.24-0.518 0 1.42 0.211 1.81 1.3 2.43 1.53 0.859 1.5 1.83-0.172 4.37-1.25 1.91-1.48 1.97-2.8 0.766-1.32-1.19-1.49-1.19-1.98 0.086-0.496 1.29-0.646 1.3-2.04 0.037-0.826-0.748-2.17-1.36-2.99-1.36-1.23 0-1.31 0.217-0.456 1.25 0.568 0.686 1.53 1.25 2.13 1.25 1.59 0 2.42 1.73 1.19 2.49-0.749 0.463-0.543 0.807 0.724 1.21 1.73 0.549 2.49 2.11 1.03 2.11-0.406 0-0.686 0.652-0.623 1.45 0.089 1.12-0.609 1.49-3.1 1.63-3.18 0.178-3.21 0.156-2.75-2.49 0.251-1.47 0.264-2.2 0.029-1.63-0.838 2.03-1.95 0.992-1.95-1.82 0-1.57-0.374-3.09-0.831-3.37-0.903-0.559-1.09 0.363-0.843 4.06 0.132 1.95-0.102 2.3-1.25 1.86-1.16-0.447-1.32-0.182-0.898 1.51 0.484 1.93 0.328 2.04-2.61 1.88-2.14-0.117-3.12-0.563-3.12-1.42 0-0.684-0.555-1.59-1.23-2.02-0.993-0.623-0.75-0.98 1.24-1.83 1.36-0.58 2.01-1.07 1.44-1.09-1.8-0.064-1.13-1.7 1.04-2.53 1.14-0.436 2.08-1.17 2.08-1.64 0-1.28-2.14-1.02-3.32 0.395-1.36 1.64-2.49 1.58-2.49-0.129 0-1.27-0.118-1.27-1.55 0.027-1.46 1.32-1.62 1.28-2.99-0.805-1.38-2.11-1.15-3.75 0.978-6.91 0.126-0.188 0.979 0.336 1.9 1.17 1.5 1.35 1.67 1.37 1.67 0.133 0-1.71 1.13-1.77 2.49-0.129 0.568 0.686 1.83 1.23 2.8 1.22 1.76-0.027 1.76-0.031-0.113-1.6-1.03-0.861-2.34-1.76-2.91-1.98-0.772-0.314-0.729-0.625 0.175-1.25 0.965-0.672 0.754-0.949-1.07-1.41-2.05-0.514-2.76-2.7-0.745-2.27 0.46 0.096 0.787-0.463 0.727-1.24-0.084-1.08 0.638-1.46 3.01-1.59 2.93-0.164 3.09-0.053 2.61 1.88-0.423 1.69-0.266 1.96 0.892 1.51 1.18-0.449 1.36-0.09 1.13 2.19-0.167 1.66 0.132 2.87 0.762 3.09 0.704 0.242 1.04-0.6 1.04-2.62 0-2.93 1.07-3.97 2-1.94 0.261 0.572 0.262-0.176 0.003-1.66-0.456-2.61-0.377-2.7 2.36-2.7 1.56-0.001 3.06 0.221 3.33 0.495z"/></symbol><use xlink:href="#a" style="fill: #494949" /></svg>
